<?xml version="1.0" encoding="UTF-8" standalone="no"?><!DOCTYPE svg PUBLIC "-//W3C//DTD SVG 1.1//EN" "http://www.w3.org/Graphics/SVG/1.1/DTD/svg11.dtd"><svg width="4000px" height="2500px" version="1.1" xmlns="http://www.w3.org/2000/svg" xmlns:xlink="http://www.w3.org/1999/xlink" xml:space="preserve" xmlns:serif="http://www.serif.com/" style="fill-rule:evenodd;clip-rule:evenodd;stroke-linejoin:round;stroke-miterlimit:2;"><g><g transform="matrix(0.640347,0,0,0.640347,2406.36,-534.777)"><g transform="matrix(1.56165,0,0,1.56165,-3757.24,834.803)"><rect x="111.817" y="218.725" width="3805.79" height="2107.56" style="fill:rgb(174,211,240);"/></g><g transform="matrix(1.56165,0,0,1.56165,-3757.9,835.135)"><path d="M3918.03,2326.07L3918.03,933.42C3730.91,994.105 3535.4,1088.43 3486.97,1118.56C3203.41,1294.99 3149.64,1505.35 3080.68,1811.86C3067.3,1871.33 3053.86,1954.77 3003.09,1996.02C2756.98,2195.98 2316.03,1996.78 2047.92,2220.3C2017.17,2245.94 1982.12,2282.61 1947.84,2326.07L3918.03,2326.07ZM2650.78,218.512L112.235,218.512L112.235,1927.61C122.808,1929.68 133.633,1931.25 144.765,1932.18C512.417,1963.11 949.314,1503.42 1140.84,1230.5C1305.47,995.894 1479.83,617.112 1734.85,466.855C2017.57,300.279 2349.62,453.097 2650.78,218.512Z" style="fill:rgb(195,220,243);"/></g></g><g transform="matrix(1,0,0,1,0.418104,-0.212506)"><rect x="111.817" y="218.725" width="3805.79" height="2107.56" style="fill:none;"/><clipPath id="_clip1"><rect x="111.817" y="218.725" width="3805.79" height="2107.56"/></clipPath><g clip-path="url(#_clip1)"><g transform="matrix(1.23391,0,0,1.23391,-44.0017,-329.779)"><g transform="matrix(4.45245,0,0,4.45245,-642.653,286.691)"><g transform="matrix(1,0,0,1,631.77,306.67)"><path d="M0,0.718L-44.515,15.703C-46.546,16.363 -48.68,16.655 -50.813,16.565L-92.819,14.811L-42.372,-15.937L0,0.718Z" style="fill:rgb(5,131,124);fill-rule:nonzero;"/></g><g transform="matrix(1,0,0,1,538.951,229.409)"><path d="M0,92.072L45.594,71.156C48.132,70.77 49.808,67.942 49.336,64.838L43.263,8.678C42.792,5.574 41.331,-0.385 38.793,0.001L-10.558,22.535C-13.096,22.921 -14.771,25.749 -14.3,28.853L-5.449,87.149C-4.978,90.253 -2.538,92.457 0,92.072" style="fill:rgb(68,174,158);fill-rule:nonzero;"/></g><g transform="matrix(1,0,0,1,631.77,227.294)"><path d="M0,80.094L-38.034,71.875C-40.572,72.26 -43.012,70.057 -43.483,66.952L-59.488,9.497C-60.196,6.328 -56.088,0 -48.592,2.338L-10.558,10.557C-8.02,10.172 -5.58,12.376 -5.108,15.48L3.742,73.776C4.214,76.88 2.538,79.708 0,80.094" style="fill:rgb(68,174,158);fill-rule:nonzero;"/></g><g transform="matrix(1,0,0,1,589.75,234.426)"><path d="M0,64.032C0,64.032 -7.513,5.709 -11.053,-4.04C-11.053,-4.04 -8.766,30.585 -0.828,68.072L0,64.032Z" style="fill:rgb(5,131,124);fill-rule:nonzero;"/></g><g transform="matrix(-0.0167119,0.99986,0.99986,0.0167119,624.122,284.062)"><path d="M4.905,-4.988C1.643,-5.54 -1.002,-3.79 -1.002,-1.08C-1.002,1.63 1.643,4.273 4.905,4.825C8.169,5.376 10.813,3.627 10.813,0.916C10.813,-1.793 8.168,-4.438 4.905,-4.988" style="fill:rgb(20,114,64);fill-rule:nonzero;"/></g><g transform="matrix(-0.016679,0.999861,0.999861,0.016679,623.825,283.73)"><path d="M4.556,-4.633C1.526,-5.144 -0.93,-3.519 -0.93,-1.003C-0.93,1.514 1.526,3.968 4.556,4.481C7.586,4.992 10.042,3.367 10.042,0.852C10.042,-1.666 7.586,-4.121 4.556,-4.633" style="fill:rgb(166,220,212);fill-rule:nonzero;"/></g><g transform="matrix(-0.0167119,0.99986,0.99986,0.0167119,592.534,239.978)"><path d="M4.906,-4.988C1.644,-5.54 -1.001,-3.79 -1.002,-1.08C-1.001,1.63 1.643,4.273 4.906,4.825C8.169,5.377 10.813,3.627 10.814,0.916C10.813,-1.793 8.169,-4.438 4.906,-4.988" style="fill:rgb(20,114,64);fill-rule:nonzero;"/></g><g transform="matrix(-0.016679,0.999861,0.999861,0.016679,592.237,239.647)"><path d="M4.556,-4.633C1.526,-5.144 -0.93,-3.519 -0.93,-1.003C-0.93,1.514 1.526,3.968 4.556,4.481C7.586,4.992 10.042,3.367 10.042,0.852C10.042,-1.666 7.586,-4.121 4.556,-4.633" style="fill:rgb(166,220,212);fill-rule:nonzero;"/></g><g transform="matrix(-0.0122157,0.999925,0.999925,0.0122157,565.432,242.978)"><path d="M5.402,-5.469C1.805,-5.451 -1.111,-3.019 -1.112,-0.034C-1.112,2.95 1.805,5.354 5.402,5.336C8.999,5.318 11.916,2.885 11.916,-0.099C11.915,-3.083 8.999,-5.487 5.402,-5.469" style="fill:rgb(20,114,64);fill-rule:nonzero;"/></g><g transform="matrix(-0.0121566,0.999926,0.999926,0.0121566,565.234,242.615)"><path d="M5.016,-5.079C1.675,-5.061 -1.033,-2.801 -1.033,-0.031C-1.033,2.741 1.676,4.973 5.016,4.957C8.358,4.94 11.067,2.68 11.065,-0.092C11.066,-2.862 8.357,-5.096 5.016,-5.079" style="fill:rgb(166,220,212);fill-rule:nonzero;"/></g><g transform="matrix(-0.0122145,0.999925,0.999925,0.0122145,536.466,256.49)"><path d="M5.403,-5.469C1.806,-5.451 -1.11,-3.018 -1.111,-0.033C-1.111,2.951 1.806,5.355 5.403,5.337C9,5.319 11.916,2.886 11.917,-0.098C11.917,-3.082 9.001,-5.487 5.403,-5.469" style="fill:rgb(20,114,64);fill-rule:nonzero;"/></g><g transform="matrix(-0.0122574,0.999925,0.999925,0.0122574,536.269,256.128)"><path d="M5.017,-5.079C1.677,-5.063 -1.032,-2.803 -1.032,-0.032C-1.032,2.741 1.676,4.973 5.017,4.956C8.357,4.94 11.066,2.68 11.066,-0.091C11.066,-2.863 8.358,-5.096 5.017,-5.079" style="fill:rgb(166,220,212);fill-rule:nonzero;"/></g><g transform="matrix(-0.0122145,0.999925,0.999925,0.0122145,572.25,283.78)"><path d="M5.402,-5.469C1.805,-5.451 -1.111,-3.017 -1.111,-0.033C-1.112,2.951 1.805,5.355 5.402,5.338C9,5.32 11.916,2.885 11.916,-0.098C11.917,-3.082 9.001,-5.487 5.402,-5.469" style="fill:rgb(20,114,64);fill-rule:nonzero;"/></g><g transform="matrix(-0.0122562,0.999925,0.999925,0.0122562,572.053,283.418)"><path d="M5.018,-5.079C1.677,-5.062 -1.032,-2.802 -1.032,-0.031C-1.032,2.74 1.676,4.973 5.018,4.956C8.358,4.94 11.067,2.68 11.067,-0.091C11.067,-2.862 8.359,-5.096 5.018,-5.079" style="fill:rgb(166,220,212);fill-rule:nonzero;"/></g><g transform="matrix(-0.0122145,0.999925,0.999925,0.0122145,553.655,269.317)"><path d="M5.402,-5.469C1.805,-5.451 -1.111,-3.017 -1.111,-0.033C-1.111,2.951 1.805,5.355 5.402,5.338C9,5.319 11.916,2.885 11.916,-0.098C11.917,-3.082 9.001,-5.487 5.402,-5.469" style="fill:rgb(20,114,64);fill-rule:nonzero;"/></g><g transform="matrix(-0.0121566,0.999926,0.999926,0.0121566,553.458,268.956)"><path d="M5.017,-5.079C1.676,-5.062 -1.032,-2.802 -1.033,-0.032C-1.033,2.741 1.676,4.974 5.017,4.956C8.358,4.94 11.067,2.68 11.066,-0.092C11.065,-2.863 8.357,-5.097 5.017,-5.079" style="fill:rgb(166,220,212);fill-rule:nonzero;"/></g><g transform="matrix(-0.0122145,0.999925,0.999925,0.0122145,543.325,297.554)"><path d="M5.403,-5.469C1.805,-5.451 -1.11,-3.018 -1.111,-0.033C-1.111,2.951 1.805,5.355 5.403,5.337C9,5.319 11.916,2.886 11.917,-0.098C11.916,-3.082 9,-5.487 5.403,-5.469" style="fill:rgb(20,114,64);fill-rule:nonzero;"/></g><g transform="matrix(-0.0121578,0.999926,0.999926,0.0121578,543.127,297.192)"><path d="M5.017,-5.079C1.675,-5.063 -1.033,-2.802 -1.032,-0.031C-1.033,2.741 1.676,4.973 5.017,4.956C8.358,4.939 11.067,2.679 11.065,-0.092C11.066,-2.863 8.358,-5.096 5.017,-5.079" style="fill:rgb(166,220,212);fill-rule:nonzero;"/></g><g transform="matrix(0.104792,0.994494,0.994494,-0.104792,585.189,303.888)"><path d="M10.154,-9.142C8.293,-9.778 6.783,-5.724 6.783,-0.084C6.783,5.556 8.292,10.642 10.154,11.28C12.017,11.917 13.527,7.862 13.527,2.223C13.527,-3.417 12.016,-8.504 10.154,-9.142" style="fill:rgb(20,114,64);fill-rule:nonzero;"/></g><g transform="matrix(0.104775,0.994496,0.994496,-0.104775,584.791,304.271)"><path d="M9.43,-8.489C7.7,-9.081 6.299,-5.315 6.299,-0.078C6.299,5.16 7.701,9.885 9.43,10.476C11.16,11.068 12.562,7.301 12.562,2.064C12.561,-3.173 11.16,-7.897 9.43,-8.489" style="fill:rgb(166,220,212);fill-rule:nonzero;"/></g></g><g transform="matrix(-2.05207,0.793134,-0.793134,-2.05207,2151,1176.8)"><g transform="matrix(1,0,0,1,631.77,306.67)"><path d="M0,0.718L-44.515,15.703C-46.546,16.363 -48.68,16.655 -50.813,16.565L-92.819,14.811L-42.372,-15.937L0,0.718Z" style="fill:rgb(5,131,124);fill-rule:nonzero;"/></g><g transform="matrix(1,0,0,1,538.951,229.409)"><path d="M0,92.072L45.594,71.156C48.132,70.77 49.808,67.942 49.336,64.838L43.263,8.678C42.792,5.574 41.331,-0.385 38.793,0.001L-10.558,22.535C-13.096,22.921 -14.771,25.749 -14.3,28.853L-5.449,87.149C-4.978,90.253 -2.538,92.457 0,92.072" style="fill:rgb(68,174,158);fill-rule:nonzero;"/></g><g transform="matrix(1,0,0,1,631.77,227.294)"><path d="M0,80.094L-38.034,71.875C-40.572,72.26 -43.012,70.057 -43.483,66.952L-59.488,9.497C-60.196,6.328 -56.088,0 -48.592,2.338L-10.558,10.557C-8.02,10.172 -5.58,12.376 -5.108,15.48L3.742,73.776C4.214,76.88 2.538,79.708 0,80.094" style="fill:rgb(68,174,158);fill-rule:nonzero;"/></g><g transform="matrix(1,0,0,1,589.75,234.426)"><path d="M0,64.032C0,64.032 -7.513,5.709 -11.053,-4.04C-11.053,-4.04 -8.766,30.585 -0.828,68.072L0,64.032Z" style="fill:rgb(5,131,124);fill-rule:nonzero;"/></g><g transform="matrix(-0.0167119,0.99986,0.99986,0.0167119,624.122,284.062)"><path d="M4.905,-4.988C1.643,-5.54 -1.002,-3.79 -1.002,-1.08C-1.002,1.63 1.643,4.273 4.905,4.825C8.169,5.376 10.813,3.627 10.813,0.916C10.813,-1.793 8.168,-4.438 4.905,-4.988" style="fill:rgb(20,114,64);fill-rule:nonzero;"/></g><g transform="matrix(-0.016679,0.999861,0.999861,0.016679,623.825,283.73)"><path d="M4.556,-4.633C1.526,-5.144 -0.93,-3.519 -0.93,-1.003C-0.93,1.514 1.526,3.968 4.556,4.481C7.586,4.992 10.042,3.367 10.042,0.852C10.042,-1.666 7.586,-4.121 4.556,-4.633" style="fill:rgb(166,220,212);fill-rule:nonzero;"/></g><g transform="matrix(-0.0167119,0.99986,0.99986,0.0167119,592.534,239.978)"><path d="M4.906,-4.988C1.644,-5.54 -1.001,-3.79 -1.002,-1.08C-1.001,1.63 1.643,4.273 4.906,4.825C8.169,5.377 10.813,3.627 10.814,0.916C10.813,-1.793 8.169,-4.438 4.906,-4.988" style="fill:rgb(20,114,64);fill-rule:nonzero;"/></g><g transform="matrix(-0.016679,0.999861,0.999861,0.016679,592.237,239.647)"><path d="M4.556,-4.633C1.526,-5.144 -0.93,-3.519 -0.93,-1.003C-0.93,1.514 1.526,3.968 4.556,4.481C7.586,4.992 10.042,3.367 10.042,0.852C10.042,-1.666 7.586,-4.121 4.556,-4.633" style="fill:rgb(166,220,212);fill-rule:nonzero;"/></g><g transform="matrix(-0.0122157,0.999925,0.999925,0.0122157,565.432,242.978)"><path d="M5.402,-5.469C1.805,-5.451 -1.111,-3.019 -1.112,-0.034C-1.112,2.95 1.805,5.354 5.402,5.336C8.999,5.318 11.916,2.885 11.916,-0.099C11.915,-3.083 8.999,-5.487 5.402,-5.469" style="fill:rgb(20,114,64);fill-rule:nonzero;"/></g><g transform="matrix(-0.0121566,0.999926,0.999926,0.0121566,565.234,242.615)"><path d="M5.016,-5.079C1.675,-5.061 -1.033,-2.801 -1.033,-0.031C-1.033,2.741 1.676,4.973 5.016,4.957C8.358,4.94 11.067,2.68 11.065,-0.092C11.066,-2.862 8.357,-5.096 5.016,-5.079" style="fill:rgb(166,220,212);fill-rule:nonzero;"/></g><g transform="matrix(-0.0122145,0.999925,0.999925,0.0122145,536.466,256.49)"><path d="M5.403,-5.469C1.806,-5.451 -1.11,-3.018 -1.111,-0.033C-1.111,2.951 1.806,5.355 5.403,5.337C9,5.319 11.916,2.886 11.917,-0.098C11.917,-3.082 9.001,-5.487 5.403,-5.469" style="fill:rgb(20,114,64);fill-rule:nonzero;"/></g><g transform="matrix(-0.0122574,0.999925,0.999925,0.0122574,536.269,256.128)"><path d="M5.017,-5.079C1.677,-5.063 -1.032,-2.803 -1.032,-0.032C-1.032,2.741 1.676,4.973 5.017,4.956C8.357,4.94 11.066,2.68 11.066,-0.091C11.066,-2.863 8.358,-5.096 5.017,-5.079" style="fill:rgb(166,220,212);fill-rule:nonzero;"/></g><g transform="matrix(-0.0122145,0.999925,0.999925,0.0122145,572.25,283.78)"><path d="M5.402,-5.469C1.805,-5.451 -1.111,-3.017 -1.111,-0.033C-1.112,2.951 1.805,5.355 5.402,5.338C9,5.32 11.916,2.885 11.916,-0.098C11.917,-3.082 9.001,-5.487 5.402,-5.469" style="fill:rgb(20,114,64);fill-rule:nonzero;"/></g><g transform="matrix(-0.0122562,0.999925,0.999925,0.0122562,572.053,283.418)"><path d="M5.018,-5.079C1.677,-5.062 -1.032,-2.802 -1.032,-0.031C-1.032,2.74 1.676,4.973 5.018,4.956C8.358,4.94 11.067,2.68 11.067,-0.091C11.067,-2.862 8.359,-5.096 5.018,-5.079" style="fill:rgb(166,220,212);fill-rule:nonzero;"/></g><g transform="matrix(-0.0122145,0.999925,0.999925,0.0122145,553.655,269.317)"><path d="M5.402,-5.469C1.805,-5.451 -1.111,-3.017 -1.111,-0.033C-1.111,2.951 1.805,5.355 5.402,5.338C9,5.319 11.916,2.885 11.916,-0.098C11.917,-3.082 9.001,-5.487 5.402,-5.469" style="fill:rgb(20,114,64);fill-rule:nonzero;"/></g><g transform="matrix(-0.0121566,0.999926,0.999926,0.0121566,553.458,268.956)"><path d="M5.017,-5.079C1.676,-5.062 -1.032,-2.802 -1.033,-0.032C-1.033,2.741 1.676,4.974 5.017,4.956C8.358,4.94 11.067,2.68 11.066,-0.092C11.065,-2.863 8.357,-5.097 5.017,-5.079" style="fill:rgb(166,220,212);fill-rule:nonzero;"/></g><g transform="matrix(-0.0122145,0.999925,0.999925,0.0122145,543.325,297.554)"><path d="M5.403,-5.469C1.805,-5.451 -1.11,-3.018 -1.111,-0.033C-1.111,2.951 1.805,5.355 5.403,5.337C9,5.319 11.916,2.886 11.917,-0.098C11.916,-3.082 9,-5.487 5.403,-5.469" style="fill:rgb(20,114,64);fill-rule:nonzero;"/></g><g transform="matrix(-0.0121578,0.999926,0.999926,0.0121578,543.127,297.192)"><path d="M5.017,-5.079C1.675,-5.063 -1.033,-2.802 -1.032,-0.031C-1.033,2.741 1.676,4.973 5.017,4.956C8.358,4.939 11.067,2.679 11.065,-0.092C11.066,-2.863 8.358,-5.096 5.017,-5.079" style="fill:rgb(166,220,212);fill-rule:nonzero;"/></g><g transform="matrix(0.104792,0.994494,0.994494,-0.104792,585.189,303.888)"><path d="M10.154,-9.142C8.293,-9.778 6.783,-5.724 6.783,-0.084C6.783,5.556 8.292,10.642 10.154,11.28C12.017,11.917 13.527,7.862 13.527,2.223C13.527,-3.417 12.016,-8.504 10.154,-9.142" style="fill:rgb(20,114,64);fill-rule:nonzero;"/></g><g transform="matrix(0.104775,0.994496,0.994496,-0.104775,584.791,304.271)"><path d="M9.43,-8.489C7.7,-9.081 6.299,-5.315 6.299,-0.078C6.299,5.16 7.701,9.885 9.43,10.476C11.16,11.068 12.562,7.301 12.562,2.064C12.561,-3.173 11.16,-7.897 9.43,-8.489" style="fill:rgb(166,220,212);fill-rule:nonzero;"/></g></g><g transform="matrix(7.23835,0,0,7.23835,-925.276,-1136.32)"><g transform="matrix(1,0,0,1,295.516,264.256)"><path d="M0,80.439L-26.963,44.022C-28.094,42.353 -28.919,40.497 -29.398,38.539L-37.149,0L3.971,37.655L0,80.439Z" style="fill:rgb(119,185,229);fill-rule:nonzero;"/></g><g transform="matrix(1,0,0,1,258.367,271.088)"><path d="M0,-6.833L30.933,29.005C33.098,31.709 34.953,31.98 37.643,30.738L95.404,6.262C98.094,5.02 103.111,2.131 102.095,-0.068L67.33,-35.498C65.009,-38.813 60.565,-38.61 57.875,-37.368L3.031,-13.065C0.341,-11.823 -1.016,-9.032 0,-6.833" style="fill:rgb(39,123,193);fill-rule:nonzero;"/></g><g transform="matrix(1,0,0,1,295.516,269.509)"><path d="M0,75.186L-3.074,39.009C-3.493,35.94 -2.196,33.56 0.494,32.318L56.821,-1.502C59.508,-2.976 66.323,-0.914 66.172,6.496L68.709,43.131C69.084,45.859 68.368,48.122 65.678,49.364L6.71,76.919C4.02,78.162 1.016,77.385 0,75.186" style="fill:rgb(39,123,193);fill-rule:nonzero;"/></g><g transform="matrix(1,0,0,1,292.576,272.526)"><path d="M0,31.732C0,31.732 55.132,10.978 67.588,-0.31C67.588,-0.31 28.018,15.003 -3.879,32.042L0,31.732Z" style="fill:rgb(119,185,229);fill-rule:nonzero;"/></g><g transform="matrix(-0.937019,0.349279,0.349279,0.937019,281.21,264.317)"><path d="M1.754,-9.727C-1.676,-9.422 -4.458,-6.926 -4.458,-4.152C-4.459,-1.38 -1.677,0.622 1.754,0.316C5.184,0.011 7.966,-2.485 7.966,-5.259C7.967,-8.031 5.185,-10.033 1.754,-9.727" style="fill:rgb(13,73,114);fill-rule:nonzero;"/></g><g transform="matrix(-0.937002,0.349325,0.349325,0.937002,281.364,264.642)"><path d="M1.63,-9.034C-1.557,-8.75 -4.14,-6.432 -4.139,-3.857C-4.139,-1.281 -1.556,0.578 1.63,0.293C4.816,0.01 7.398,-2.309 7.399,-4.885C7.398,-7.46 4.815,-9.318 1.63,-9.034" style="fill:rgb(188,229,248);fill-rule:nonzero;"/></g><g transform="matrix(-0.937007,0.349311,0.349311,0.937007,293.168,277.285)"><path d="M1.754,-9.726C-1.677,-9.42 -4.459,-6.926 -4.459,-4.152C-4.459,-1.379 -1.677,0.622 1.754,0.316C5.184,0.011 7.966,-2.485 7.966,-5.259C7.966,-8.032 5.184,-10.032 1.754,-9.726" style="fill:rgb(13,73,114);fill-rule:nonzero;"/></g><g transform="matrix(-0.937002,0.349325,0.349325,0.937002,293.322,277.611)"><path d="M1.629,-9.034C-1.557,-8.75 -4.14,-6.432 -4.14,-3.856C-4.14,-1.281 -1.557,0.578 1.629,0.293C4.816,0.01 7.399,-2.309 7.398,-4.885C7.398,-7.46 4.816,-9.317 1.629,-9.034" style="fill:rgb(188,229,248);fill-rule:nonzero;"/></g><g transform="matrix(-0.936986,0.349366,0.349366,0.936986,305.093,289.882)"><path d="M1.754,-9.727C-1.678,-9.421 -4.459,-6.925 -4.459,-4.151C-4.458,-1.379 -1.677,0.621 1.754,0.317C5.185,0.011 7.966,-2.485 7.966,-5.259C7.966,-8.032 5.184,-10.033 1.754,-9.727" style="fill:rgb(13,73,114);fill-rule:nonzero;"/></g><g transform="matrix(-0.937002,0.349325,0.349325,0.937002,305.246,290.206)"><path d="M1.629,-9.033C-1.557,-8.749 -4.139,-6.431 -4.14,-3.855C-4.14,-1.28 -1.557,0.579 1.629,0.294C4.816,0.01 7.397,-2.308 7.398,-4.884C7.398,-7.459 4.815,-9.316 1.629,-9.033" style="fill:rgb(188,229,248);fill-rule:nonzero;"/></g><g transform="matrix(-0.937549,0.347853,0.347853,0.937549,311.238,312.318)"><path d="M1.672,-9.322C-1.743,-9.091 -4.512,-6.748 -4.513,-4.091C-4.512,-1.434 -1.743,0.532 1.672,0.3C5.089,0.069 7.859,-2.273 7.858,-4.931C7.858,-7.589 5.089,-9.554 1.672,-9.322" style="fill:rgb(13,73,114);fill-rule:nonzero;"/></g><g transform="matrix(-0.937579,0.347774,0.347774,0.937579,310.279,311.69)"><path d="M1.553,-8.658C-1.619,-8.442 -4.191,-6.268 -4.191,-3.8C-4.191,-1.333 -1.619,0.495 1.553,0.279C4.725,0.063 7.297,-2.111 7.297,-4.579C7.298,-7.046 4.725,-8.872 1.553,-8.658" style="fill:rgb(188,229,248);fill-rule:nonzero;"/></g><g transform="matrix(-0.973224,0.229857,0.229857,0.973224,285.607,307.312)"><path d="M1.011,-8.674C-0.881,-7.118 -2.416,-3.888 -2.416,-1.46C-2.416,0.968 -0.882,1.674 1.011,0.119C2.902,-1.438 4.437,-4.668 4.437,-7.096C4.437,-9.524 2.903,-10.23 1.011,-8.674" style="fill:rgb(39,123,193);fill-rule:nonzero;"/></g><g transform="matrix(-0.980105,0.19848,0.19848,0.980105,285.374,306.638)"><path d="M0.799,-7.971C-1.123,-6.445 -2.682,-3.405 -2.682,-1.182C-2.682,1.042 -1.123,1.606 0.799,0.08C2.721,-1.447 4.28,-4.487 4.28,-6.709C4.28,-8.933 2.722,-9.497 0.799,-7.971" style="fill:rgb(188,229,248);fill-rule:nonzero;"/></g><g transform="matrix(-0.977892,0.209111,0.209111,0.977892,287.836,327.079)"><path d="M0.803,-7.601C-1.015,-6.314 -2.489,-3.552 -2.489,-1.429C-2.489,0.693 -1.015,1.371 0.803,0.084C2.622,-1.203 4.095,-3.966 4.096,-6.087C4.096,-8.209 2.622,-8.887 0.803,-7.601" style="fill:rgb(39,123,193);fill-rule:nonzero;"/></g><g transform="matrix(-0.984675,0.174401,0.174401,0.984675,287.651,326.475)"><path d="M0.615,-6.995C-1.229,-5.745 -2.724,-3.155 -2.725,-1.209C-2.725,0.738 -1.23,1.303 0.615,0.052C2.46,-1.197 3.955,-3.787 3.955,-5.734C3.955,-7.68 2.461,-8.244 0.615,-6.995" style="fill:rgb(188,229,248);fill-rule:nonzero;"/></g><g transform="matrix(-0.973208,0.229927,0.229927,0.973208,272.27,307.888)"><path d="M0.765,-6.565C-0.667,-5.387 -1.827,-2.942 -1.827,-1.105C-1.828,0.731 -0.667,1.266 0.765,0.089C2.197,-1.09 3.357,-3.534 3.358,-5.371C3.358,-7.207 2.198,-7.742 0.765,-6.565" style="fill:rgb(39,123,193);fill-rule:nonzero;"/></g><g transform="matrix(-0.980117,0.19842,0.19842,0.980117,272.092,307.376)"><path d="M0.604,-6.03C-0.851,-4.875 -2.031,-2.576 -2.03,-0.893C-2.03,0.79 -0.851,1.216 0.604,0.063C2.058,-1.093 3.238,-3.394 3.239,-5.075C3.239,-6.758 2.058,-7.186 0.604,-6.03" style="fill:rgb(188,229,248);fill-rule:nonzero;"/></g><g transform="matrix(-0.965731,0.259545,0.259545,0.965731,268.777,285.615)"><path d="M1.042,-7.897C-0.435,-6.376 -1.632,-3.346 -1.631,-1.128C-1.632,1.09 -0.435,1.657 1.042,0.137C2.52,-1.383 3.716,-4.413 3.716,-6.632C3.716,-8.851 2.519,-9.416 1.042,-7.897" style="fill:rgb(39,123,193);fill-rule:nonzero;"/></g><g transform="matrix(-0.972529,0.23278,0.23278,0.972529,268.536,285.016)"><path d="M0.855,-7.24C-0.648,-5.735 -1.868,-2.87 -1.868,-0.842C-1.868,1.185 -0.649,1.607 0.855,0.102C2.358,-1.406 3.577,-4.27 3.577,-6.297C3.577,-8.324 2.358,-8.746 0.855,-7.24" style="fill:rgb(188,229,248);fill-rule:nonzero;"/></g><g transform="matrix(-0.937562,0.347819,0.347819,0.937562,353.677,317.08)"><path d="M1.673,-9.322C-1.743,-9.091 -4.512,-6.748 -4.513,-4.091C-4.512,-1.435 -1.743,0.532 1.673,0.301C5.089,0.069 7.859,-2.273 7.859,-4.93C7.858,-7.587 5.09,-9.553 1.673,-9.322" style="fill:rgb(13,73,114);fill-rule:nonzero;"/></g><g transform="matrix(-0.937565,0.34781,0.34781,0.937565,352.719,316.45)"><path d="M1.555,-8.656C-1.617,-8.441 -4.19,-6.267 -4.19,-3.798C-4.19,-1.331 -1.618,0.496 1.555,0.28C4.727,0.064 7.299,-2.11 7.299,-4.578C7.299,-7.045 4.727,-8.872 1.555,-8.656" style="fill:rgb(188,229,248);fill-rule:nonzero;"/></g><g transform="matrix(-0.937007,0.349311,0.349311,0.937007,316.574,248.711)"><path d="M1.754,-9.726C-1.677,-9.42 -4.459,-6.925 -4.459,-4.151C-4.458,-1.378 -1.677,0.622 1.754,0.316C5.184,0.011 7.966,-2.485 7.966,-5.259C7.966,-8.032 5.184,-10.032 1.754,-9.726" style="fill:rgb(13,73,114);fill-rule:nonzero;"/></g><g transform="matrix(-0.937002,0.349325,0.349325,0.937002,316.728,249.036)"><path d="M1.629,-9.033C-1.557,-8.749 -4.139,-6.431 -4.14,-3.855C-4.14,-1.28 -1.558,0.578 1.629,0.294C4.816,0.01 7.399,-2.308 7.398,-4.884C7.398,-7.459 4.815,-9.316 1.629,-9.033" style="fill:rgb(188,229,248);fill-rule:nonzero;"/></g><g transform="matrix(-0.937019,0.349279,0.349279,0.937019,328.533,261.68)"><path d="M1.754,-9.727C-1.676,-9.422 -4.458,-6.926 -4.458,-4.152C-4.459,-1.38 -1.677,0.622 1.754,0.316C5.184,0.011 7.967,-2.485 7.966,-5.259C7.967,-8.031 5.186,-10.032 1.754,-9.727" style="fill:rgb(13,73,114);fill-rule:nonzero;"/></g><g transform="matrix(-0.937002,0.349325,0.349325,0.937002,328.686,262.005)"><path d="M1.629,-9.034C-1.557,-8.75 -4.14,-6.432 -4.14,-3.856C-4.14,-1.281 -1.557,0.578 1.629,0.293C4.816,0.01 7.397,-2.309 7.398,-4.885C7.398,-7.46 4.815,-9.316 1.629,-9.034" style="fill:rgb(188,229,248);fill-rule:nonzero;"/></g><g transform="matrix(-0.937007,0.349311,0.349311,0.937007,340.458,274.276)"><path d="M1.754,-9.726C-1.676,-9.421 -4.458,-6.925 -4.458,-4.151C-4.458,-1.378 -1.677,0.622 1.754,0.316C5.184,0.011 7.966,-2.484 7.966,-5.258C7.967,-8.031 5.185,-10.032 1.754,-9.726" style="fill:rgb(13,73,114);fill-rule:nonzero;"/></g><g transform="matrix(-0.937002,0.349325,0.349325,0.937002,340.612,274.601)"><path d="M1.63,-9.033C-1.557,-8.749 -4.139,-6.431 -4.139,-3.856C-4.139,-1.28 -1.556,0.579 1.63,0.294C4.816,0.01 7.398,-2.308 7.399,-4.884C7.398,-7.459 4.816,-9.317 1.63,-9.033" style="fill:rgb(188,229,248);fill-rule:nonzero;"/></g></g><g transform="matrix(6.72131,2.08775,-2.16139,6.95842,-199.012,-50.4562)"><g transform="matrix(1,0,0,1,139.131,169.049)"><path d="M0,-13.923L44.894,-21.817C46.939,-22.153 49.029,-22.123 51.063,-21.726L91.112,-13.923L38.229,8.23L0,-13.923Z" style="fill:rgb(234,72,124);fill-rule:nonzero;"/></g><g transform="matrix(1,0,0,1,230.243,237.815)"><path d="M0,-82.689L-46.793,-69.263C-49.285,-69.263 -51.305,-66.793 -51.305,-63.746L-53.659,-8.976C-53.659,-5.929 -54.803,-0.092 -52.312,-0.092L0,-14.431C2.492,-14.431 4.511,-16.901 4.511,-19.948L4.511,-77.172C4.511,-80.219 2.492,-82.689 0,-82.689" style="fill:rgb(236,97,152);fill-rule:nonzero;"/></g><g transform="matrix(1,0,0,1,139.131,240.146)"><path d="M0,-85.02L35.296,-71.594C37.787,-71.594 39.807,-69.124 39.807,-66.077L39.865,-7.135C40.084,-3.992 40.405,-0.482 35.296,-3.336L0,-16.762C-2.492,-16.762 -4.511,-19.232 -4.511,-22.279L-4.511,-79.503C-4.511,-82.55 -2.492,-85.02 0,-85.02" style="fill:rgb(196,64,107);fill-rule:nonzero;"/></g><g transform="matrix(1,0,0,1,178.149,232.984)"><path d="M0,-63.169C0,-63.169 -1.288,-6.114 0.689,3.755C0.689,3.755 3.538,-29.799 1.384,-66.924L0,-63.169Z" style="fill:rgb(234,72,124);fill-rule:nonzero;"/></g><g transform="matrix(0.166527,-0.986037,-0.986037,-0.166527,145.507,169.442)"><path d="M-4.696,-3.969C-7.862,-4.504 -10.428,-2.804 -10.428,-0.176C-10.428,2.455 -7.862,5.02 -4.696,5.555C-1.529,6.09 1.037,4.391 1.037,1.761C1.037,-0.868 -1.529,-3.434 -4.696,-3.969" style="fill:rgb(193,23,10);fill-rule:nonzero;"/></g><g transform="matrix(0.166544,-0.986034,-0.986034,-0.166544,145.57,170.458)"><path d="M-4.36,-3.686C-7.301,-4.182 -9.685,-2.605 -9.685,-0.163C-9.684,2.28 -7.301,4.662 -4.36,5.159C-1.42,5.655 0.964,4.078 0.964,1.635C0.963,-0.807 -1.42,-3.189 -4.36,-3.686" style="fill:rgb(246,178,205);fill-rule:nonzero;"/></g><g transform="matrix(0.166544,-0.986034,-0.986034,-0.166544,156.577,193.621)"><path d="M-4.695,-3.968C-7.861,-4.503 -10.428,-2.805 -10.428,-0.175C-10.428,2.454 -7.861,5.02 -4.695,5.554C-1.529,6.089 1.038,4.391 1.038,1.761C1.038,-0.868 -1.529,-3.434 -4.695,-3.968" style="fill:rgb(193,23,10);fill-rule:nonzero;"/></g><g transform="matrix(0.166544,-0.986034,-0.986034,-0.166544,156.639,194.636)"><path d="M-4.36,-3.686C-7.301,-4.182 -9.685,-2.605 -9.685,-0.163C-9.684,2.28 -7.301,4.662 -4.36,5.159C-1.419,5.656 0.964,4.078 0.964,1.635C0.963,-0.807 -1.42,-3.189 -4.36,-3.686" style="fill:rgb(246,178,205);fill-rule:nonzero;"/></g><g transform="matrix(0.166527,-0.986037,-0.986037,-0.166527,169.393,216.341)"><path d="M-4.696,-3.969C-7.862,-4.504 -10.428,-2.805 -10.428,-0.176C-10.428,2.455 -7.862,5.02 -4.696,5.555C-1.529,6.09 1.037,4.391 1.037,1.761C1.037,-0.869 -1.529,-3.434 -4.696,-3.969" style="fill:rgb(193,23,10);fill-rule:nonzero;"/></g><g transform="matrix(0.166544,-0.986034,-0.986034,-0.166544,169.456,217.357)"><path d="M-4.36,-3.686C-7.3,-4.183 -9.684,-2.606 -9.684,-0.164C-9.684,2.279 -7.3,4.662 -4.36,5.158C-1.42,5.655 0.963,4.078 0.964,1.635C0.964,-0.807 -1.42,-3.19 -4.36,-3.686" style="fill:rgb(246,178,205);fill-rule:nonzero;"/></g><g transform="matrix(0.162095,-0.986775,-0.986775,-0.162095,198.466,215.455)"><path d="M-5.175,-4.393C-8.666,-4.376 -11.496,-2.014 -11.497,0.882C-11.496,3.778 -8.666,6.112 -5.175,6.094C-1.683,6.076 1.147,3.715 1.147,0.818C1.147,-2.078 -1.684,-4.411 -5.175,-4.393" style="fill:rgb(193,23,10);fill-rule:nonzero;"/></g><g transform="matrix(0.162134,-0.986769,-0.986769,-0.162134,198.417,216.554)"><path d="M-4.805,-4.08C-8.048,-4.063 -10.676,-1.871 -10.676,0.819C-10.676,3.509 -8.048,5.675 -4.805,5.659C-1.562,5.642 1.066,3.45 1.066,0.76C1.066,-1.93 -1.562,-4.096 -4.805,-4.08" style="fill:rgb(246,178,205);fill-rule:nonzero;"/></g><g transform="matrix(0.162188,-0.98676,-0.98676,-0.162188,221.967,209.8)"><path d="M-5.175,-4.393C-8.665,-4.376 -11.496,-2.014 -11.497,0.882C-11.496,3.777 -8.666,6.111 -5.175,6.094C-1.683,6.076 1.147,3.715 1.147,0.819C1.148,-2.077 -1.684,-4.41 -5.175,-4.393" style="fill:rgb(193,23,10);fill-rule:nonzero;"/></g><g transform="matrix(0.162134,-0.986769,-0.986769,-0.162134,221.919,210.9)"><path d="M-4.805,-4.08C-8.048,-4.063 -10.676,-1.871 -10.676,0.819C-10.675,3.509 -8.048,5.675 -4.805,5.659C-1.563,5.643 1.066,3.45 1.066,0.76C1.066,-1.93 -1.562,-4.096 -4.805,-4.08" style="fill:rgb(246,178,205);fill-rule:nonzero;"/></g><g transform="matrix(0.162188,-0.98676,-0.98676,-0.162188,197.867,175.311)"><path d="M-5.175,-4.393C-8.665,-4.376 -11.496,-2.014 -11.497,0.881C-11.496,3.777 -8.666,6.111 -5.175,6.094C-1.683,6.076 1.147,3.715 1.147,0.819C1.148,-2.077 -1.684,-4.41 -5.175,-4.393" style="fill:rgb(193,23,10);fill-rule:nonzero;"/></g><g transform="matrix(0.162118,-0.986771,-0.986771,-0.162118,197.819,176.411)"><path d="M-4.805,-4.08C-8.048,-4.063 -10.676,-1.87 -10.676,0.82C-10.675,3.509 -8.047,5.675 -4.805,5.66C-1.563,5.643 1.066,3.45 1.066,0.76C1.066,-1.93 -1.563,-4.096 -4.805,-4.08" style="fill:rgb(246,178,205);fill-rule:nonzero;"/></g><g transform="matrix(0.162095,-0.986775,-0.986775,-0.162095,197.867,195.284)"><path d="M-5.175,-4.393C-8.666,-4.376 -11.496,-2.014 -11.497,0.882C-11.496,3.778 -8.666,6.112 -5.175,6.094C-1.683,6.076 1.147,3.715 1.147,0.818C1.147,-2.078 -1.684,-4.411 -5.175,-4.393" style="fill:rgb(193,23,10);fill-rule:nonzero;"/></g><g transform="matrix(0.162118,-0.986771,-0.986771,-0.162118,197.819,196.383)"><path d="M-4.805,-4.08C-8.048,-4.063 -10.676,-1.87 -10.676,0.82C-10.676,3.509 -8.047,5.675 -4.805,5.66C-1.563,5.643 1.066,3.45 1.066,0.76C1.066,-1.93 -1.563,-4.096 -4.805,-4.08" style="fill:rgb(246,178,205);fill-rule:nonzero;"/></g><g transform="matrix(0.162095,-0.986775,-0.986775,-0.162095,221.368,169.401)"><path d="M-5.175,-4.394C-8.665,-4.376 -11.497,-2.014 -11.496,0.881C-11.496,3.778 -8.665,6.111 -5.175,6.094C-1.682,6.076 1.148,3.714 1.147,0.818C1.147,-2.079 -1.684,-4.411 -5.175,-4.394" style="fill:rgb(193,23,10);fill-rule:nonzero;"/></g><g transform="matrix(0.162134,-0.986769,-0.986769,-0.162134,221.32,170.5)"><path d="M-4.805,-4.08C-8.048,-4.063 -10.676,-1.871 -10.676,0.819C-10.676,3.509 -8.048,5.675 -4.805,5.659C-1.562,5.642 1.066,3.45 1.066,0.76C1.066,-1.93 -1.562,-4.096 -4.805,-4.08" style="fill:rgb(246,178,205);fill-rule:nonzero;"/></g><g transform="matrix(0.162188,-0.98676,-0.98676,-0.162188,221.369,190.91)"><path d="M-5.175,-4.393C-8.665,-4.376 -11.496,-2.014 -11.497,0.881C-11.496,3.777 -8.666,6.111 -5.175,6.094C-1.683,6.076 1.147,3.715 1.147,0.819C1.148,-2.077 -1.684,-4.41 -5.175,-4.393" style="fill:rgb(193,23,10);fill-rule:nonzero;"/></g><g transform="matrix(0.162134,-0.986769,-0.986769,-0.162134,221.32,192.009)"><path d="M-4.805,-4.08C-8.048,-4.063 -10.676,-1.871 -10.676,0.819C-10.675,3.509 -8.048,5.675 -4.805,5.659C-1.562,5.642 1.066,3.45 1.066,0.76C1.066,-1.93 -1.562,-4.096 -4.805,-4.08" style="fill:rgb(246,178,205);fill-rule:nonzero;"/></g><g transform="matrix(0.0456809,-0.998956,-0.998956,-0.0456809,158.757,151.162)"><path d="M-5.391,-5.15C-6.375,-5.486 -7.172,-3.343 -7.172,-0.363C-7.172,2.617 -6.374,5.305 -5.391,5.643C-4.406,5.979 -3.609,3.836 -3.609,0.856C-3.609,-2.124 -4.406,-4.812 -5.391,-5.15" style="fill:rgb(193,23,10);fill-rule:nonzero;"/></g><g transform="matrix(0.0456973,-0.998955,-0.998955,-0.0456973,158.983,151.762)"><path d="M-5.005,-4.782C-5.919,-5.095 -6.66,-3.105 -6.66,-0.337C-6.66,2.431 -5.919,4.927 -5.005,5.24C-4.091,5.552 -3.351,3.562 -3.35,0.795C-3.351,-1.973 -4.091,-4.469 -5.005,-4.782" style="fill:rgb(246,178,205);fill-rule:nonzero;"/></g><g transform="matrix(0.0456809,-0.998956,-0.998956,-0.0456809,185.291,146.056)"><path d="M-5.39,-5.15C-6.374,-5.487 -7.172,-3.343 -7.172,-0.363C-7.171,2.617 -6.373,5.305 -5.39,5.643C-4.406,5.979 -3.608,3.836 -3.608,0.856C-3.608,-2.124 -4.406,-4.812 -5.39,-5.15" style="fill:rgb(193,23,10);fill-rule:nonzero;"/></g><g transform="matrix(0.0456973,-0.998955,-0.998955,-0.0456973,185.517,146.655)"><path d="M-5.006,-4.781C-5.92,-5.094 -6.66,-3.104 -6.661,-0.336C-6.66,2.431 -5.92,4.928 -5.006,5.241C-4.092,5.553 -3.351,3.563 -3.351,0.796C-3.351,-1.972 -4.092,-4.468 -5.006,-4.781" style="fill:rgb(246,178,205);fill-rule:nonzero;"/></g><g transform="matrix(0.0456809,-0.998956,-0.998956,-0.0456809,181.801,157.846)"><path d="M-5.391,-5.15C-6.375,-5.486 -7.172,-3.343 -7.172,-0.363C-7.172,2.617 -6.374,5.305 -5.391,5.643C-4.406,5.979 -3.609,3.836 -3.609,0.856C-3.609,-2.124 -4.406,-4.812 -5.391,-5.15" style="fill:rgb(193,23,10);fill-rule:nonzero;"/></g><g transform="matrix(0.0456973,-0.998955,-0.998955,-0.0456973,182.027,158.447)"><path d="M-5.005,-4.782C-5.919,-5.095 -6.66,-3.105 -6.66,-0.337C-6.66,2.431 -5.919,4.927 -5.005,5.24C-4.091,5.552 -3.351,3.562 -3.35,0.795C-3.351,-1.973 -4.091,-4.469 -5.005,-4.782" style="fill:rgb(246,178,205);fill-rule:nonzero;"/></g><g transform="matrix(0.0456809,-0.998956,-0.998956,-0.0456809,207.624,150.381)"><path d="M-5.39,-5.15C-6.374,-5.487 -7.172,-3.343 -7.172,-0.363C-7.171,2.617 -6.373,5.305 -5.39,5.643C-4.405,5.979 -3.608,3.836 -3.608,0.856C-3.608,-2.124 -4.405,-4.812 -5.39,-5.15" style="fill:rgb(193,23,10);fill-rule:nonzero;"/></g><g transform="matrix(0.0456973,-0.998955,-0.998955,-0.0456973,207.851,150.98)"><path d="M-5.006,-4.781C-5.92,-5.094 -6.66,-3.104 -6.661,-0.336C-6.66,2.432 -5.92,4.928 -5.006,5.241C-4.092,5.553 -3.351,3.563 -3.351,0.796C-3.351,-1.972 -4.092,-4.468 -5.006,-4.781" style="fill:rgb(246,178,205);fill-rule:nonzero;"/></g></g><g transform="matrix(1.97603,-2.79606,2.89469,2.04574,453.743,1876.94)"><g transform="matrix(1,0,0,1,139.131,169.049)"><path d="M0,-13.923L44.894,-21.817C46.939,-22.153 49.029,-22.123 51.063,-21.726L91.112,-13.923L38.229,8.23L0,-13.923Z" style="fill:rgb(39,123,193);fill-rule:nonzero;"/></g><g transform="matrix(1,0,0,1,230.243,237.815)"><path d="M0,-82.689L-46.793,-69.263C-49.285,-69.263 -51.305,-66.793 -51.305,-63.746L-53.659,-8.976C-53.659,-5.929 -54.803,-0.092 -52.312,-0.092L0,-14.431C2.492,-14.431 4.511,-16.901 4.511,-19.948L4.511,-77.172C4.511,-80.219 2.492,-82.689 0,-82.689" style="fill:rgb(119,185,229);fill-rule:nonzero;"/></g><g transform="matrix(1,0,0,1,139.131,240.146)"><path d="M0,-85.02L35.296,-71.594C37.787,-71.594 39.807,-69.124 39.807,-66.077L39.865,-7.135C40.084,-3.992 40.405,-0.482 35.296,-3.336L0,-16.762C-2.492,-16.762 -4.511,-19.232 -4.511,-22.279L-4.511,-79.503C-4.511,-82.55 -2.492,-85.02 0,-85.02" style="fill:rgb(119,185,229);fill-rule:nonzero;"/></g><g transform="matrix(1,0,0,1,178.149,232.984)"><path d="M0,-63.169C0,-63.169 -1.288,-6.114 0.689,3.755C0.689,3.755 3.538,-29.799 1.384,-66.924L0,-63.169Z" style="fill:rgb(39,123,193);fill-rule:nonzero;"/></g><g transform="matrix(0.166527,-0.986037,-0.986037,-0.166527,145.507,169.442)"><path d="M-4.696,-3.969C-7.862,-4.504 -10.428,-2.804 -10.428,-0.176C-10.428,2.455 -7.862,5.02 -4.696,5.555C-1.529,6.09 1.037,4.391 1.037,1.761C1.037,-0.868 -1.529,-3.434 -4.696,-3.969" style="fill:rgb(28,89,140);fill-rule:nonzero;"/></g><g transform="matrix(0.166544,-0.986034,-0.986034,-0.166544,145.57,170.458)"><path d="M-4.36,-3.686C-7.301,-4.182 -9.685,-2.605 -9.685,-0.163C-9.684,2.28 -7.301,4.662 -4.36,5.159C-1.42,5.655 0.964,4.078 0.964,1.635C0.963,-0.807 -1.42,-3.189 -4.36,-3.686" style="fill:rgb(177,215,240);fill-rule:nonzero;"/></g><g transform="matrix(0.166544,-0.986034,-0.986034,-0.166544,156.577,193.621)"><path d="M-4.695,-3.968C-7.861,-4.503 -10.428,-2.805 -10.428,-0.175C-10.428,2.454 -7.861,5.02 -4.695,5.554C-1.529,6.089 1.038,4.391 1.038,1.761C1.038,-0.868 -1.529,-3.434 -4.695,-3.968" style="fill:rgb(28,89,140);fill-rule:nonzero;"/></g><g transform="matrix(0.166544,-0.986034,-0.986034,-0.166544,156.639,194.636)"><path d="M-4.36,-3.686C-7.301,-4.182 -9.685,-2.605 -9.685,-0.163C-9.684,2.28 -7.301,4.662 -4.36,5.159C-1.419,5.656 0.964,4.078 0.964,1.635C0.963,-0.807 -1.42,-3.189 -4.36,-3.686" style="fill:rgb(177,215,240);fill-rule:nonzero;"/></g><g transform="matrix(0.166527,-0.986037,-0.986037,-0.166527,169.393,216.341)"><path d="M-4.696,-3.969C-7.862,-4.504 -10.428,-2.805 -10.428,-0.176C-10.428,2.455 -7.862,5.02 -4.696,5.555C-1.529,6.09 1.037,4.391 1.037,1.761C1.037,-0.869 -1.529,-3.434 -4.696,-3.969" style="fill:rgb(28,89,140);fill-rule:nonzero;"/></g><g transform="matrix(0.166544,-0.986034,-0.986034,-0.166544,169.456,217.357)"><path d="M-4.36,-3.686C-7.3,-4.183 -9.684,-2.606 -9.684,-0.164C-9.684,2.279 -7.3,4.662 -4.36,5.158C-1.42,5.655 0.963,4.078 0.964,1.635C0.964,-0.807 -1.42,-3.19 -4.36,-3.686" style="fill:rgb(177,215,240);fill-rule:nonzero;"/></g><g transform="matrix(0.162095,-0.986775,-0.986775,-0.162095,198.466,215.455)"><path d="M-5.175,-4.393C-8.666,-4.376 -11.496,-2.014 -11.497,0.882C-11.496,3.778 -8.666,6.112 -5.175,6.094C-1.683,6.076 1.147,3.715 1.147,0.818C1.147,-2.078 -1.684,-4.411 -5.175,-4.393" style="fill:rgb(28,89,140);fill-rule:nonzero;"/></g><g transform="matrix(0.162134,-0.986769,-0.986769,-0.162134,198.417,216.554)"><path d="M-4.805,-4.08C-8.048,-4.063 -10.676,-1.871 -10.676,0.819C-10.676,3.509 -8.048,5.675 -4.805,5.659C-1.562,5.642 1.066,3.45 1.066,0.76C1.066,-1.93 -1.562,-4.096 -4.805,-4.08" style="fill:rgb(177,215,240);fill-rule:nonzero;"/></g><g transform="matrix(0.162188,-0.98676,-0.98676,-0.162188,221.967,209.8)"><path d="M-5.175,-4.393C-8.665,-4.376 -11.496,-2.014 -11.497,0.882C-11.496,3.777 -8.666,6.111 -5.175,6.094C-1.683,6.076 1.147,3.715 1.147,0.819C1.148,-2.077 -1.684,-4.41 -5.175,-4.393" style="fill:rgb(28,89,140);fill-rule:nonzero;"/></g><g transform="matrix(0.162134,-0.986769,-0.986769,-0.162134,221.919,210.9)"><path d="M-4.805,-4.08C-8.048,-4.063 -10.676,-1.871 -10.676,0.819C-10.675,3.509 -8.048,5.675 -4.805,5.659C-1.563,5.643 1.066,3.45 1.066,0.76C1.066,-1.93 -1.562,-4.096 -4.805,-4.08" style="fill:rgb(177,215,240);fill-rule:nonzero;"/></g><g transform="matrix(0.162188,-0.98676,-0.98676,-0.162188,197.867,175.311)"><path d="M-5.175,-4.393C-8.665,-4.376 -11.496,-2.014 -11.497,0.881C-11.496,3.777 -8.666,6.111 -5.175,6.094C-1.683,6.076 1.147,3.715 1.147,0.819C1.148,-2.077 -1.684,-4.41 -5.175,-4.393" style="fill:rgb(28,89,140);fill-rule:nonzero;"/></g><g transform="matrix(0.162118,-0.986771,-0.986771,-0.162118,197.819,176.411)"><path d="M-4.805,-4.08C-8.048,-4.063 -10.676,-1.87 -10.676,0.82C-10.675,3.509 -8.047,5.675 -4.805,5.66C-1.563,5.643 1.066,3.45 1.066,0.76C1.066,-1.93 -1.563,-4.096 -4.805,-4.08" style="fill:rgb(177,215,240);fill-rule:nonzero;"/></g><g transform="matrix(0.162095,-0.986775,-0.986775,-0.162095,197.867,195.284)"><path d="M-5.175,-4.393C-8.666,-4.376 -11.496,-2.014 -11.497,0.882C-11.496,3.778 -8.666,6.112 -5.175,6.094C-1.683,6.076 1.147,3.715 1.147,0.818C1.147,-2.078 -1.684,-4.411 -5.175,-4.393" style="fill:rgb(28,89,140);fill-rule:nonzero;"/></g><g transform="matrix(0.162118,-0.986771,-0.986771,-0.162118,197.819,196.383)"><path d="M-4.805,-4.08C-8.048,-4.063 -10.676,-1.87 -10.676,0.82C-10.676,3.509 -8.047,5.675 -4.805,5.66C-1.563,5.643 1.066,3.45 1.066,0.76C1.066,-1.93 -1.563,-4.096 -4.805,-4.08" style="fill:rgb(177,215,240);fill-rule:nonzero;"/></g><g transform="matrix(0.162095,-0.986775,-0.986775,-0.162095,221.368,169.401)"><path d="M-5.175,-4.394C-8.665,-4.376 -11.497,-2.014 -11.496,0.881C-11.496,3.778 -8.665,6.111 -5.175,6.094C-1.682,6.076 1.148,3.714 1.147,0.818C1.147,-2.079 -1.684,-4.411 -5.175,-4.394" style="fill:rgb(28,89,140);fill-rule:nonzero;"/></g><g transform="matrix(0.162134,-0.986769,-0.986769,-0.162134,221.32,170.5)"><path d="M-4.805,-4.08C-8.048,-4.063 -10.676,-1.871 -10.676,0.819C-10.676,3.509 -8.048,5.675 -4.805,5.659C-1.562,5.642 1.066,3.45 1.066,0.76C1.066,-1.93 -1.562,-4.096 -4.805,-4.08" style="fill:rgb(177,215,240);fill-rule:nonzero;"/></g><g transform="matrix(0.162188,-0.98676,-0.98676,-0.162188,221.369,190.91)"><path d="M-5.175,-4.393C-8.665,-4.376 -11.496,-2.014 -11.497,0.881C-11.496,3.777 -8.666,6.111 -5.175,6.094C-1.683,6.076 1.147,3.715 1.147,0.819C1.148,-2.077 -1.684,-4.41 -5.175,-4.393" style="fill:rgb(28,89,140);fill-rule:nonzero;"/></g><g transform="matrix(0.162134,-0.986769,-0.986769,-0.162134,221.32,192.009)"><path d="M-4.805,-4.08C-8.048,-4.063 -10.676,-1.871 -10.676,0.819C-10.675,3.509 -8.048,5.675 -4.805,5.659C-1.562,5.642 1.066,3.45 1.066,0.76C1.066,-1.93 -1.562,-4.096 -4.805,-4.08" style="fill:rgb(177,215,240);fill-rule:nonzero;"/></g><g transform="matrix(0.0456809,-0.998956,-0.998956,-0.0456809,158.757,151.162)"><path d="M-5.391,-5.15C-6.375,-5.486 -7.172,-3.343 -7.172,-0.363C-7.172,2.617 -6.374,5.305 -5.391,5.643C-4.406,5.979 -3.609,3.836 -3.609,0.856C-3.609,-2.124 -4.406,-4.812 -5.391,-5.15" style="fill:rgb(28,89,140);fill-rule:nonzero;"/></g><g transform="matrix(0.0456973,-0.998955,-0.998955,-0.0456973,158.983,151.762)"><path d="M-5.005,-4.782C-5.919,-5.095 -6.66,-3.105 -6.66,-0.337C-6.66,2.431 -5.919,4.927 -5.005,5.24C-4.091,5.552 -3.351,3.562 -3.35,0.795C-3.351,-1.973 -4.091,-4.469 -5.005,-4.782" style="fill:rgb(177,215,240);fill-rule:nonzero;"/></g><g transform="matrix(0.0456809,-0.998956,-0.998956,-0.0456809,185.291,146.056)"><path d="M-5.39,-5.15C-6.374,-5.487 -7.172,-3.343 -7.172,-0.363C-7.171,2.617 -6.373,5.305 -5.39,5.643C-4.406,5.979 -3.608,3.836 -3.608,0.856C-3.608,-2.124 -4.406,-4.812 -5.39,-5.15" style="fill:rgb(28,89,140);fill-rule:nonzero;"/></g><g transform="matrix(0.0456973,-0.998955,-0.998955,-0.0456973,185.517,146.655)"><path d="M-5.006,-4.781C-5.92,-5.094 -6.66,-3.104 -6.661,-0.336C-6.66,2.431 -5.92,4.928 -5.006,5.241C-4.092,5.553 -3.351,3.563 -3.351,0.796C-3.351,-1.972 -4.092,-4.468 -5.006,-4.781" style="fill:rgb(177,215,240);fill-rule:nonzero;"/></g><g transform="matrix(0.0456809,-0.998956,-0.998956,-0.0456809,181.801,157.846)"><path d="M-5.391,-5.15C-6.375,-5.486 -7.172,-3.343 -7.172,-0.363C-7.172,2.617 -6.374,5.305 -5.391,5.643C-4.406,5.979 -3.609,3.836 -3.609,0.856C-3.609,-2.124 -4.406,-4.812 -5.391,-5.15" style="fill:rgb(28,89,140);fill-rule:nonzero;"/></g><g transform="matrix(0.0456973,-0.998955,-0.998955,-0.0456973,182.027,158.447)"><path d="M-5.005,-4.782C-5.919,-5.095 -6.66,-3.105 -6.66,-0.337C-6.66,2.431 -5.919,4.927 -5.005,5.24C-4.091,5.552 -3.351,3.562 -3.35,0.795C-3.351,-1.973 -4.091,-4.469 -5.005,-4.782" style="fill:rgb(177,215,240);fill-rule:nonzero;"/></g><g transform="matrix(0.0456809,-0.998956,-0.998956,-0.0456809,207.624,150.381)"><path d="M-5.39,-5.15C-6.374,-5.487 -7.172,-3.343 -7.172,-0.363C-7.171,2.617 -6.373,5.305 -5.39,5.643C-4.405,5.979 -3.608,3.836 -3.608,0.856C-3.608,-2.124 -4.405,-4.812 -5.39,-5.15" style="fill:rgb(28,89,140);fill-rule:nonzero;"/></g><g transform="matrix(0.0456973,-0.998955,-0.998955,-0.0456973,207.851,150.98)"><path d="M-5.006,-4.781C-5.92,-5.094 -6.66,-3.104 -6.661,-0.336C-6.66,2.432 -5.92,4.928 -5.006,5.241C-4.092,5.553 -3.351,3.563 -3.351,0.796C-3.351,-1.972 -4.092,-4.468 -5.006,-4.781" style="fill:rgb(177,215,240);fill-rule:nonzero;"/></g></g><g transform="matrix(-1.33124,1.05684,-1.09412,-1.3782,2411.79,1195.5)"><g transform="matrix(1,0,0,1,139.131,169.049)"><path d="M0,-13.923L44.894,-21.817C46.939,-22.153 49.029,-22.123 51.063,-21.726L91.112,-13.923L38.229,8.23L0,-13.923Z" style="fill:rgb(39,123,193);fill-rule:nonzero;"/></g><g transform="matrix(1,0,0,1,230.243,237.815)"><path d="M0,-82.689L-46.793,-69.263C-49.285,-69.263 -51.305,-66.793 -51.305,-63.746L-53.659,-8.976C-53.659,-5.929 -54.803,-0.092 -52.312,-0.092L0,-14.431C2.492,-14.431 4.511,-16.901 4.511,-19.948L4.511,-77.172C4.511,-80.219 2.492,-82.689 0,-82.689" style="fill:rgb(119,185,229);fill-rule:nonzero;"/></g><g transform="matrix(1,0,0,1,139.131,240.146)"><path d="M0,-85.02L35.296,-71.594C37.787,-71.594 39.807,-69.124 39.807,-66.077L39.865,-7.135C40.084,-3.992 40.405,-0.482 35.296,-3.336L0,-16.762C-2.492,-16.762 -4.511,-19.232 -4.511,-22.279L-4.511,-79.503C-4.511,-82.55 -2.492,-85.02 0,-85.02" style="fill:rgb(119,185,229);fill-rule:nonzero;"/></g><g transform="matrix(1,0,0,1,178.149,232.984)"><path d="M0,-63.169C0,-63.169 -1.288,-6.114 0.689,3.755C0.689,3.755 3.538,-29.799 1.384,-66.924L0,-63.169Z" style="fill:rgb(39,123,193);fill-rule:nonzero;"/></g><g transform="matrix(0.166527,-0.986037,-0.986037,-0.166527,145.507,169.442)"><path d="M-4.696,-3.969C-7.862,-4.504 -10.428,-2.804 -10.428,-0.176C-10.428,2.455 -7.862,5.02 -4.696,5.555C-1.529,6.09 1.037,4.391 1.037,1.761C1.037,-0.868 -1.529,-3.434 -4.696,-3.969" style="fill:rgb(28,89,140);fill-rule:nonzero;"/></g><g transform="matrix(0.166544,-0.986034,-0.986034,-0.166544,145.57,170.458)"><path d="M-4.36,-3.686C-7.301,-4.182 -9.685,-2.605 -9.685,-0.163C-9.684,2.28 -7.301,4.662 -4.36,5.159C-1.42,5.655 0.964,4.078 0.964,1.635C0.963,-0.807 -1.42,-3.189 -4.36,-3.686" style="fill:rgb(177,215,240);fill-rule:nonzero;"/></g><g transform="matrix(0.166544,-0.986034,-0.986034,-0.166544,156.577,193.621)"><path d="M-4.695,-3.968C-7.861,-4.503 -10.428,-2.805 -10.428,-0.175C-10.428,2.454 -7.861,5.02 -4.695,5.554C-1.529,6.089 1.038,4.391 1.038,1.761C1.038,-0.868 -1.529,-3.434 -4.695,-3.968" style="fill:rgb(28,89,140);fill-rule:nonzero;"/></g><g transform="matrix(0.166544,-0.986034,-0.986034,-0.166544,156.639,194.636)"><path d="M-4.36,-3.686C-7.301,-4.182 -9.685,-2.605 -9.685,-0.163C-9.684,2.28 -7.301,4.662 -4.36,5.159C-1.419,5.656 0.964,4.078 0.964,1.635C0.963,-0.807 -1.42,-3.189 -4.36,-3.686" style="fill:rgb(177,215,240);fill-rule:nonzero;"/></g><g transform="matrix(0.166527,-0.986037,-0.986037,-0.166527,169.393,216.341)"><path d="M-4.696,-3.969C-7.862,-4.504 -10.428,-2.805 -10.428,-0.176C-10.428,2.455 -7.862,5.02 -4.696,5.555C-1.529,6.09 1.037,4.391 1.037,1.761C1.037,-0.869 -1.529,-3.434 -4.696,-3.969" style="fill:rgb(28,89,140);fill-rule:nonzero;"/></g><g transform="matrix(0.166544,-0.986034,-0.986034,-0.166544,169.456,217.357)"><path d="M-4.36,-3.686C-7.3,-4.183 -9.684,-2.606 -9.684,-0.164C-9.684,2.279 -7.3,4.662 -4.36,5.158C-1.42,5.655 0.963,4.078 0.964,1.635C0.964,-0.807 -1.42,-3.19 -4.36,-3.686" style="fill:rgb(177,215,240);fill-rule:nonzero;"/></g><g transform="matrix(0.162095,-0.986775,-0.986775,-0.162095,198.466,215.455)"><path d="M-5.175,-4.393C-8.666,-4.376 -11.496,-2.014 -11.497,0.882C-11.496,3.778 -8.666,6.112 -5.175,6.094C-1.683,6.076 1.147,3.715 1.147,0.818C1.147,-2.078 -1.684,-4.411 -5.175,-4.393" style="fill:rgb(28,89,140);fill-rule:nonzero;"/></g><g transform="matrix(0.162134,-0.986769,-0.986769,-0.162134,198.417,216.554)"><path d="M-4.805,-4.08C-8.048,-4.063 -10.676,-1.871 -10.676,0.819C-10.676,3.509 -8.048,5.675 -4.805,5.659C-1.562,5.642 1.066,3.45 1.066,0.76C1.066,-1.93 -1.562,-4.096 -4.805,-4.08" style="fill:rgb(177,215,240);fill-rule:nonzero;"/></g><g transform="matrix(0.162188,-0.98676,-0.98676,-0.162188,221.967,209.8)"><path d="M-5.175,-4.393C-8.665,-4.376 -11.496,-2.014 -11.497,0.882C-11.496,3.777 -8.666,6.111 -5.175,6.094C-1.683,6.076 1.147,3.715 1.147,0.819C1.148,-2.077 -1.684,-4.41 -5.175,-4.393" style="fill:rgb(28,89,140);fill-rule:nonzero;"/></g><g transform="matrix(0.162134,-0.986769,-0.986769,-0.162134,221.919,210.9)"><path d="M-4.805,-4.08C-8.048,-4.063 -10.676,-1.871 -10.676,0.819C-10.675,3.509 -8.048,5.675 -4.805,5.659C-1.563,5.643 1.066,3.45 1.066,0.76C1.066,-1.93 -1.562,-4.096 -4.805,-4.08" style="fill:rgb(177,215,240);fill-rule:nonzero;"/></g><g transform="matrix(0.162188,-0.98676,-0.98676,-0.162188,197.867,175.311)"><path d="M-5.175,-4.393C-8.665,-4.376 -11.496,-2.014 -11.497,0.881C-11.496,3.777 -8.666,6.111 -5.175,6.094C-1.683,6.076 1.147,3.715 1.147,0.819C1.148,-2.077 -1.684,-4.41 -5.175,-4.393" style="fill:rgb(28,89,140);fill-rule:nonzero;"/></g><g transform="matrix(0.162118,-0.986771,-0.986771,-0.162118,197.819,176.411)"><path d="M-4.805,-4.08C-8.048,-4.063 -10.676,-1.87 -10.676,0.82C-10.675,3.509 -8.047,5.675 -4.805,5.66C-1.563,5.643 1.066,3.45 1.066,0.76C1.066,-1.93 -1.563,-4.096 -4.805,-4.08" style="fill:rgb(177,215,240);fill-rule:nonzero;"/></g><g transform="matrix(0.162095,-0.986775,-0.986775,-0.162095,197.867,195.284)"><path d="M-5.175,-4.393C-8.666,-4.376 -11.496,-2.014 -11.497,0.882C-11.496,3.778 -8.666,6.112 -5.175,6.094C-1.683,6.076 1.147,3.715 1.147,0.818C1.147,-2.078 -1.684,-4.411 -5.175,-4.393" style="fill:rgb(28,89,140);fill-rule:nonzero;"/></g><g transform="matrix(0.162118,-0.986771,-0.986771,-0.162118,197.819,196.383)"><path d="M-4.805,-4.08C-8.048,-4.063 -10.676,-1.87 -10.676,0.82C-10.676,3.509 -8.047,5.675 -4.805,5.66C-1.563,5.643 1.066,3.45 1.066,0.76C1.066,-1.93 -1.563,-4.096 -4.805,-4.08" style="fill:rgb(177,215,240);fill-rule:nonzero;"/></g><g transform="matrix(0.162095,-0.986775,-0.986775,-0.162095,221.368,169.401)"><path d="M-5.175,-4.394C-8.665,-4.376 -11.497,-2.014 -11.496,0.881C-11.496,3.778 -8.665,6.111 -5.175,6.094C-1.682,6.076 1.148,3.714 1.147,0.818C1.147,-2.079 -1.684,-4.411 -5.175,-4.394" style="fill:rgb(28,89,140);fill-rule:nonzero;"/></g><g transform="matrix(0.162134,-0.986769,-0.986769,-0.162134,221.32,170.5)"><path d="M-4.805,-4.08C-8.048,-4.063 -10.676,-1.871 -10.676,0.819C-10.676,3.509 -8.048,5.675 -4.805,5.659C-1.562,5.642 1.066,3.45 1.066,0.76C1.066,-1.93 -1.562,-4.096 -4.805,-4.08" style="fill:rgb(177,215,240);fill-rule:nonzero;"/></g><g transform="matrix(0.162188,-0.98676,-0.98676,-0.162188,221.369,190.91)"><path d="M-5.175,-4.393C-8.665,-4.376 -11.496,-2.014 -11.497,0.881C-11.496,3.777 -8.666,6.111 -5.175,6.094C-1.683,6.076 1.147,3.715 1.147,0.819C1.148,-2.077 -1.684,-4.41 -5.175,-4.393" style="fill:rgb(28,89,140);fill-rule:nonzero;"/></g><g transform="matrix(0.162134,-0.986769,-0.986769,-0.162134,221.32,192.009)"><path d="M-4.805,-4.08C-8.048,-4.063 -10.676,-1.871 -10.676,0.819C-10.675,3.509 -8.048,5.675 -4.805,5.659C-1.562,5.642 1.066,3.45 1.066,0.76C1.066,-1.93 -1.562,-4.096 -4.805,-4.08" style="fill:rgb(177,215,240);fill-rule:nonzero;"/></g><g transform="matrix(0.0456809,-0.998956,-0.998956,-0.0456809,158.757,151.162)"><path d="M-5.391,-5.15C-6.375,-5.486 -7.172,-3.343 -7.172,-0.363C-7.172,2.617 -6.374,5.305 -5.391,5.643C-4.406,5.979 -3.609,3.836 -3.609,0.856C-3.609,-2.124 -4.406,-4.812 -5.391,-5.15" style="fill:rgb(28,89,140);fill-rule:nonzero;"/></g><g transform="matrix(0.0456973,-0.998955,-0.998955,-0.0456973,158.983,151.762)"><path d="M-5.005,-4.782C-5.919,-5.095 -6.66,-3.105 -6.66,-0.337C-6.66,2.431 -5.919,4.927 -5.005,5.24C-4.091,5.552 -3.351,3.562 -3.35,0.795C-3.351,-1.973 -4.091,-4.469 -5.005,-4.782" style="fill:rgb(177,215,240);fill-rule:nonzero;"/></g><g transform="matrix(0.0456809,-0.998956,-0.998956,-0.0456809,185.291,146.056)"><path d="M-5.39,-5.15C-6.374,-5.487 -7.172,-3.343 -7.172,-0.363C-7.171,2.617 -6.373,5.305 -5.39,5.643C-4.406,5.979 -3.608,3.836 -3.608,0.856C-3.608,-2.124 -4.406,-4.812 -5.39,-5.15" style="fill:rgb(28,89,140);fill-rule:nonzero;"/></g><g transform="matrix(0.0456973,-0.998955,-0.998955,-0.0456973,185.517,146.655)"><path d="M-5.006,-4.781C-5.92,-5.094 -6.66,-3.104 -6.661,-0.336C-6.66,2.431 -5.92,4.928 -5.006,5.241C-4.092,5.553 -3.351,3.563 -3.351,0.796C-3.351,-1.972 -4.092,-4.468 -5.006,-4.781" style="fill:rgb(177,215,240);fill-rule:nonzero;"/></g><g transform="matrix(0.0456809,-0.998956,-0.998956,-0.0456809,181.801,157.846)"><path d="M-5.391,-5.15C-6.375,-5.486 -7.172,-3.343 -7.172,-0.363C-7.172,2.617 -6.374,5.305 -5.391,5.643C-4.406,5.979 -3.609,3.836 -3.609,0.856C-3.609,-2.124 -4.406,-4.812 -5.391,-5.15" style="fill:rgb(28,89,140);fill-rule:nonzero;"/></g><g transform="matrix(0.0456973,-0.998955,-0.998955,-0.0456973,182.027,158.447)"><path d="M-5.005,-4.782C-5.919,-5.095 -6.66,-3.105 -6.66,-0.337C-6.66,2.431 -5.919,4.927 -5.005,5.24C-4.091,5.552 -3.351,3.562 -3.35,0.795C-3.351,-1.973 -4.091,-4.469 -5.005,-4.782" style="fill:rgb(177,215,240);fill-rule:nonzero;"/></g><g transform="matrix(0.0456809,-0.998956,-0.998956,-0.0456809,207.624,150.381)"><path d="M-5.39,-5.15C-6.374,-5.487 -7.172,-3.343 -7.172,-0.363C-7.171,2.617 -6.373,5.305 -5.39,5.643C-4.405,5.979 -3.608,3.836 -3.608,0.856C-3.608,-2.124 -4.405,-4.812 -5.39,-5.15" style="fill:rgb(28,89,140);fill-rule:nonzero;"/></g><g transform="matrix(0.0456973,-0.998955,-0.998955,-0.0456973,207.851,150.98)"><path d="M-5.006,-4.781C-5.92,-5.094 -6.66,-3.104 -6.661,-0.336C-6.66,2.432 -5.92,4.928 -5.006,5.241C-4.092,5.553 -3.351,3.563 -3.351,0.796C-3.351,-1.972 -4.092,-4.468 -5.006,-4.781" style="fill:rgb(177,215,240);fill-rule:nonzero;"/></g></g><g transform="matrix(9.61413,-1.95142,1.95142,9.61413,-1867.33,601.377)"><g transform="matrix(1,0,0,1,432.974,167.387)"><path d="M0,79.898L-30.251,41.08C-31.608,39.3 -32.636,37.292 -33.288,35.151L-38.778,0L1.776,32.228L0,79.898Z" style="fill:rgb(207,140,86);fill-rule:nonzero;"/></g><g transform="matrix(1,0,0,1,394.196,163.675)"><path d="M0,3.712L29.15,34.549C30.411,36.926 33.789,37.602 36.695,36.06L90.117,10.582C93.023,9.04 98.408,5.53 97.146,3.154L65.094,-30.838C63.833,-33.214 60.455,-33.89 57.55,-32.348L2.978,-3.383C0.072,-1.841 -1.261,1.336 0,3.712" style="fill:rgb(235,208,99);fill-rule:nonzero;"/></g><g transform="matrix(1,0,0,1,432.974,165.241)"><path d="M0,82.044L-5.062,41.588C-6.322,39.212 -4.989,36.036 -2.083,34.494L49.177,-1.253C52.064,-3.052 59.745,-1.185 60.033,7.039L65.094,47.494C66.355,49.871 65.021,53.047 62.116,54.589L7.545,83.554C4.639,85.096 1.261,84.42 0,82.044" style="fill:rgb(235,208,99);fill-rule:nonzero;"/></g><g transform="matrix(1,0,0,1,427.233,168.691)"><path d="M0,33.949C0,33.949 55.063,6.299 63.475,-0.582C63.475,-0.582 30.032,13.685 -4.281,34.531L0,33.949Z" style="fill:rgb(207,140,86);fill-rule:nonzero;"/></g><g transform="matrix(-0.949052,0.315119,0.315119,0.949052,444.522,211.599)"><path d="M1.621,-10.02C-1.798,-10.597 -4.57,-8.764 -4.569,-5.925C-4.569,-3.086 -1.798,-0.316 1.621,0.262C5.039,0.839 7.809,-0.994 7.811,-3.833C7.81,-6.673 5.04,-9.443 1.621,-10.02" style="fill:rgb(173,80,18);fill-rule:nonzero;"/></g><g transform="matrix(-0.949018,0.315222,0.315222,0.949018,444.876,210.787)"><path d="M1.504,-9.306C-1.671,-9.842 -4.244,-8.139 -4.244,-5.502C-4.244,-2.866 -1.671,-0.293 1.504,0.243C4.679,0.779 7.252,-0.924 7.253,-3.562C7.253,-6.198 4.679,-8.77 1.504,-9.306" style="fill:rgb(249,242,212);fill-rule:nonzero;"/></g><g transform="matrix(-0.949052,0.315119,0.315119,0.949052,482.782,191.978)"><path d="M1.621,-10.02C-1.798,-10.597 -4.57,-8.764 -4.569,-5.925C-4.569,-3.086 -1.798,-0.316 1.621,0.262C5.038,0.839 7.81,-0.993 7.811,-3.833C7.81,-6.673 5.04,-9.443 1.621,-10.02" style="fill:rgb(173,80,18);fill-rule:nonzero;"/></g><g transform="matrix(-0.949049,0.315128,0.315128,0.949049,483.135,191.166)"><path d="M1.504,-9.304C-1.671,-9.841 -4.244,-8.139 -4.244,-5.501C-4.244,-2.865 -1.671,-0.292 1.504,0.244C4.678,0.78 7.252,-0.922 7.253,-3.559C7.252,-6.196 4.679,-8.769 1.504,-9.304" style="fill:rgb(249,242,212);fill-rule:nonzero;"/></g><g transform="matrix(-0.949052,0.315119,0.315119,0.949052,448.488,239.584)"><path d="M1.621,-10.02C-1.798,-10.597 -4.569,-8.765 -4.569,-5.925C-4.569,-3.086 -1.798,-0.316 1.621,0.262C5.039,0.839 7.81,-0.995 7.811,-3.833C7.81,-6.673 5.04,-9.443 1.621,-10.02" style="fill:rgb(173,80,18);fill-rule:nonzero;"/></g><g transform="matrix(-0.949018,0.315222,0.315222,0.949018,448.842,238.772)"><path d="M1.504,-9.306C-1.671,-9.842 -4.244,-8.139 -4.244,-5.502C-4.244,-2.865 -1.671,-0.293 1.504,0.243C4.679,0.779 7.252,-0.924 7.253,-3.562C7.253,-6.198 4.679,-8.77 1.504,-9.306" style="fill:rgb(249,242,212);fill-rule:nonzero;"/></g><g transform="matrix(-0.949052,0.315119,0.315119,0.949052,486.747,219.963)"><path d="M1.621,-10.02C-1.798,-10.597 -4.57,-8.764 -4.569,-5.925C-4.569,-3.086 -1.798,-0.316 1.621,0.262C5.039,0.839 7.81,-0.993 7.811,-3.833C7.81,-6.673 5.04,-9.443 1.621,-10.02" style="fill:rgb(173,80,18);fill-rule:nonzero;"/></g><g transform="matrix(-0.949018,0.315222,0.315222,0.949018,487.101,219.15)"><path d="M1.504,-9.304C-1.672,-9.84 -4.244,-8.138 -4.244,-5.5C-4.244,-2.864 -1.671,-0.292 1.504,0.245C4.679,0.78 7.252,-0.923 7.253,-3.56C7.253,-6.197 4.679,-8.769 1.504,-9.304" style="fill:rgb(249,242,212);fill-rule:nonzero;"/></g><g transform="matrix(-0.949052,0.315119,0.315119,0.949052,466.146,216.529)"><path d="M1.621,-10.02C-1.798,-10.597 -4.57,-8.764 -4.569,-5.925C-4.569,-3.086 -1.798,-0.316 1.621,0.262C5.039,0.839 7.81,-0.993 7.811,-3.833C7.81,-6.673 5.04,-9.443 1.621,-10.02" style="fill:rgb(173,80,18);fill-rule:nonzero;"/></g><g transform="matrix(-0.949018,0.315222,0.315222,0.949018,466.5,215.716)"><path d="M1.504,-9.304C-1.672,-9.84 -4.244,-8.138 -4.244,-5.5C-4.244,-2.864 -1.671,-0.292 1.504,0.245C4.679,0.78 7.252,-0.923 7.253,-3.56C7.253,-6.197 4.679,-8.769 1.504,-9.304" style="fill:rgb(249,242,212);fill-rule:nonzero;"/></g><g transform="matrix(-0.947632,0.319366,0.319366,0.947632,443.367,171.168)"><path d="M2.152,-13.121C-2.333,-13.098 -5.97,-10.064 -5.969,-6.343C-5.97,-2.623 -2.334,0.375 2.151,0.353C6.637,0.33 10.274,-2.704 10.273,-6.425C10.273,-10.145 6.637,-13.143 2.152,-13.121" style="fill:rgb(173,80,18);fill-rule:nonzero;"/></g><g transform="matrix(-0.947631,0.319367,0.319367,0.947631,443.879,170.256)"><path d="M1.999,-12.185C-2.167,-12.164 -5.544,-9.346 -5.544,-5.89C-5.544,-2.435 -2.167,0.348 1.999,0.327C6.165,0.307 9.541,-2.511 9.541,-5.966C9.541,-9.422 6.165,-12.205 1.999,-12.185" style="fill:rgb(249,242,212);fill-rule:nonzero;"/></g><g transform="matrix(-0.903816,0.42792,0.42792,0.903816,409.953,209.242)"><path d="M2.494,-11.092C1.431,-11.455 0.57,-9.142 0.57,-5.924C0.57,-2.707 1.43,0.197 2.494,0.56C3.556,0.924 4.417,-1.39 4.418,-4.607C4.418,-7.826 3.557,-10.728 2.494,-11.092" style="fill:rgb(173,80,18);fill-rule:nonzero;"/></g><g transform="matrix(-0.903796,0.427963,0.427963,0.903796,409.707,208.62)"><path d="M2.316,-10.301C1.329,-10.638 0.529,-8.488 0.53,-5.501C0.53,-2.514 1.329,0.182 2.316,0.52C3.303,0.858 4.103,-1.292 4.102,-4.279C4.102,-7.267 3.303,-9.962 2.316,-10.301" style="fill:rgb(249,242,212);fill-rule:nonzero;"/></g><g transform="matrix(-0.903816,0.42792,0.42792,0.903816,422.963,206.601)"><path d="M2.493,-11.091C1.43,-11.455 0.569,-9.142 0.57,-5.923C0.569,-2.707 1.43,0.197 2.493,0.56C3.555,0.924 4.417,-1.389 4.417,-4.607C4.417,-7.824 3.556,-10.728 2.493,-11.091" style="fill:rgb(173,80,18);fill-rule:nonzero;"/></g><g transform="matrix(-0.903779,0.427999,0.427999,0.903779,422.716,205.979)"><path d="M2.315,-10.3C1.329,-10.638 0.529,-8.489 0.529,-5.5C0.529,-2.513 1.329,0.183 2.316,0.521C3.302,0.859 4.102,-1.29 4.103,-4.278C4.102,-7.266 3.302,-9.962 2.315,-10.3" style="fill:rgb(249,242,212);fill-rule:nonzero;"/></g></g><g transform="matrix(3.64251,2.04313,-2.04313,3.64251,-874.592,-831.583)"><g transform="matrix(1,0,0,1,432.974,167.387)"><path d="M0,79.898L-30.251,41.08C-31.608,39.3 -32.636,37.292 -33.288,35.151L-38.778,0L1.776,32.228L0,79.898Z" style="fill:rgb(207,140,86);fill-rule:nonzero;"/></g><g transform="matrix(1,0,0,1,394.196,163.675)"><path d="M0,3.712L29.15,34.549C30.411,36.926 33.789,37.602 36.695,36.06L90.117,10.582C93.023,9.04 98.408,5.53 97.146,3.154L65.094,-30.838C63.833,-33.214 60.455,-33.89 57.55,-32.348L2.978,-3.383C0.072,-1.841 -1.261,1.336 0,3.712" style="fill:rgb(235,208,99);fill-rule:nonzero;"/></g><g transform="matrix(1,0,0,1,432.974,165.241)"><path d="M0,82.044L-5.062,41.588C-6.322,39.212 -4.989,36.036 -2.083,34.494L49.177,-1.253C52.064,-3.052 59.745,-1.185 60.033,7.039L65.094,47.494C66.355,49.871 65.021,53.047 62.116,54.589L7.545,83.554C4.639,85.096 1.261,84.42 0,82.044" style="fill:rgb(235,208,99);fill-rule:nonzero;"/></g><g transform="matrix(1,0,0,1,427.233,168.691)"><path d="M0,33.949C0,33.949 55.063,6.299 63.475,-0.582C63.475,-0.582 30.032,13.685 -4.281,34.531L0,33.949Z" style="fill:rgb(207,140,86);fill-rule:nonzero;"/></g><g transform="matrix(-0.949052,0.315119,0.315119,0.949052,444.522,211.599)"><path d="M1.621,-10.02C-1.798,-10.597 -4.57,-8.764 -4.569,-5.925C-4.569,-3.086 -1.798,-0.316 1.621,0.262C5.039,0.839 7.809,-0.994 7.811,-3.833C7.81,-6.673 5.04,-9.443 1.621,-10.02" style="fill:rgb(173,80,18);fill-rule:nonzero;"/></g><g transform="matrix(-0.949018,0.315222,0.315222,0.949018,444.876,210.787)"><path d="M1.504,-9.306C-1.671,-9.842 -4.244,-8.139 -4.244,-5.502C-4.244,-2.866 -1.671,-0.293 1.504,0.243C4.679,0.779 7.252,-0.924 7.253,-3.562C7.253,-6.198 4.679,-8.77 1.504,-9.306" style="fill:rgb(249,242,212);fill-rule:nonzero;"/></g><g transform="matrix(-0.949052,0.315119,0.315119,0.949052,482.782,191.978)"><path d="M1.621,-10.02C-1.798,-10.597 -4.57,-8.764 -4.569,-5.925C-4.569,-3.086 -1.798,-0.316 1.621,0.262C5.038,0.839 7.81,-0.993 7.811,-3.833C7.81,-6.673 5.04,-9.443 1.621,-10.02" style="fill:rgb(173,80,18);fill-rule:nonzero;"/></g><g transform="matrix(-0.949049,0.315128,0.315128,0.949049,483.135,191.166)"><path d="M1.504,-9.304C-1.671,-9.841 -4.244,-8.139 -4.244,-5.501C-4.244,-2.865 -1.671,-0.292 1.504,0.244C4.678,0.78 7.252,-0.922 7.253,-3.559C7.252,-6.196 4.679,-8.769 1.504,-9.304" style="fill:rgb(249,242,212);fill-rule:nonzero;"/></g><g transform="matrix(-0.949052,0.315119,0.315119,0.949052,448.488,239.584)"><path d="M1.621,-10.02C-1.798,-10.597 -4.569,-8.765 -4.569,-5.925C-4.569,-3.086 -1.798,-0.316 1.621,0.262C5.039,0.839 7.81,-0.995 7.811,-3.833C7.81,-6.673 5.04,-9.443 1.621,-10.02" style="fill:rgb(173,80,18);fill-rule:nonzero;"/></g><g transform="matrix(-0.949018,0.315222,0.315222,0.949018,448.842,238.772)"><path d="M1.504,-9.306C-1.671,-9.842 -4.244,-8.139 -4.244,-5.502C-4.244,-2.865 -1.671,-0.293 1.504,0.243C4.679,0.779 7.252,-0.924 7.253,-3.562C7.253,-6.198 4.679,-8.77 1.504,-9.306" style="fill:rgb(249,242,212);fill-rule:nonzero;"/></g><g transform="matrix(-0.949052,0.315119,0.315119,0.949052,486.747,219.963)"><path d="M1.621,-10.02C-1.798,-10.597 -4.57,-8.764 -4.569,-5.925C-4.569,-3.086 -1.798,-0.316 1.621,0.262C5.039,0.839 7.81,-0.993 7.811,-3.833C7.81,-6.673 5.04,-9.443 1.621,-10.02" style="fill:rgb(173,80,18);fill-rule:nonzero;"/></g><g transform="matrix(-0.949018,0.315222,0.315222,0.949018,487.101,219.15)"><path d="M1.504,-9.304C-1.672,-9.84 -4.244,-8.138 -4.244,-5.5C-4.244,-2.864 -1.671,-0.292 1.504,0.245C4.679,0.78 7.252,-0.923 7.253,-3.56C7.253,-6.197 4.679,-8.769 1.504,-9.304" style="fill:rgb(249,242,212);fill-rule:nonzero;"/></g><g transform="matrix(-0.949052,0.315119,0.315119,0.949052,466.146,216.529)"><path d="M1.621,-10.02C-1.798,-10.597 -4.57,-8.764 -4.569,-5.925C-4.569,-3.086 -1.798,-0.316 1.621,0.262C5.039,0.839 7.81,-0.993 7.811,-3.833C7.81,-6.673 5.04,-9.443 1.621,-10.02" style="fill:rgb(173,80,18);fill-rule:nonzero;"/></g><g transform="matrix(-0.949018,0.315222,0.315222,0.949018,466.5,215.716)"><path d="M1.504,-9.304C-1.672,-9.84 -4.244,-8.138 -4.244,-5.5C-4.244,-2.864 -1.671,-0.292 1.504,0.245C4.679,0.78 7.252,-0.923 7.253,-3.56C7.253,-6.197 4.679,-8.769 1.504,-9.304" style="fill:rgb(249,242,212);fill-rule:nonzero;"/></g><g transform="matrix(-0.947632,0.319366,0.319366,0.947632,443.367,171.168)"><path d="M2.152,-13.121C-2.333,-13.098 -5.97,-10.064 -5.969,-6.343C-5.97,-2.623 -2.334,0.375 2.151,0.353C6.637,0.33 10.274,-2.704 10.273,-6.425C10.273,-10.145 6.637,-13.143 2.152,-13.121" style="fill:rgb(173,80,18);fill-rule:nonzero;"/></g><g transform="matrix(-0.947631,0.319367,0.319367,0.947631,443.879,170.256)"><path d="M1.999,-12.185C-2.167,-12.164 -5.544,-9.346 -5.544,-5.89C-5.544,-2.435 -2.167,0.348 1.999,0.327C6.165,0.307 9.541,-2.511 9.541,-5.966C9.541,-9.422 6.165,-12.205 1.999,-12.185" style="fill:rgb(249,242,212);fill-rule:nonzero;"/></g><g transform="matrix(-0.903816,0.42792,0.42792,0.903816,409.953,209.242)"><path d="M2.494,-11.092C1.431,-11.455 0.57,-9.142 0.57,-5.924C0.57,-2.707 1.43,0.197 2.494,0.56C3.556,0.924 4.417,-1.39 4.418,-4.607C4.418,-7.826 3.557,-10.728 2.494,-11.092" style="fill:rgb(173,80,18);fill-rule:nonzero;"/></g><g transform="matrix(-0.903796,0.427963,0.427963,0.903796,409.707,208.62)"><path d="M2.316,-10.301C1.329,-10.638 0.529,-8.488 0.53,-5.501C0.53,-2.514 1.329,0.182 2.316,0.52C3.303,0.858 4.103,-1.292 4.102,-4.279C4.102,-7.267 3.303,-9.962 2.316,-10.301" style="fill:rgb(249,242,212);fill-rule:nonzero;"/></g><g transform="matrix(-0.903816,0.42792,0.42792,0.903816,422.963,206.601)"><path d="M2.493,-11.091C1.43,-11.455 0.569,-9.142 0.57,-5.923C0.569,-2.707 1.43,0.197 2.493,0.56C3.555,0.924 4.417,-1.389 4.417,-4.607C4.417,-7.824 3.556,-10.728 2.493,-11.091" style="fill:rgb(173,80,18);fill-rule:nonzero;"/></g><g transform="matrix(-0.903779,0.427999,0.427999,0.903779,422.716,205.979)"><path d="M2.315,-10.3C1.329,-10.638 0.529,-8.489 0.529,-5.5C0.529,-2.513 1.329,0.183 2.316,0.521C3.302,0.859 4.102,-1.29 4.103,-4.278C4.102,-7.266 3.302,-9.962 2.315,-10.3" style="fill:rgb(249,242,212);fill-rule:nonzero;"/></g></g><g transform="matrix(1.88815,5.10737,-5.10737,1.88815,2396.97,-1964.29)"><g transform="matrix(1,0,0,1,432.974,167.387)"><path d="M0,79.898L-30.251,41.08C-31.608,39.3 -32.636,37.292 -33.288,35.151L-38.778,0L1.776,32.228L0,79.898Z" style="fill:rgb(196,64,107);fill-rule:nonzero;"/></g><g transform="matrix(1,0,0,1,394.196,163.675)"><path d="M0,3.712L29.15,34.549C30.411,36.926 33.789,37.602 36.695,36.06L90.117,10.582C93.023,9.04 98.408,5.53 97.146,3.154L65.094,-30.838C63.833,-33.214 60.455,-33.89 57.55,-32.348L2.978,-3.383C0.072,-1.841 -1.261,1.336 0,3.712" style="fill:rgb(236,97,152);fill-rule:nonzero;"/></g><g transform="matrix(1,0,0,1,432.974,165.241)"><path d="M0,82.044L-5.062,41.588C-6.322,39.212 -4.989,36.036 -2.083,34.494L49.177,-1.253C52.064,-3.052 59.745,-1.185 60.033,7.039L65.094,47.494C66.355,49.871 65.021,53.047 62.116,54.589L7.545,83.554C4.639,85.096 1.261,84.42 0,82.044" style="fill:rgb(236,97,152);fill-rule:nonzero;"/></g><g transform="matrix(1,0,0,1,427.233,168.691)"><path d="M0,33.949C0,33.949 55.063,6.299 63.475,-0.582C63.475,-0.582 30.032,13.685 -4.281,34.531L0,33.949Z" style="fill:rgb(196,64,107);fill-rule:nonzero;"/></g><g transform="matrix(-0.949052,0.315119,0.315119,0.949052,444.522,211.599)"><path d="M1.621,-10.02C-1.798,-10.597 -4.57,-8.764 -4.569,-5.925C-4.569,-3.086 -1.798,-0.316 1.621,0.262C5.039,0.839 7.809,-0.994 7.811,-3.833C7.81,-6.673 5.04,-9.443 1.621,-10.02" style="fill:rgb(150,46,80);fill-rule:nonzero;"/></g><g transform="matrix(-0.949018,0.315222,0.315222,0.949018,444.876,210.787)"><path d="M1.504,-9.306C-1.671,-9.842 -4.244,-8.139 -4.244,-5.502C-4.244,-2.866 -1.671,-0.293 1.504,0.243C4.679,0.779 7.252,-0.924 7.253,-3.562C7.253,-6.198 4.679,-8.77 1.504,-9.306" style="fill:rgb(246,178,205);fill-rule:nonzero;"/></g><g transform="matrix(-0.949052,0.315119,0.315119,0.949052,482.782,191.978)"><path d="M1.621,-10.02C-1.798,-10.597 -4.57,-8.764 -4.569,-5.925C-4.569,-3.086 -1.798,-0.316 1.621,0.262C5.038,0.839 7.81,-0.993 7.811,-3.833C7.81,-6.673 5.04,-9.443 1.621,-10.02" style="fill:rgb(150,46,80);fill-rule:nonzero;"/></g><g transform="matrix(-0.949049,0.315128,0.315128,0.949049,483.135,191.166)"><path d="M1.504,-9.304C-1.671,-9.841 -4.244,-8.139 -4.244,-5.501C-4.244,-2.865 -1.671,-0.292 1.504,0.244C4.678,0.78 7.252,-0.922 7.253,-3.559C7.252,-6.196 4.679,-8.769 1.504,-9.304" style="fill:rgb(246,178,205);fill-rule:nonzero;"/></g><g transform="matrix(-0.949052,0.315119,0.315119,0.949052,448.488,239.584)"><path d="M1.621,-10.02C-1.798,-10.597 -4.569,-8.765 -4.569,-5.925C-4.569,-3.086 -1.798,-0.316 1.621,0.262C5.039,0.839 7.81,-0.995 7.811,-3.833C7.81,-6.673 5.04,-9.443 1.621,-10.02" style="fill:rgb(150,46,80);fill-rule:nonzero;"/></g><g transform="matrix(-0.949018,0.315222,0.315222,0.949018,448.842,238.772)"><path d="M1.504,-9.306C-1.671,-9.842 -4.244,-8.139 -4.244,-5.502C-4.244,-2.865 -1.671,-0.293 1.504,0.243C4.679,0.779 7.252,-0.924 7.253,-3.562C7.253,-6.198 4.679,-8.77 1.504,-9.306" style="fill:rgb(246,178,205);fill-rule:nonzero;"/></g><g transform="matrix(-0.949052,0.315119,0.315119,0.949052,486.747,219.963)"><path d="M1.621,-10.02C-1.798,-10.597 -4.57,-8.764 -4.569,-5.925C-4.569,-3.086 -1.798,-0.316 1.621,0.262C5.039,0.839 7.81,-0.993 7.811,-3.833C7.81,-6.673 5.04,-9.443 1.621,-10.02" style="fill:rgb(150,46,80);fill-rule:nonzero;"/></g><g transform="matrix(-0.949018,0.315222,0.315222,0.949018,487.101,219.15)"><path d="M1.504,-9.304C-1.672,-9.84 -4.244,-8.138 -4.244,-5.5C-4.244,-2.864 -1.671,-0.292 1.504,0.245C4.679,0.78 7.252,-0.923 7.253,-3.56C7.253,-6.197 4.679,-8.769 1.504,-9.304" style="fill:rgb(246,178,205);fill-rule:nonzero;"/></g><g transform="matrix(-0.949052,0.315119,0.315119,0.949052,466.146,216.529)"><path d="M1.621,-10.02C-1.798,-10.597 -4.57,-8.764 -4.569,-5.925C-4.569,-3.086 -1.798,-0.316 1.621,0.262C5.039,0.839 7.81,-0.993 7.811,-3.833C7.81,-6.673 5.04,-9.443 1.621,-10.02" style="fill:rgb(150,46,80);fill-rule:nonzero;"/></g><g transform="matrix(-0.949018,0.315222,0.315222,0.949018,466.5,215.716)"><path d="M1.504,-9.304C-1.672,-9.84 -4.244,-8.138 -4.244,-5.5C-4.244,-2.864 -1.671,-0.292 1.504,0.245C4.679,0.78 7.252,-0.923 7.253,-3.56C7.253,-6.197 4.679,-8.769 1.504,-9.304" style="fill:rgb(246,178,205);fill-rule:nonzero;"/></g><g transform="matrix(-0.947632,0.319366,0.319366,0.947632,443.367,171.168)"><path d="M2.152,-13.121C-2.333,-13.098 -5.97,-10.064 -5.969,-6.343C-5.97,-2.623 -2.334,0.375 2.151,0.353C6.637,0.33 10.274,-2.704 10.273,-6.425C10.273,-10.145 6.637,-13.143 2.152,-13.121" style="fill:rgb(150,46,80);fill-rule:nonzero;"/></g><g transform="matrix(-0.947631,0.319367,0.319367,0.947631,443.879,170.256)"><path d="M1.999,-12.185C-2.167,-12.164 -5.544,-9.346 -5.544,-5.89C-5.544,-2.435 -2.167,0.348 1.999,0.327C6.165,0.307 9.541,-2.511 9.541,-5.966C9.541,-9.422 6.165,-12.205 1.999,-12.185" style="fill:rgb(246,178,205);fill-rule:nonzero;"/></g><g transform="matrix(-0.903816,0.42792,0.42792,0.903816,409.953,209.242)"><path d="M2.494,-11.092C1.431,-11.455 0.57,-9.142 0.57,-5.924C0.57,-2.707 1.43,0.197 2.494,0.56C3.556,0.924 4.417,-1.39 4.418,-4.607C4.418,-7.826 3.557,-10.728 2.494,-11.092" style="fill:rgb(150,46,80);fill-rule:nonzero;"/></g><g transform="matrix(-0.903796,0.427963,0.427963,0.903796,409.707,208.62)"><path d="M2.316,-10.301C1.329,-10.638 0.529,-8.488 0.53,-5.501C0.53,-2.514 1.329,0.182 2.316,0.52C3.303,0.858 4.103,-1.292 4.102,-4.279C4.102,-7.267 3.303,-9.962 2.316,-10.301" style="fill:rgb(246,178,205);fill-rule:nonzero;"/></g><g transform="matrix(-0.903816,0.42792,0.42792,0.903816,422.963,206.601)"><path d="M2.493,-11.091C1.43,-11.455 0.569,-9.142 0.57,-5.923C0.569,-2.707 1.43,0.197 2.493,0.56C3.555,0.924 4.417,-1.389 4.417,-4.607C4.417,-7.824 3.556,-10.728 2.493,-11.091" style="fill:rgb(150,46,80);fill-rule:nonzero;"/></g><g transform="matrix(-0.903779,0.427999,0.427999,0.903779,422.716,205.979)"><path d="M2.315,-10.3C1.329,-10.638 0.529,-8.489 0.529,-5.5C0.529,-2.513 1.329,0.183 2.316,0.521C3.302,0.859 4.102,-1.29 4.103,-4.278C4.102,-7.266 3.302,-9.962 2.315,-10.3" style="fill:rgb(246,178,205);fill-rule:nonzero;"/></g></g></g></g></g></g></svg>