<svg id="Layer_1" data-name="Layer 1" xmlns="http://www.w3.org/2000/svg" viewBox="0 0 4499.99 2499.99"><defs><style>.cls-1{fill:#aed3f0;}.cls-2{fill:#c3dcf3;}.cls-3{fill:#05837c;}.cls-4{fill:#44ae9e;}.cls-5{fill:#147240;}.cls-6{fill:#a6dcd4;}.cls-7{fill:#77b9e5;}.cls-8{fill:#277bc1;}.cls-9{fill:#0d4972;}.cls-10{fill:#bce5f8;}.cls-11{fill:#ea487c;}.cls-12{fill:#ec6198;}.cls-13{fill:#c4406b;}.cls-14{fill:#c1170a;}.cls-15{fill:#f6b2cd;}.cls-16{fill:#1c598c;}.cls-17{fill:#b1d7f0;}.cls-18{fill:#cf8c56;}.cls-19{fill:#ebd063;}.cls-20{fill:#ad5012;}.cls-21{fill:#f9f2d4;}.cls-22{fill:#962e50;}</style></defs><path class="cls-1" d="M2288.76,2374.53c317-265.14,838.4-28.85,1129.4-266a142.63,142.63,0,0,0,13-12l-97.3-83.65a270.08,270.08,0,0,1-59.48-74.76l-177.08-479h0c-24.45-29.83-14.8-78.35,21.57-108.35l683-563.46c36.36-30,85.66-30.13,110.12-.3L4176.8,974.5C4270.64,932.28,4386.62,884.91,4500,848V0H3339.5l239.26,214.26c19.5,17.45,23.76,44.57,9.53,60.57L3430.77,593.27a65,65,0,0,1-6.7,13.53l-.77,1.57c-.3.33-.61.64-.92.93-7.52,10.5-18.87,19.9-35.12,26.58L3099.75,785.52c-14.24,16-41.58,14.8-61.07-2.65L2672.51,455c-19.49-17.46-23.76-44.58-9.53-60.58L2849.45,92.46c-290.12,131.81-594.93,47.18-866.6,168.9l266.91,272.89a77.81,77.81,0,0,1,21.85,22.34l.89.91c.22.48.4,1,.57,1.44,7.92,13.29,12.8,30.28,12.38,51.37l26.79,388.14c4,28.9-3.6,52.87-32,66l-622.74,291.94c-28.41,13.16-60.13,4.93-70.86-18.36h0L1341.53,1006c-42.8,69.65-84.31,135.85-125.31,194.46C1169.65,1267,1110.79,1343,1042.9,1421.3L1294.05,1559c24.43,7.62,36.44,39,26.84,70l-180.46,582.82c-9.61,31-37.19,50-61.63,42.4l-554.48-13.72c-7.91,2.49-19-2.45-35.21-20.1L232.91,2014.1c-65.79,17-131,24-194.45,18.66A349.74,349.74,0,0,1,0,2027.34V2500H2170.43C2211,2448.44,2252.4,2404.94,2288.76,2374.53Zm242-1369.81,78.2-109.13c.59-1.92,3.07-3.45,8.77-4.3l90-27.51c4.84-3.86,12.7-2,17.57,4.15l91.35,115.43c4.86,6.15,4.88,14.26,0,18.11l-74.59,85.37a42.06,42.06,0,0,1-12.13,9.36l-90.24,46.21c-4.84,3.85-12.71,2-17.57-4.15l-91.35-115.44C2525.92,1016.68,2525.9,1008.57,2530.74,1004.72ZM2310.6,1410.88l307.69-140.94a50.56,50.56,0,0,1,11.76-5.39l1.14-.52c.34,0,.67-.08,1-.1,9.72-2.56,21.21-2.55,34.29,1.55L2913.56,1319c16.49-2.51,32.34,11.85,35.4,32.08L3006.45,1731c3.07,20.23-7.82,38.66-24.31,41.18h0L2693,1869.86a116.09,116.09,0,0,1-40.91,5.62l-272.87-11.43h0c-16.49,2.51-32.34-11.86-35.4-32.08l-57.5-379.91C2283.23,1431.83,2294.12,1413.4,2310.6,1410.88ZM2085,1823.19l-89.66,255.3c0,4.05-4,8.44-14.56,13.33l-158.46,104.24c-7.18,10.2-23.44,11.07-36.3,2l-241.68-171.35c-12.87-9.12-17.48-24.78-10.29-35l96.09-207.37a84.49,84.49,0,0,1,18.17-25l148.41-140.54c7.19-10.2,23.44-11.06,36.31-1.94l241.67,171.35C2087.54,1797.33,2092.15,1813,2085,1823.19Z"/><path class="cls-2" d="M232.91,2014.1l-47.58-38.31c-24.44-7.61-36.45-38.94-26.84-70L338.94,1323c9.61-31,37.2-50,61.64-42.4h0l465.13,56.78a172.73,172.73,0,0,1,60.21,19.78l117,64.14c67.89-78.33,126.75-154.29,173.32-220.88,41-58.61,82.51-124.81,125.31-194.46l-39.65-53.73a179.75,179.75,0,0,1-25.71-58.09l-81.86-408.3,0,0,0-.05c-10.73-23.3,3.6-52.87,32-66l579.19-257.48c28.41-13.15,75.34-15.3,99.85,19.82l77.49,79.22c271.67-121.72,576.48-37.09,866.6-168.9L2868.9,61a150,150,0,0,1,35.82-39.09L2943.8,0H0V2027.34a349.74,349.74,0,0,0,38.46,5.42C101.92,2038.12,167.12,2031.05,232.91,2014.1ZM706.85,882h0l115.93-96.69a57.65,57.65,0,0,1,17.86-9.9l127.79-43.5h0c7.16-4.1,17-.31,22,8.47l94,164.82c5,8.77,3.26,19.21-3.89,23.32l-116.8,120a25,25,0,0,1-4.4,4.52l-.48.49a4.81,4.81,0,0,1-.46.22,30.26,30.26,0,0,1-16.06,5.42l-123.39,19.47c-7.15,4.1-17,.31-22-8.46L703,905.29C698,896.51,699.7,886.07,706.85,882ZM60.07,407.26l75.61-203.82h0c.38-16.44,16.93-29.39,37-28.92L549,183.29c20,.47,36,14.17,35.59,30.61l65.88,264.54a49.21,49.21,0,0,1,2.8,11.24l.33,1.3c0,.31-.06.6-.09.9.84,9.9-1.12,21.09-7.31,33.14l-93.7,230.82c-.38,16.44-16.94,29.38-37,28.92L139.18,776c-20-.47-36-14.17-35.59-30.61L58.54,448A115.31,115.31,0,0,1,60.07,407.26Z"/><path class="cls-2" d="M3978.79,2472.38c-36.37,30-85.68,30.13-110.13.3l-437.55-376.19a142.63,142.63,0,0,1-13,12c-291,237.19-812.38.9-1129.4,266-36.36,30.41-77.8,73.91-118.33,125.46H4500v-457.6Z"/><path class="cls-2" d="M4433.58,1156.29a116.57,116.57,0,0,1,22.16,15.68l2.57,1.82c.51.62,1,1.26,1.39,1.9,16.56,16.32,30.11,39.19,37.49,70.06l2.8,8.34V848c-113.37,36.88-229.35,84.25-323.19,126.47Z"/><path class="cls-3" d="M2708.24,1706.72c.61,4.72.94,7.29.94,7.29l-5.38,26.33q-3.35-15.85-6.49-31.59c-4,10.08-11.94,17.46-21.94,19l-296.18,136.31h0l272.87,11.43a116.09,116.09,0,0,0,40.91-5.62l289.17-97.65h0l-247.07-53.57C2725,1720.18,2715.07,1715.36,2708.24,1706.72Zm51.1,100.78c5.38,11.64-19.79,24.2-56.22,28s-70.33-2.47-75.72-14.1c-1.24-2.68-.83-5.41.94-8.08,3.3-9,24.22-17.62,52.41-20.6a173.21,173.21,0,0,1,40,.22C2740.76,1794.8,2755.89,1800.06,2759.34,1807.5Z"/><path class="cls-4" d="M2631.19,1264l-1.14.52c.7-.22,1.42-.43,2.15-.62C2631.86,1264,2631.53,1264,2631.19,1264Z"/><path class="cls-4" d="M2343.79,1832c3.06,20.22,18.91,34.59,35.4,32.08h0l296.18-136.31c10-1.53,17.93-8.91,21.94-19-6.24-31.25-11.89-62-17-91.93l-84.6-304.69c-2.71-12.17,5.45-31.49,22.58-42.19L2310.6,1410.88c-16.48,2.52-27.37,20.95-24.31,41.18Zm270.44-213.89c9.57,7.68,15.77,20.92,15.51,35.9-.4,23.45-16.45,42.25-35.82,42s-34.78-19.43-34.37-42.88a50.11,50.11,0,0,1,2.65-15.35c4.09-16.61,16.92-28.69,31.9-28.5A29,29,0,0,1,2614.23,1618.08Zm-64.43-274.73a29.05,29.05,0,0,1,20.22,8.9c9.52,7.68,15.68,20.89,15.42,35.83-.4,23.44-16.44,42.25-35.82,42s-34.77-19.43-34.36-42.87a50.2,50.2,0,0,1,2.63-15.31C2522,1355.27,2534.81,1343.17,2549.8,1343.35ZM2473.3,1515a29.07,29.07,0,0,1,20.17,8.85c9.55,7.68,15.73,20.9,15.48,35.87-.41,23.44-16.45,42.25-35.83,42s-34.77-19.42-34.37-42.87a50.67,50.67,0,0,1,2.66-15.39C2445.52,1526.89,2458.33,1514.84,2473.3,1515Zm-31.46,228.74c-.4,23.44-16.44,42.25-35.82,42s-34.77-19.44-34.37-42.88a50.18,50.18,0,0,1,2.62-15.26c4.07-16.67,16.91-28.79,31.93-28.6a29,29,0,0,1,20.16,8.85C2435.91,1715.55,2442.1,1728.78,2441.84,1743.75Zm-80.2-312.33a29.07,29.07,0,0,1,20.17,8.85c9.55,7.68,15.73,20.91,15.47,35.87-.4,23.44-16.43,42.25-35.82,42s-34.77-19.44-34.37-42.88a50.44,50.44,0,0,1,2.63-15.3C2333.8,1443.34,2346.64,1431.24,2361.64,1431.42Z"/><path class="cls-4" d="M2595.71,1312.13l84.6,304.69c-32.75-191.82-42.93-346.43-42.93-346.43,21.11,58.33,64,383.42,70.86,436.33,6.83,8.64,16.71,13.46,26.83,11.92l247.07,53.57h0c16.49-2.52,27.38-21,24.31-41.18L2949,1351.12c-3.06-20.23-18.91-34.59-35.4-32.08l-247.07-53.56c-13.08-4.1-24.57-4.11-34.29-1.55-.73.19-1.45.4-2.15.62a50.56,50.56,0,0,0-11.76,5.39C2601.16,1280.64,2593,1300,2595.71,1312.13Zm328.41,299.73c7,.12,13.85,3.16,19.65,8.15,9.82,7,17.44,19.07,19.5,32.67,3.22,21.33-8.42,38.36-26,38.07s-34.49-17.82-37.71-39.14a44.12,44.12,0,0,1,0-13.92C2900.73,1622.58,2910.5,1611.63,2924.12,1611.86Zm-205.2-287.29c7,.12,13.83,3.16,19.63,8.13,9.83,7,17.46,19.08,19.52,32.69,3.23,21.32-8.42,38.36-26,38.07s-34.49-17.81-37.7-39.14a43.76,43.76,0,0,1,0-13.91C2695.53,1335.3,2705.31,1324.35,2718.92,1324.57Z"/><path class="cls-3" d="M2709.18,1714s-.33-2.57-.94-7.29c-6.89-52.91-49.75-378-70.86-436.33,0,0,10.18,154.61,42.93,346.43,5.11,29.89,10.76,60.68,17,91.93q3.15,15.72,6.49,31.59Z"/><path class="cls-5" d="M2899.53,1651.61c3.22,21.32,20.11,38.84,37.71,39.14s29.25-16.74,26-38.07c-2.06-13.6-9.68-25.65-19.5-32.67a46.89,46.89,0,0,1,15.37,28.19c3,19.8-7.83,35.63-24.16,35.35s-32-16.54-35-36.34a42.22,42.22,0,0,1-.38-9.52A44.12,44.12,0,0,0,2899.53,1651.61Z"/><path class="cls-6" d="M2900,1647.21c3,19.8,18.67,36.07,35,36.34s27.16-15.55,24.16-35.35a46.89,46.89,0,0,0-15.37-28.19c-5.8-5-12.66-8-19.65-8.15-13.62-.23-23.39,10.72-24.55,25.83A42.22,42.22,0,0,0,2900,1647.21Z"/><path class="cls-5" d="M2694.34,1364.32c3.21,21.33,20.11,38.84,37.7,39.14s29.26-16.75,26-38.07c-2.06-13.61-9.69-25.67-19.52-32.69a46.92,46.92,0,0,1,15.4,28.22c3,19.8-7.83,35.62-24.17,35.35s-32-16.54-35-36.34a42.24,42.24,0,0,1-.37-9.52A43.76,43.76,0,0,0,2694.34,1364.32Z"/><path class="cls-6" d="M2694.75,1359.93c3,19.8,18.68,36.07,35,36.34s27.16-15.55,24.17-35.35a46.92,46.92,0,0,0-15.4-28.22c-5.8-5-12.65-8-19.63-8.13-13.61-.22-23.39,10.73-24.54,25.84A42.24,42.24,0,0,0,2694.75,1359.93Z"/><path class="cls-5" d="M2549.62,1430.09c19.38.24,35.42-18.57,35.82-42,.26-14.94-5.9-28.15-15.42-35.83,7.33,7.31,11.92,18.47,11.71,30.91-.38,21.78-15.27,39.25-33.28,39s-32.29-18-31.91-39.81a46.87,46.87,0,0,1,1.35-10.46,50.2,50.2,0,0,0-2.63,15.31C2514.85,1410.66,2530.24,1429.85,2549.62,1430.09Z"/><path class="cls-6" d="M2548.45,1422.18c18,.23,32.9-17.24,33.28-39,.21-12.44-4.38-23.6-11.71-30.91a29.05,29.05,0,0,0-20.22-8.9c-15-.18-27.82,11.92-31.91,28.56a46.87,46.87,0,0,0-1.35,10.46C2516.16,1404.14,2530.46,1422,2548.45,1422.18Z"/><path class="cls-5" d="M2361.46,1518.16c19.39.23,35.42-18.58,35.82-42,.26-15-5.92-28.19-15.47-35.87,7.36,7.32,12,18.49,11.75,31-.37,21.76-15.27,39.23-33.27,39s-32.29-18-31.92-39.81a48.14,48.14,0,0,1,1.35-10.46,50.44,50.44,0,0,0-2.63,15.3C2326.69,1498.72,2342.08,1517.92,2361.46,1518.16Z"/><path class="cls-6" d="M2360.29,1510.25c18,.22,32.9-17.25,33.27-39,.21-12.48-4.39-23.65-11.75-31a29.07,29.07,0,0,0-20.17-8.85c-15-.18-27.84,11.92-31.92,28.56a48.14,48.14,0,0,0-1.35,10.46C2328,1492.21,2342.29,1510,2360.29,1510.25Z"/><path class="cls-5" d="M2626,1649.09c-.37,21.76-15.26,39.24-33.26,39s-32.3-18-31.92-39.81a46.9,46.9,0,0,1,1.37-10.52,50.11,50.11,0,0,0-2.65,15.35c-.41,23.45,15,42.64,34.37,42.88s35.42-18.57,35.82-42c.26-15-5.94-28.22-15.51-35.9C2621.61,1625.4,2626.23,1636.59,2626,1649.09Z"/><path class="cls-6" d="M2562.2,1637.77a46.9,46.9,0,0,0-1.37,10.52c-.38,21.77,13.92,39.59,31.92,39.81s32.89-17.25,33.26-39c.22-12.5-4.4-23.69-11.78-31a29,29,0,0,0-20.13-8.81C2579.12,1609.08,2566.29,1621.16,2562.2,1637.77Z"/><path class="cls-5" d="M2473.12,1601.74c19.38.24,35.42-18.57,35.83-42,.25-15-5.93-28.19-15.48-35.87,7.36,7.32,12,18.49,11.75,31-.37,21.77-15.26,39.25-33.27,39s-32.29-18-31.91-39.81a47.18,47.18,0,0,1,1.37-10.56,50.67,50.67,0,0,0-2.66,15.39C2438.35,1582.32,2453.74,1601.51,2473.12,1601.74Z"/><path class="cls-6" d="M2472,1593.85c18,.23,32.9-17.25,33.27-39,.22-12.48-4.39-23.65-11.75-31a29.07,29.07,0,0,0-20.17-8.85c-15-.17-27.78,11.88-31.89,28.47A47.18,47.18,0,0,0,2440,1554C2439.66,1575.8,2454,1593.62,2472,1593.85Z"/><path class="cls-5" d="M2438.11,1738.84c-.37,21.77-15.27,39.25-33.27,39s-32.29-18-31.91-39.81a47.1,47.1,0,0,1,1.34-10.42,50.18,50.18,0,0,0-2.62,15.26c-.4,23.44,15,42.63,34.37,42.88s35.42-18.58,35.82-42c.26-15-5.93-28.2-15.48-35.87C2433.72,1715.19,2438.33,1726.37,2438.11,1738.84Z"/><path class="cls-6" d="M2374.27,1727.63a47.1,47.1,0,0,0-1.34,10.42c-.38,21.77,13.91,39.59,31.91,39.81s32.9-17.25,33.27-39c.22-12.47-4.39-23.65-11.75-31a29,29,0,0,0-20.16-8.85C2391.18,1698.84,2378.34,1711,2374.27,1727.63Z"/><path class="cls-5" d="M2751.06,1805.86c5,10.8-18.38,22.46-52.21,26s-65.3-2.29-70.31-13.1a6.89,6.89,0,0,1-.2-5.43c-1.77,2.67-2.18,5.4-.94,8.08,5.39,11.63,39.29,18,75.72,14.1s61.6-16.41,56.22-28c-3.45-7.44-18.58-12.7-38.57-14.51C2736.56,1795.08,2748.19,1799.65,2751.06,1805.86Z"/><path class="cls-6" d="M2628.54,1818.8c5,10.81,36.48,16.67,70.31,13.1s57.22-15.24,52.21-26c-2.87-6.21-14.5-10.78-30.29-12.87a173.21,173.21,0,0,0-40-.22c-28.19,3-49.11,11.57-52.41,20.6A6.89,6.89,0,0,0,2628.54,1818.8Z"/><path class="cls-3" d="M830.23,862.5c4.4-2.52,9.81-2,14.49.71L843,860l-2.2-13.1q4.37,6.72,8.61,13.42c.06-5.37,2.39-10.2,6.73-12.69l112.3-115.75h0l-127.79,43.5a57.65,57.65,0,0,0-17.86,9.9L706.85,882h0Zm-6-59.59c16.11-8.29,32.85-11.43,37.4-7a3.88,3.88,0,0,1,1,3.89c.09,4.75-8,12.45-20.49,18.86a86.33,86.33,0,0,1-18.49,7c-9.53,2.74-17.44,3-20.35.2C798.72,821.48,808.09,811.19,824.2,802.91Z"/><path class="cls-4" d="M958.83,1053.46l.48-.49c-.31.24-.62.48-.94.71A4.81,4.81,0,0,0,958.83,1053.46Z"/><path class="cls-4" d="M849.4,860.33c8.42,13.28,16.49,26.45,24.15,39.31L966.64,1025c3.42,5.13,3.08,15.5-2.93,23.5l116.8-120c7.15-4.11,8.9-14.55,3.89-23.32l-94-164.82c-5-8.78-14.86-12.57-22-8.47h0L856.13,847.64C851.79,850.13,849.46,855,849.4,860.33Zm65.22,27.39a14.31,14.31,0,0,1-10.86-.49c-5.76-1.83-11-6.81-13.5-13.75-4-10.88.08-22.42,9-25.77s19.47,2.74,23.45,13.62a24.62,24.62,0,0,1,1.49,7.55C925.31,877.27,921.56,885.12,914.62,887.72Zm67.64,114.64a14.37,14.37,0,0,1-10.92-.51c-5.74-1.84-10.92-6.82-13.45-13.74-4-10.87.07-22.41,9.05-25.76s19.47,2.74,23.45,13.62a24.74,24.74,0,0,1,1.49,7.53C993,991.89,989.2,999.76,982.26,1002.36ZM1038,888.13c9-3.35,19.48,2.75,23.46,13.62a25.1,25.1,0,0,1,1.49,7.53c1.07,8.39-2.68,16.27-9.63,18.86a14.34,14.34,0,0,1-10.89-.49c-5.75-1.84-10.94-6.82-13.48-13.75C1025,903,1029.05,891.49,1038,888.13Zm-51,21.44a14.36,14.36,0,0,1-10.9-.49c-5.75-1.84-10.94-6.82-13.47-13.75-4-10.88.07-22.41,9.05-25.77s19.47,2.74,23.45,13.62a24.8,24.8,0,0,1,1.49,7.57C997.71,899.13,994,907,987,909.57ZM970,772.76c9-3.35,19.48,2.74,23.45,13.62a24.61,24.61,0,0,1,1.49,7.51c1.08,8.4-2.67,16.28-9.62,18.88a14.29,14.29,0,0,1-10.89-.5c-5.75-1.83-10.94-6.81-13.48-13.75C956.94,787.65,961,776.12,970,772.76Z"/><path class="cls-4" d="M796.91,1070.11c5,8.77,14.86,12.56,22,8.46l123.39-19.47a30.26,30.26,0,0,0,16.06-5.42c.32-.23.63-.47.94-.71a25,25,0,0,0,4.4-4.52c6-8,6.35-18.37,2.93-23.5L873.55,899.64c49.15,82.55,81.3,152,81.3,152-20.08-23.1-97.54-165.23-110.13-188.42-4.68-2.76-10.09-3.23-14.49-.71L706.85,882h0c-7.15,4.1-8.9,14.54-3.89,23.32ZM762.06,945.5a15.48,15.48,0,0,1-10.53-.26,24.6,24.6,0,0,1-14.76-11.56c-5.27-9.25-2.93-19.19,5.24-22.2s19.06,2,24.33,11.3a21.67,21.67,0,0,1,2.44,6.43C770.92,936.38,768.38,943.17,762.06,945.5Zm125.53,61.72c8.17-3,19.06,2,24.33,11.3a21.72,21.72,0,0,1,2.44,6.42c2.15,7.17-.4,14-6.71,16.29a15.5,15.5,0,0,1-10.52-.25,24.62,24.62,0,0,1-14.77-11.56C877.08,1020.17,879.43,1010.23,887.59,1007.22Z"/><path class="cls-3" d="M849.4,860.33q-4.24-6.69-8.61-13.42L843,860l1.73,3.2c12.59,23.19,90,165.32,110.13,188.42,0,0-32.15-69.44-81.3-152C865.89,886.78,857.82,873.61,849.4,860.33Z"/><path class="cls-5" d="M739.47,935c-4.9-8.59-2.72-17.82,4.86-20.61s17.7,1.9,22.6,10.48a21.2,21.2,0,0,1,1.85,4.33,21.67,21.67,0,0,0-2.44-6.43c-5.27-9.25-16.17-14.31-24.33-11.3s-10.51,12.95-5.24,22.2a24.6,24.6,0,0,0,14.76,11.56A23.07,23.07,0,0,1,739.47,935Z"/><path class="cls-6" d="M766.93,924.88c-4.9-8.58-15-13.28-22.6-10.48s-9.76,12-4.86,20.61a23.07,23.07,0,0,0,12.06,10.23,15.48,15.48,0,0,0,10.53.26c6.32-2.33,8.86-9.12,6.72-16.29A21.2,21.2,0,0,0,766.93,924.88Z"/><path class="cls-5" d="M897.13,1041a23.09,23.09,0,0,1-12.08-10.24c-4.89-8.59-2.72-17.82,4.86-20.61s17.7,1.9,22.6,10.49a20.81,20.81,0,0,1,1.85,4.32,21.72,21.72,0,0,0-2.44-6.42c-5.27-9.25-16.16-14.31-24.33-11.3s-10.51,12.95-5.23,22.2A24.62,24.62,0,0,0,897.13,1041Z"/><path class="cls-6" d="M889.91,1010.13c-7.58,2.79-9.75,12-4.86,20.61A23.09,23.09,0,0,0,897.13,1041a15.5,15.5,0,0,0,10.52.25c6.31-2.32,8.86-9.12,6.71-16.29a20.81,20.81,0,0,0-1.85-4.32C907.61,1012,897.5,1007.33,889.91,1010.13Z"/><path class="cls-5" d="M960.48,989.71c-3.7-10.1.06-20.82,8.4-23.93s18.09,2.55,21.78,12.65a22.81,22.81,0,0,1,1.22,5.07,24.74,24.74,0,0,0-1.49-7.53c-4-10.88-14.47-17-23.45-13.62s-13,14.89-9.05,25.76c2.53,6.92,7.71,11.9,13.45,13.74A20.93,20.93,0,0,1,960.48,989.71Z"/><path class="cls-6" d="M990.66,978.43c-3.69-10.1-13.45-15.76-21.78-12.65s-12.1,13.83-8.4,23.93a20.93,20.93,0,0,0,10.86,12.14,14.37,14.37,0,0,0,10.92.51c6.94-2.6,10.69-10.47,9.62-18.86A22.81,22.81,0,0,0,990.66,978.43Z"/><path class="cls-5" d="M1042.45,927.65a21,21,0,0,1-10.89-12.16c-3.69-10.09.07-20.81,8.4-23.92s18.09,2.54,21.78,12.64a23.55,23.55,0,0,1,1.23,5.07,25.1,25.1,0,0,0-1.49-7.53c-4-10.87-14.48-17-23.46-13.62s-13,14.9-9,25.77C1031.51,920.83,1036.7,925.81,1042.45,927.65Z"/><path class="cls-6" d="M1040,891.57c-8.33,3.11-12.09,13.83-8.4,23.92a21,21,0,0,0,10.89,12.16,14.34,14.34,0,0,0,10.89.49c7-2.59,10.7-10.47,9.63-18.86a23.55,23.55,0,0,0-1.23-5.07C1058.05,894.11,1048.3,888.45,1040,891.57Z"/><path class="cls-5" d="M892.85,875.06c-3.7-10.09.06-20.81,8.4-23.92s18.09,2.54,21.78,12.65a23,23,0,0,1,1.22,5.09,24.62,24.62,0,0,0-1.49-7.55c-4-10.88-14.48-17-23.45-13.62s-13,14.89-9,25.77c2.54,6.94,7.74,11.92,13.5,13.75A21,21,0,0,1,892.85,875.06Z"/><path class="cls-6" d="M923,863.79c-3.69-10.11-13.45-15.77-21.78-12.65s-12.1,13.83-8.4,23.92a21,21,0,0,0,10.91,12.17,14.31,14.31,0,0,0,10.86.49c6.94-2.6,10.69-10.45,9.63-18.84A23,23,0,0,0,923,863.79Z"/><path class="cls-5" d="M971.72,869.56c-9,3.36-13,14.89-9.05,25.77,2.53,6.93,7.72,11.91,13.47,13.75a21,21,0,0,1-10.89-12.16c-3.69-10.1.07-20.81,8.41-23.93s18.09,2.55,21.78,12.65a23.27,23.27,0,0,1,1.22,5.11,24.8,24.8,0,0,0-1.49-7.57C991.19,872.3,980.69,866.21,971.72,869.56Z"/><path class="cls-6" d="M973.66,873c-8.34,3.12-12.1,13.83-8.41,23.93a21,21,0,0,0,10.89,12.16,14.36,14.36,0,0,0,10.9.49c6.92-2.59,10.67-10.44,9.62-18.82a23.27,23.27,0,0,0-1.22-5.11C991.75,875.54,982,869.88,973.66,873Z"/><path class="cls-5" d="M960.92,798.52c2.54,6.94,7.73,11.92,13.48,13.75a21,21,0,0,1-10.89-12.15c-3.69-10.1.07-20.82,8.4-23.93s18.09,2.55,21.78,12.65a22.65,22.65,0,0,1,1.22,5,24.61,24.61,0,0,0-1.49-7.51c-4-10.88-14.48-17-23.45-13.62S956.94,787.65,960.92,798.52Z"/><path class="cls-6" d="M971.91,776.19c-8.33,3.11-12.09,13.83-8.4,23.93a21,21,0,0,0,10.89,12.15,14.29,14.29,0,0,0,10.89.5c7-2.6,10.7-10.48,9.62-18.88a22.65,22.65,0,0,0-1.22-5C990,778.74,980.25,773.08,971.91,776.19Z"/><path class="cls-5" d="M823.62,825.68c-7.65,1.86-13.82,1.83-16.24-.52-4.23-4.09,4.48-13.64,19.44-21.33s30.5-10.62,34.72-6.53a3.37,3.37,0,0,1,1.06,2.47,3.88,3.88,0,0,0-1-3.89c-4.55-4.4-21.29-1.26-37.4,7s-25.48,18.57-20.93,23C806.18,828.7,814.09,828.42,823.62,825.68Z"/><path class="cls-6" d="M861.54,797.3c-4.22-4.09-19.77-1.16-34.72,6.53s-23.67,17.24-19.44,21.33c2.42,2.35,8.59,2.38,16.24.52a86.33,86.33,0,0,0,18.49-7c12.46-6.41,20.58-14.11,20.49-18.86A3.37,3.37,0,0,0,861.54,797.3Z"/><path class="cls-7" d="M1554.16,954.78c-2.57-18.93,1-35.38,10-48.42-5.6,2.15-8.61,3.28-8.61,3.28l-41,3.29q20.75-11.11,41.85-22.12c-12.11-2.13-23.33-10.08-35.48-25.29L1194.35,485.88l0,0,81.86,408.3a179.75,179.75,0,0,0,25.71,58.09l39.65,53.73,245.1,332.1h0Zm-306-300.29c-3.2-11.93-1.76-20.08,3.1-23.48,4.22-5,12.74-4.57,23.85,2.28,19.14,11.8,38.71,38.31,43.7,59.21,1.32,5.54,1.47,10.11.64,13.64.68,15.08-9.39,19.86-25.46,10.26C1274.76,704.91,1254.25,677.2,1248.17,654.49Zm45.41,246.41c-2.34-9.92-.52-16.93,4.26-20.11,4.3-4.49,12.37-4.66,22.53.54,17.48,8.94,34.51,30.33,38,47.81.93,4.61.82,8.48-.16,11.52-.21,12.79-10,17.46-24.75,10.22C1315.91,942.21,1298.05,919.84,1293.58,900.9Zm125.57-21.26c-3.09-13.13-.68-22.4,5.64-26.6,5.67-5.91,16.33-6.13,29.75.73,23.1,11.8,45.6,40.09,50.26,63.17,1.23,6.09,1.09,11.2-.2,15.22-.28,16.93-13.28,23.09-32.72,13.53C1448.67,934.24,1425.05,904.67,1419.15,879.64Zm78.26,274.43c-21.62-9.3-42.94-34.67-47.63-56.64-2.45-11.51.15-19.81,6.29-23.78,5.58-5.47,15.71-6.06,28.22-.46,21.48,9.63,41.79,33.89,45.39,54.18.94,5.36.62,9.9-.75,13.52C1528.06,1155.92,1515.51,1161.86,1497.41,1154.07Z"/><path class="cls-8" d="M2272.5,557.5l-.89-.91c.5.77,1,1.56,1.46,2.35C2272.9,558.46,2272.72,558,2272.5,557.5Z"/><path class="cls-8" d="M1805.51,162.32,1226.32,419.8c-28.41,13.16-42.74,42.73-32,66l0,.05L1521,865.52c12.15,15.21,23.37,23.16,35.48,25.29,47-24.53,95.18-48.61,143.19-71.86l487-293.37c14.74-8.11,41.23-6.11,63.07,8.67L1982.85,261.36l-77.49-79.22C1880.85,147,1833.92,149.17,1805.51,162.32Zm-49.73,68.77c35.08-9.66,71.81,4.81,82,32.35a41.9,41.9,0,0,1,2,21.85c-.36,21-17.69,40.93-44.24,48.25-18.84,5.19-38.17,2.87-53-4.94-14.91-5.84-26.71-16.37-31.84-30.18C1700.56,270.89,1720.71,240.74,1755.78,231.09ZM1508.6,533.82c35.08-9.66,71.81,4.8,82,32.34a41.9,41.9,0,0,1,2,21.88c-.37,21-17.69,40.92-44.24,48.23-18.84,5.19-38.19,2.87-53-4.95-14.9-5.85-26.69-16.37-31.82-30.17C1453.38,573.62,1473.53,543.47,1508.6,533.82ZM1382.31,396.41c35.07-9.66,71.8,4.82,82,32.36a41.94,41.94,0,0,1,2,21.92c-.4,20.95-17.72,40.88-44.24,48.18-18.82,5.19-38.13,2.88-52.93-4.92-14.93-5.84-26.74-16.37-31.88-30.19C1327.09,436.24,1347.23,406.07,1382.31,396.41Zm292,373.31c-18.78,5.17-38,2.88-52.84-4.88-15-5.83-26.82-16.37-32-30.23-10.23-27.52,9.91-57.68,45-67.34s71.82,4.82,82,32.35a41.84,41.84,0,0,1,2,21.89C1718.21,742.47,1700.89,762.41,1674.35,769.72Zm247.54-298.79c-18.81,5.19-38.11,2.88-52.91-4.91-14.94-5.84-26.76-16.37-31.9-30.2-10.23-27.52,9.91-57.67,45-67.34s71.81,4.81,82,32.35a41.92,41.92,0,0,1,2,21.91C1965.74,443.7,1948.42,463.63,1921.89,470.93ZM2090,534.29a41.88,41.88,0,0,1,2,21.9c-.38,21-17.71,40.9-44.24,48.2-18.82,5.18-38.13,2.87-52.93-4.92-14.93-5.84-26.74-16.37-31.88-30.19-10.24-27.52,9.91-57.68,45-67.34S2079.81,506.75,2090,534.29Z"/><path class="cls-8" d="M2186.69,525.58,1699.65,819c287.52-139.23,569.7-248.78,569.7-248.78-122.11,111-632.57,308.45-705.16,336.19-9,13-12.6,29.49-10,48.42l32.47,383.28h0c10.73,23.29,42.45,31.52,70.86,18.36l622.74-291.94c28.41-13.16,36-37.13,32-66l-26.79-388.14c.42-21.09-4.46-38.08-12.38-51.37-.48-.79-1-1.58-1.46-2.35a77.81,77.81,0,0,0-21.85-22.34C2227.92,519.47,2201.43,517.47,2186.69,525.58Zm-449.48,478.6c-32.77,9.73-66.72-1.4-78.6-24.92a38.5,38.5,0,0,1-5.14-9.48c-9.07-24.5,9.7-52.12,41.89-61.68a77.89,77.89,0,0,1,28.54-3c26.76-.64,50.73,11.87,58.42,32.65C1792.07,964.16,1771.87,993.9,1737.21,1004.18Zm448.18,50.46c-32.77,9.72-66.74-1.41-78.61-24.94a38.77,38.77,0,0,1-5.14-9.47c-9.06-24.5,9.7-52.13,41.9-61.67a77.69,77.69,0,0,1,28.54-3c26.77-.63,50.73,11.88,58.42,32.65C2240.25,1014.61,2220.06,1044.35,2185.39,1054.64Z"/><path class="cls-7" d="M1555.58,909.64s3-1.13,8.61-3.28c72.59-27.74,583-225.17,705.16-336.19,0,0-282.18,109.55-569.7,248.78-48,23.25-96.17,47.33-143.19,71.86q-21.09,11-41.85,22.12Z"/><path class="cls-9" d="M1369.2,494c-10.83-5.7-19.24-14.33-23.26-25.13-9.49-25.57,9.21-53.57,41.78-62.54s66.69,4.48,76.18,30a39.09,39.09,0,0,1,2.47,14.37,41.94,41.94,0,0,0-2-21.92c-10.24-27.54-47-42-82-32.36s-55.22,39.83-45,67.35C1342.46,477.58,1354.27,488.11,1369.2,494Z"/><path class="cls-10" d="M1387.72,406.28c-32.57,9-51.27,37-41.78,62.54,4,10.8,12.43,19.43,23.26,25.13,14.8,7.8,34.11,10.11,52.93,4.92,26.52-7.3,43.84-27.23,44.24-48.18a39.09,39.09,0,0,0-2.47-14.37C1454.41,410.76,1420.3,397.3,1387.72,406.28Z"/><path class="cls-9" d="M1463.6,601.15c5.13,13.8,16.92,24.32,31.82,30.17-10.8-5.7-19.19-14.32-23.19-25.1-9.5-25.57,9.2-53.56,41.78-62.54s66.69,4.48,76.19,30.05a39,39,0,0,1,2.46,14.31,41.9,41.9,0,0,0-2-21.88c-10.23-27.54-47-42-82-32.34S1453.38,573.62,1463.6,601.15Z"/><path class="cls-10" d="M1514,543.68c-32.58,9-51.28,37-41.78,62.54,4,10.78,12.39,19.4,23.19,25.1,14.81,7.82,34.16,10.14,53,4.95C1575,629,1592.29,609,1592.66,588a39,39,0,0,0-2.46-14.31C1580.7,548.16,1546.59,534.71,1514,543.68Z"/><path class="cls-9" d="M1716.57,699.62c-10.23-27.53-47-42-82-32.35s-55.21,39.82-45,67.34c5.15,13.86,17,24.4,32,30.23-10.87-5.7-19.32-14.34-23.35-25.18-9.5-25.56,9.21-53.55,41.78-62.53s66.68,4.48,76.19,30a38.87,38.87,0,0,1,2.46,14.33A41.84,41.84,0,0,0,1716.57,699.62Z"/><path class="cls-10" d="M1639.94,677.13c-32.57,9-51.28,37-41.78,62.53,4,10.84,12.48,19.48,23.35,25.18,14.79,7.76,34.06,10,52.84,4.88,26.54-7.31,43.86-27.25,44.24-48.21a38.87,38.87,0,0,0-2.46-14.33C1706.62,681.61,1672.51,668.15,1639.94,677.13Z"/><path class="cls-9" d="M1723.9,905.12c21.48,1.81,39.82,12.89,46.18,30.07,9.06,24.51-9.7,52.14-41.9,61.69-27.72,8.21-56.35.36-69.57-17.62,11.88,23.52,45.83,34.65,78.6,24.92,34.66-10.28,54.86-40,45.11-66.41C1774.63,917,1750.66,904.48,1723.9,905.12Z"/><path class="cls-10" d="M1728.18,996.88c32.2-9.55,51-37.18,41.9-61.69-6.36-17.18-24.7-28.26-46.18-30.07a77.89,77.89,0,0,0-28.54,3c-32.19,9.56-51,37.18-41.89,61.68a38.5,38.5,0,0,0,5.14,9.48C1671.83,997.24,1700.46,1005.09,1728.18,996.88Z"/><path class="cls-8" d="M1504.6,932.16c-3.6,11.23-16.18,13.9-33.18,5.21-23.1-11.82-45.6-40.1-50.26-63.18-2-9.67-.46-16.89,3.63-21.15-6.32,4.2-8.73,13.47-5.64,26.6,5.9,25,29.52,54.6,52.73,66.05C1491.32,955.25,1504.32,949.09,1504.6,932.16Z"/><path class="cls-10" d="M1421.16,874.19c4.66,23.08,27.16,51.36,50.26,63.18,17,8.69,29.58,6,33.18-5.21,1.29-4,1.43-9.13.2-15.22-4.66-23.08-27.16-51.37-50.26-63.17-13.42-6.86-24.08-6.64-29.75-.73C1420.7,857.3,1419.21,864.52,1421.16,874.19Z"/><path class="cls-8" d="M1497.27,1146.7c-21.49-9.62-41.8-33.88-45.39-54.19-1.5-8.49.17-14.93,4.19-18.86-6.14,4-8.74,12.27-6.29,23.78,4.69,22,26,47.34,47.63,56.64,18.1,7.79,30.65,1.85,31.52-13.18C1525.11,1151,1513.09,1153.8,1497.27,1146.7Z"/><path class="cls-10" d="M1529.68,1127.37c-3.6-20.29-23.91-44.55-45.39-54.18-12.51-5.6-22.64-5-28.22.46-4,3.93-5.69,10.37-4.19,18.86,3.59,20.31,23.9,44.57,45.39,54.19,15.82,7.1,27.84,4.27,31.66-5.81C1530.3,1137.27,1530.62,1132.73,1529.68,1127.37Z"/><path class="cls-8" d="M1358.24,940.66c-2.73,8.49-12.24,10.5-25.1,3.94-17.48-9-34.51-30.36-38-47.81-1.48-7.32-.35-12.78,2.74-16-4.78,3.18-6.6,10.19-4.26,20.11,4.47,18.94,22.33,41.31,39.91,50C1348.19,958.12,1358,953.45,1358.24,940.66Z"/><path class="cls-10" d="M1295.1,896.79c3.53,17.45,20.56,38.86,38,47.81,12.86,6.56,22.37,4.55,25.1-3.94,1-3,1.09-6.91.16-11.52-3.52-17.48-20.55-38.87-38-47.81-10.16-5.2-18.23-5-22.53-.54C1294.75,884,1293.62,889.47,1295.1,896.79Z"/><path class="cls-8" d="M1319.46,706.14c-2.3,9.79-12.22,11.47-26.29,2.8-19.14-11.83-38.7-38.33-43.69-59.22-2.09-8.76-1.27-15.13,1.79-18.71-4.86,3.4-6.3,11.55-3.1,23.48,6.08,22.71,26.59,50.42,45.83,61.91C1310.07,726,1320.14,721.22,1319.46,706.14Z"/><path class="cls-10" d="M1249.48,649.72c5,20.89,24.55,47.39,43.69,59.22,14.07,8.67,24,7,26.29-2.8.83-3.53.68-8.1-.64-13.64-5-20.9-24.56-47.41-43.7-59.21-11.11-6.85-19.63-7.24-23.85-2.28C1248.21,634.59,1247.39,641,1249.48,649.72Z"/><path class="cls-9" d="M2172.08,955.57c21.49,1.81,39.83,12.89,46.18,30.08,9.07,24.5-9.69,52.13-41.9,61.67-27.73,8.22-56.37.37-69.58-17.62,11.87,23.53,45.84,34.66,78.61,24.94,34.67-10.29,54.86-40,45.11-66.42C2222.81,967.45,2198.85,954.94,2172.08,955.57Z"/><path class="cls-10" d="M2176.36,1047.32c32.21-9.54,51-37.17,41.9-61.67-6.35-17.19-24.69-28.27-46.18-30.08a77.69,77.69,0,0,0-28.54,3c-32.2,9.54-51,37.17-41.9,61.67a38.77,38.77,0,0,0,5.14,9.47C2120,1047.69,2148.63,1055.54,2176.36,1047.32Z"/><path class="cls-9" d="M1742.63,328.6c-10.81-5.7-19.21-14.32-23.21-25.11-9.5-25.57,9.21-53.56,41.78-62.54s66.67,4.48,76.19,30.05a39.08,39.08,0,0,1,2.46,14.29,41.9,41.9,0,0,0-2-21.85c-10.23-27.54-47-42-82-32.35s-55.22,39.8-45,67.33C1715.92,312.23,1727.72,322.76,1742.63,328.6Z"/><path class="cls-10" d="M1761.2,241c-32.57,9-51.28,37-41.78,62.54,4,10.79,12.4,19.41,23.21,25.11,14.81,7.81,34.14,10.13,53,4.94,26.55-7.32,43.88-27.28,44.24-48.25a39.08,39.08,0,0,0-2.46-14.29C1827.87,245.43,1793.77,232,1761.2,241Z"/><path class="cls-9" d="M1845.7,440.88c-9.5-25.57,9.21-53.55,41.78-62.54s66.68,4.48,76.19,30.05a39,39,0,0,1,2.46,14.35,41.92,41.92,0,0,0-2-21.91c-10.23-27.54-47-42-82-32.35s-55.22,39.82-45,67.34c5.14,13.83,17,24.36,31.9,30.2C1858.14,460.32,1849.72,451.69,1845.7,440.88Z"/><path class="cls-10" d="M1966.13,422.74a39,39,0,0,0-2.46-14.35c-9.51-25.57-43.62-39-76.19-30.05s-51.28,37-41.78,62.54c4,10.81,12.44,19.44,23.28,25.14,14.8,7.79,34.1,10.1,52.91,4.91C1948.42,463.63,1965.74,443.7,1966.13,422.74Z"/><path class="cls-9" d="M1963,569.28c5.14,13.82,17,24.35,31.88,30.19-10.83-5.7-19.24-14.33-23.26-25.13-9.49-25.57,9.2-53.57,41.78-62.54s66.68,4.48,76.18,30a39.2,39.2,0,0,1,2.47,14.35,41.88,41.88,0,0,0-2-21.9c-10.23-27.54-47-42-82-32.35S1952.78,541.76,1963,569.28Z"/><path class="cls-10" d="M2013.42,511.8c-32.58,9-51.27,37-41.78,62.54,4,10.8,12.43,19.43,23.26,25.13,14.8,7.79,34.11,10.1,52.93,4.92,26.53-7.3,43.86-27.24,44.24-48.2a39.2,39.2,0,0,0-2.47-14.35C2080.1,516.28,2046,502.83,2013.42,511.8Z"/><path class="cls-11" d="M865.71,1337.38,400.58,1280.6h0l303.78,244.59c15,4.68,25.33,18.32,28.83,35.34,2.38-7.19,3.69-11.1,3.69-11.1l25.41-34q-6.22,24.94-12.65,49.58c12.43-11.68,28.39-16.85,43.2-12.23l501.21,6.24L1042.9,1421.3l-117-64.14A172.73,172.73,0,0,0,865.71,1337.38Zm-233.59,41c-5.85,5.81-24.73,4.76-47-3.35A140.34,140.34,0,0,1,555.08,1360c-14.25-8.8-23.58-18.46-23.41-25.51.3-11.06,23.85-11.52,52.62-1s51.84,27.94,51.56,39A7,7,0,0,1,632.12,1378.36Zm485.4,135.41a7,7,0,0,1-3.73,6c-5.84,5.81-24.72,4.76-47-3.34a140.36,140.36,0,0,1-30.12-15.12c-14.21-8.78-23.52-18.42-23.35-25.47.3-11.06,23.85-11.52,52.62-1S1117.8,1502.7,1117.52,1513.77ZM837,1516.85c-5.82,5.83-24.72,4.79-47-3.33a140.47,140.47,0,0,1-30.28-15.21c-14.12-8.76-23.36-18.36-23.19-25.38.3-11.06,23.85-11.52,52.62-1s51.84,27.94,51.55,39A7,7,0,0,1,837,1516.85Zm71.35-109.39c-5.87,5.78-24.73,4.72-46.95-3.37A140,140,0,0,1,831.28,1389c-14.19-8.77-23.48-18.41-23.3-25.44.29-11.06,23.85-11.53,52.61-1s51.84,27.94,51.56,39A7,7,0,0,1,908.39,1407.46Z"/><path class="cls-12" d="M792.84,1552.77c-14.81-4.62-30.77.55-43.2,12.23-77.47,297.47-173.6,555.76-205.88,639.59-4.15,16.82-9.13,32.66-19.44,35.9l554.48,13.72c24.44,7.62,52-11.37,61.63-42.4L1320.89,1629c9.6-31-2.41-62.36-26.84-70Zm15.28,593.53a81.53,81.53,0,0,1-14.2,20.23c-17,20.94-42.88,29.49-63.38,19-10.53-5.36-17.92-14.87-21.74-26.4-7.89-17.47-7.37-40.59,3.21-61.82,16.58-33.28,51.52-49.3,78.07-35.78S824.7,2113,808.12,2146.3ZM865.86,1939a81.67,81.67,0,0,1-14.13,20.15c-17,21-42.92,29.58-63.45,19.13-10.5-5.35-17.88-14.82-21.71-26.31-7.93-17.48-7.43-40.64,3.17-61.91,16.58-33.28,51.53-49.3,78.08-35.78S882.43,1905.76,865.86,1939Zm63-203.42a81.68,81.68,0,0,1-14,20.05c-17,21.08-43,29.71-63.54,19.24-10.52-5.36-17.9-14.86-21.72-26.38-7.91-17.47-7.4-40.61,3.18-61.86,16.59-33.28,51.53-49.3,78.07-35.78S945.41,1702.33,928.83,1735.61Zm127.58,424.91a81.68,81.68,0,0,1-14,20.05c-17,21.08-43,29.71-63.54,19.24-10.52-5.36-17.9-14.85-21.73-26.37-7.91-17.48-7.4-40.62,3.18-61.87,16.59-33.28,51.53-49.3,78.08-35.78S1073,2127.24,1056.41,2160.52Zm53.7-194.22a81.89,81.89,0,0,1-14.14,20.17c-17,21-42.91,29.56-63.43,19.11-10.53-5.37-17.92-14.87-21.74-26.39-7.9-17.48-7.38-40.6,3.2-61.84,16.58-33.28,51.53-49.3,78.07-35.78S1126.68,1933,1110.11,1966.3Zm67.83-219.07a81.54,81.54,0,0,1-14.16,20.19c-17,21-42.9,29.54-63.42,19.09-10.53-5.36-17.91-14.86-21.74-26.39-7.89-17.47-7.37-40.6,3.2-61.83,16.58-33.29,51.54-49.31,78.08-35.78S1194.51,1714,1177.94,1747.23Z"/><path class="cls-13" d="M543.76,2204.59c-7.15,18.54-11.17,28.56-11.17,28.56,10.78-97.82,173.9-592.15,200.6-672.62-3.5-17-13.82-30.66-28.83-35.34L400.58,1280.6h0c-24.44-7.62-52,11.37-61.64,42.4L158.49,1905.82c-9.61,31,2.4,62.36,26.84,70l47.58,38.31,256.2,206.29c16.24,17.65,27.3,22.59,35.21,20.1C534.63,2237.25,539.61,2221.41,543.76,2204.59Zm-166.55-460c10.13-32.71,37.83-49.18,61.88-36.8s35.33,48.94,25.19,81.64a71.62,71.62,0,0,1-9.6,19.93c-11.92,20.81-32.86,29.83-51.45,20.25-9.55-4.93-16.93-14-21.52-25.06C373,1787.82,370.75,1765.42,377.21,1744.58ZM344.89,1464.5c10.13-32.72,37.83-49.18,61.88-36.79s35.34,48.92,25.21,81.64a72.09,72.09,0,0,1-9.58,19.9c-11.92,20.83-32.87,29.86-51.47,20.28-9.55-4.92-16.92-14-21.51-25C340.7,1507.78,338.43,1485.36,344.89,1464.5Zm112.39,635.67c-9.52-4.9-16.88-13.89-21.47-24.94-8.76-16.73-11.05-39.18-4.58-60.08,10.13-32.72,37.83-49.18,61.88-36.79s35.34,48.92,25.21,81.64a72.15,72.15,0,0,1-9.56,19.87C496.84,2100.72,475.89,2109.75,457.28,2100.17Z"/><path class="cls-11" d="M532.59,2233.15s4-10,11.17-28.56C576,2120.76,672.17,1862.47,749.64,1565q6.42-24.62,12.65-49.58l-25.41,34s-1.31,3.91-3.69,11.1C706.49,1641,543.37,2135.33,532.59,2233.15Z"/><path class="cls-14" d="M347.52,1473.7c9.41-30.37,35.13-45.67,57.47-34.16s32.81,45.44,23.41,75.81a69,69,0,0,1-6,13.9,72.09,72.09,0,0,0,9.58-19.9c10.13-32.72-1.17-69.26-25.21-81.64s-51.75,4.07-61.88,36.79c-6.46,20.86-4.19,43.28,4.53,60C343.28,1509.65,342.13,1491.09,347.52,1473.7Z"/><path class="cls-15" d="M405,1439.54c-22.34-11.51-48.06,3.79-57.47,34.16-5.39,17.39-4.24,36,1.9,50.8,4.59,11.08,12,20.11,21.51,25,18.6,9.58,39.55.55,51.47-20.28a69,69,0,0,0,6-13.9C437.8,1485,427.32,1451.05,405,1439.54Z"/><path class="cls-14" d="M379.82,1753.77c9.4-30.38,35.14-45.67,57.47-34.16s32.81,45.45,23.41,75.81a69.34,69.34,0,0,1-6,13.93,71.62,71.62,0,0,0,9.6-19.93c10.14-32.7-1.15-69.26-25.19-81.64s-51.75,4.09-61.88,36.8c-6.46,20.84-4.2,43.24,4.5,60C375.58,1789.69,374.44,1771.15,379.82,1753.77Z"/><path class="cls-15" d="M403.23,1829.6c18.59,9.58,39.53.56,51.45-20.25a69.34,69.34,0,0,0,6-13.93c9.4-30.36-1.08-64.3-23.41-75.81s-48.07,3.78-57.47,34.16c-5.38,17.38-4.24,35.92,1.89,50.77C386.3,1815.64,393.68,1824.67,403.23,1829.6Z"/><path class="cls-14" d="M433.87,2024.35c9.4-30.37,35.12-45.66,57.46-34.17s32.82,45.46,23.41,75.82a69.29,69.29,0,0,1-6,13.87,72.15,72.15,0,0,0,9.56-19.87c10.13-32.72-1.16-69.26-25.21-81.64s-51.75,4.07-61.88,36.79c-6.47,20.9-4.18,43.35,4.58,60.08C429.63,2060.37,428.47,2041.77,433.87,2024.35Z"/><path class="cls-15" d="M514.74,2066c9.41-30.36-1.08-64.32-23.41-75.82s-48.06,3.8-57.46,34.17c-5.4,17.42-4.24,36,1.94,50.88,4.59,11.05,11.95,20,21.47,24.94,18.61,9.58,39.56.55,51.48-20.3A69.29,69.29,0,0,0,514.74,2066Z"/><path class="cls-14" d="M790.08,2061.58c-26.55-13.52-61.49,2.5-78.07,35.78-10.58,21.23-11.1,44.35-3.21,61.82-5.13-15.46-3.83-34.58,5-52.28,15.4-30.91,47.84-45.79,72.5-33.24s32.15,47.77,16.76,78.68a77.29,77.29,0,0,1-9.13,14.19,81.53,81.53,0,0,0,14.2-20.23C824.7,2113,816.63,2075.09,790.08,2061.58Z"/><path class="cls-15" d="M786.29,2073.66c-24.66-12.55-57.1,2.33-72.5,33.24-8.82,17.7-10.12,36.82-5,52.28,3.82,11.53,11.21,21,21.74,26.4,20.5,10.44,46.38,1.89,63.38-19a77.29,77.29,0,0,0,9.13-14.19C818.44,2121.43,810.94,2086.22,786.29,2073.66Z"/><path class="cls-14" d="M1038.37,2075.79c-26.55-13.52-61.49,2.5-78.08,35.78-10.58,21.25-11.09,44.39-3.18,61.87-5.14-15.47-3.85-34.59,5-52.31,15.39-30.9,47.85-45.79,72.51-33.24s32.15,47.78,16.75,78.69a76.84,76.84,0,0,1-9,14,81.68,81.68,0,0,0,14-20.05C1073,2127.24,1064.91,2089.3,1038.37,2075.79Z"/><path class="cls-15" d="M1034.59,2087.89c-24.66-12.55-57.12,2.34-72.51,33.24-8.82,17.72-10.11,36.84-5,52.31,3.83,11.52,11.21,21,21.73,26.37,20.56,10.47,46.54,1.84,63.54-19.24a76.84,76.84,0,0,0,9-14C1066.74,2135.67,1059.24,2100.45,1034.59,2087.89Z"/><path class="cls-14" d="M910.79,1650.88c-26.54-13.52-61.48,2.5-78.07,35.78-10.58,21.25-11.09,44.39-3.18,61.86-5.14-15.46-3.85-34.59,5-52.3,15.4-30.9,47.86-45.79,72.51-33.23s32.15,47.78,16.76,78.68a76.88,76.88,0,0,1-9,14,81.68,81.68,0,0,0,14-20.05C945.41,1702.33,937.34,1664.39,910.79,1650.88Z"/><path class="cls-15" d="M907,1663c-24.65-12.56-57.11,2.33-72.51,33.23-8.81,17.71-10.1,36.84-5,52.3,3.82,11.52,11.2,21,21.72,26.38,20.56,10.47,46.55,1.84,63.54-19.24a76.88,76.88,0,0,0,9-14C939.16,1710.77,931.67,1675.54,907,1663Z"/><path class="cls-14" d="M847.82,1854.31c-26.55-13.52-61.5,2.5-78.08,35.78-10.6,21.27-11.1,44.43-3.17,61.91-5.16-15.48-3.88-34.63,4.95-52.37,15.4-30.9,47.86-45.79,72.51-33.23s32.15,47.78,16.76,78.68a76.94,76.94,0,0,1-9.06,14.1A81.67,81.67,0,0,0,865.86,1939C882.43,1905.76,874.36,1867.82,847.82,1854.31Z"/><path class="cls-15" d="M844,1866.4c-24.65-12.56-57.11,2.33-72.51,33.23-8.83,17.74-10.11,36.89-4.95,52.37,3.83,11.49,11.21,21,21.71,26.31,20.53,10.45,46.46,1.87,63.45-19.13a76.94,76.94,0,0,0,9.06-14.1C876.18,1914.18,868.69,1879,844,1866.4Z"/><path class="cls-14" d="M1159.9,1662.51c-26.54-13.53-61.5,2.49-78.08,35.78-10.57,21.23-11.09,44.36-3.2,61.83-5.13-15.47-3.83-34.58,5-52.29,15.4-30.91,47.85-45.79,72.5-33.23s32.15,47.77,16.76,78.68a77.4,77.4,0,0,1-9.09,14.14,81.54,81.54,0,0,0,14.16-20.19C1194.51,1714,1186.45,1676,1159.9,1662.51Z"/><path class="cls-15" d="M1156.11,1674.6c-24.65-12.56-57.1,2.32-72.5,33.23-8.82,17.71-10.12,36.82-5,52.29,3.83,11.53,11.21,21,21.74,26.39,20.52,10.45,46.43,1.88,63.42-19.09a77.4,77.4,0,0,0,9.09-14.14C1188.26,1722.37,1180.77,1687.15,1156.11,1674.6Z"/><path class="cls-14" d="M1092.07,1881.57c-26.54-13.52-61.49,2.5-78.07,35.78-10.58,21.24-11.1,44.36-3.2,61.84-5.13-15.47-3.84-34.58,5-52.29,15.4-30.91,47.85-45.79,72.5-33.24s32.15,47.77,16.76,78.68a76.89,76.89,0,0,1-9.07,14.13,81.89,81.89,0,0,0,14.14-20.17C1126.68,1933,1118.62,1895.08,1092.07,1881.57Z"/><path class="cls-15" d="M1088.28,1893.66c-24.65-12.55-57.1,2.33-72.5,33.24-8.82,17.71-10.11,36.82-5,52.29,3.82,11.52,11.21,21,21.74,26.39,20.52,10.45,46.43,1.88,63.43-19.11a76.89,76.89,0,0,0,9.07-14.13C1120.43,1941.43,1112.94,1906.22,1088.28,1893.66Z"/><path class="cls-14" d="M584.29,1333.4c-28.77-10.48-52.32-10-52.62,1-.17,7,9.16,16.71,23.41,25.51-11-7.45-18-15.28-17.81-21.16.28-10.27,22.15-10.7,48.86-1s48.14,26,47.88,36.22a6.12,6.12,0,0,1-1.89,4.32,7,7,0,0,0,3.73-5.95C636.13,1361.34,613.05,1343.88,584.29,1333.4Z"/><path class="cls-15" d="M634,1374c.26-10.27-21.17-26.48-47.88-36.22s-48.58-9.3-48.86,1c-.15,5.88,6.82,13.71,17.81,21.16A140.34,140.34,0,0,0,585.15,1375c22.24,8.11,41.12,9.16,47,3.35A6.12,6.12,0,0,0,634,1374Z"/><path class="cls-14" d="M860.59,1362.47c-28.76-10.49-52.32-10-52.61,1-.18,7,9.11,16.67,23.3,25.44-10.94-7.42-17.87-15.22-17.71-21.09.27-10.27,22.15-10.7,48.85-1s48.14,26,47.88,36.23a6.14,6.14,0,0,1-1.91,4.34,7,7,0,0,0,3.76-6C912.43,1390.41,889.36,1373,860.59,1362.47Z"/><path class="cls-15" d="M910.3,1403.12c.26-10.27-21.16-26.49-47.88-36.23s-48.58-9.3-48.85,1c-.16,5.87,6.77,13.67,17.71,21.09a140,140,0,0,0,30.16,15.14c22.22,8.09,41.08,9.15,46.95,3.37A6.14,6.14,0,0,0,910.3,1403.12Z"/><path class="cls-14" d="M789.19,1471.89c-28.77-10.48-52.32-10-52.62,1-.17,7,9.07,16.62,23.19,25.38-10.87-7.41-17.74-15.18-17.59-21,.28-10.27,22.15-10.69,48.86-1s48.14,26,47.87,36.23a6.14,6.14,0,0,1-1.86,4.3,7,7,0,0,0,3.7-5.95C841,1499.83,818,1482.38,789.19,1471.89Z"/><path class="cls-15" d="M838.9,1512.55c.27-10.28-21.16-26.48-47.87-36.23s-48.58-9.3-48.86,1c-.15,5.84,6.72,13.61,17.59,21A140.47,140.47,0,0,0,790,1513.52c22.28,8.12,41.18,9.16,47,3.33A6.14,6.14,0,0,0,838.9,1512.55Z"/><path class="cls-14" d="M1013.34,1475.8c-.17,7,9.14,16.69,23.35,25.47-11-7.43-17.9-15.24-17.75-21.11.28-10.27,22.15-10.71,48.86-1s48.14,26,47.87,36.23a6.06,6.06,0,0,1-1.88,4.31,7,7,0,0,0,3.73-6c.28-11.07-22.8-28.52-51.56-39S1013.64,1464.74,1013.34,1475.8Z"/><path class="cls-15" d="M1115.67,1515.42c.27-10.28-21.16-26.49-47.87-36.23s-48.58-9.3-48.86,1c-.15,5.87,6.79,13.68,17.75,21.11a140.36,140.36,0,0,0,30.12,15.12c22.26,8.1,41.14,9.15,47,3.34A6.06,6.06,0,0,0,1115.67,1515.42Z"/><path class="cls-8" d="M1713.11,1879.36l-4.57-3.38-11.87-16.91q10.57,6.65,21,13.33c-3.52-7.52-3.51-15.71.85-21.89l78.2-231.71-148.41,140.54a84.49,84.49,0,0,0-18.17,25L1534,1991.68l158.46-104.25C1696.89,1881.17,1704.73,1878.43,1713.11,1879.36ZM1605.3,1920.2a69.1,69.1,0,0,1-11.38,11.61c-6.23,5.34-12.13,8.26-15.37,7.11-5.06-1.8-1.73-12.8,7.43-24.58s20.67-19.86,25.74-18.07a3.43,3.43,0,0,1,2.17,2.64C1615.69,1902.5,1612.38,1911.09,1605.3,1920.2ZM1723.56,1712c9.15-11.77,20.67-19.86,25.74-18.07a3.41,3.41,0,0,1,2.17,2.64c1.8,3.59-1.51,12.18-8.59,21.29a68.71,68.71,0,0,1-11.41,11.64c-6.22,5.32-12.1,8.23-15.34,7.08C1711.07,1734.79,1714.4,1723.79,1723.56,1712Zm-63.33,84.31a68.61,68.61,0,0,1-11.44,11.66c-6.21,5.31-12.08,8.2-15.31,7.06-5-1.8-1.73-12.8,7.43-24.58s20.67-19.86,25.74-18.07a3.42,3.42,0,0,1,2.18,2.66C1670.61,1778.65,1667.3,1787.22,1660.23,1796.32Zm13,68.31c-5-1.8-1.73-12.81,7.43-24.58s20.68-19.86,25.74-18.07a3.39,3.39,0,0,1,2.17,2.63c1.81,3.58-1.49,12.18-8.58,21.3a68.61,68.61,0,0,1-11.51,11.72C1682.28,1862.9,1676.43,1865.77,1673.21,1864.63Z"/><path class="cls-7" d="M2074.67,1788.21,1833,1616.86c-12.87-9.12-29.12-8.26-36.31,1.94l-78.2,231.71c-4.36,6.18-4.37,14.37-.85,21.89,125.55,80.67,230.23,164.1,264,191.68,7.14,4.45,13.69,9.14,13.64,14.41l89.66-255.3C2092.15,1813,2087.54,1797.33,2074.67,1788.21Zm-245,68.56a21.54,21.54,0,0,1-15.42,6.12c-9.25,1-19.85-2.67-28-10.77-12.86-12.7-15-31.33-4.78-41.62s28.94-8.33,41.79,4.36a39.46,39.46,0,0,1,7.14,9.53C1837.56,1835.44,1837.63,1848.8,1829.71,1856.77Zm-.68-118.53c-12.86-12.7-15-31.33-4.77-41.62s28.93-8.33,41.79,4.36a39.58,39.58,0,0,1,7.18,9.61c7.12,11,7.18,24.35-.72,32.3a21.59,21.59,0,0,1-15.44,6.13C1847.82,1750.06,1837.24,1746.34,1829,1738.24Zm85,178.33a21.56,21.56,0,0,1-15.39,6.13c-9.26,1-19.86-2.66-28.08-10.78-12.86-12.7-15-31.32-4.77-41.62s28.93-8.33,41.78,4.36a39.67,39.67,0,0,1,7.18,9.59C1921.91,1895.29,1922,1908.62,1914.06,1916.57Zm5.81-113.93c-12.86-12.7-15-31.32-4.77-41.61s28.93-8.34,41.79,4.36a39.74,39.74,0,0,1,7.18,9.59c7.12,11,7.18,24.36-.72,32.32a21.58,21.58,0,0,1-15.44,6.12C1938.66,1814.46,1928.08,1810.74,1919.87,1802.64ZM2001,1974.52a21.59,21.59,0,0,1-15.44,6.13c-9.25,1-19.83-2.68-28-10.78-12.86-12.7-15-31.33-4.77-41.62s28.93-8.34,41.78,4.36a39.7,39.7,0,0,1,7.2,9.63C2008.82,1953.28,2008.87,1966.58,2001,1974.52Zm43.87-113.11a21.54,21.54,0,0,1-15.42,6.12c-9.25,1-19.85-2.67-28.06-10.77-12.85-12.7-15-31.33-4.77-41.62s28.93-8.33,41.79,4.36a39.46,39.46,0,0,1,7.14,9.53C2052.7,1840.08,2052.77,1853.44,2044.85,1861.41Z"/><path class="cls-7" d="M1981.67,2064.08c7.48,6.1,11.5,9.47,11.5,9.47-43.49-19.7-247-169.7-280.06-194.19-8.38-.93-16.22,1.81-20.63,8.07L1534,1991.68c-7.19,10.2-2.58,25.86,10.29,35L1786,2198c12.86,9.12,29.12,8.25,36.3-2l158.46-104.24c10.58-4.89,14.52-9.28,14.56-13.33C1995.36,2073.22,1988.81,2068.53,1981.67,2064.08Zm-328.08-18.22c-3.71,3.7-9,5.75-14.82,6.21-9,1.53-19.67-.78-28.31-6.91-13.56-9.61-17-25-7.67-34.25s27.88-9.05,41.44.57a34.63,34.63,0,0,1,7.74,7.44C1659.79,2027.58,1660.8,2038.66,1653.59,2045.86Zm134,27.09c-3.71,3.71-9,5.77-14.83,6.22-9,1.51-19.66-.8-28.29-6.92-13.56-9.61-17-25-7.67-34.25s27.88-9,41.44.58A34.71,34.71,0,0,1,1786,2046C1793.81,2054.69,1794.82,2065.76,1787.61,2073Zm132.91,15.57c-3.7,3.7-9,5.75-14.77,6.22-9,1.54-19.7-.77-28.36-6.9-13.56-9.62-17-25-7.66-34.25s27.87-9.05,41.44.57a34.72,34.72,0,0,1,7.73,7.42C1926.72,2070.24,1927.74,2081.33,1920.52,2088.52Z"/><path class="cls-8" d="M1708.54,1876l4.57,3.38c33.1,24.49,236.57,174.49,280.06,194.19,0,0-4-3.37-11.5-9.47-33.8-27.58-138.48-111-264-191.68q-10.4-6.68-21-13.33Z"/><path class="cls-16" d="M1615.1,2045.33c-12.59-8.93-15.78-23.17-7.12-31.81s25.89-8.4,38.49.52a34,34,0,0,1,5.5,4.88,34.63,34.63,0,0,0-7.74-7.44c-13.56-9.62-32.11-9.87-41.44-.57s-5.89,24.64,7.67,34.25c8.64,6.13,19.3,8.44,28.31,6.91A36.79,36.79,0,0,1,1615.1,2045.33Z"/><path class="cls-17" d="M1646.47,2014c-12.6-8.92-29.82-9.16-38.49-.52s-5.47,22.88,7.12,31.81a36.79,36.79,0,0,0,23.67,6.74c5.82-.46,11.11-2.51,14.82-6.21,7.21-7.2,6.2-18.28-1.62-26.94A34,34,0,0,0,1646.47,2014Z"/><path class="cls-16" d="M1749.12,2072.42c-12.59-8.93-15.78-23.17-7.11-31.81s25.88-8.4,38.48.53A33.33,33.33,0,0,1,1786,2046a34.71,34.71,0,0,0-7.75-7.45c-13.56-9.62-32.12-9.87-41.44-.58s-5.89,24.64,7.67,34.25c8.63,6.12,19.28,8.43,28.29,6.92A36.77,36.77,0,0,1,1749.12,2072.42Z"/><path class="cls-17" d="M1780.49,2041.14c-12.6-8.93-29.82-9.16-38.48-.53s-5.48,22.88,7.11,31.81a36.77,36.77,0,0,0,23.66,6.75c5.82-.45,11.12-2.51,14.83-6.22,7.21-7.19,6.2-18.26-1.6-26.92A33.33,33.33,0,0,0,1780.49,2041.14Z"/><path class="cls-16" d="M1882,2088c-12.6-8.93-15.79-23.16-7.13-31.81s25.9-8.4,38.49.53a33.91,33.91,0,0,1,5.5,4.86,34.72,34.72,0,0,0-7.73-7.42c-13.57-9.62-32.12-9.87-41.44-.57s-5.9,24.63,7.66,34.25c8.66,6.13,19.33,8.44,28.36,6.9A36.77,36.77,0,0,1,1882,2088Z"/><path class="cls-17" d="M1913.4,2056.72c-12.59-8.93-29.83-9.17-38.49-.53s-5.47,22.88,7.13,31.81a36.77,36.77,0,0,0,23.71,6.74c5.8-.47,11.07-2.52,14.77-6.22,7.22-7.19,6.2-18.28-1.62-26.94A33.91,33.91,0,0,0,1913.4,2056.72Z"/><path class="cls-16" d="M1962.17,1970.48c-11.94-11.8-13.92-29.09-4.43-38.65s26.86-7.75,38.81,4a37.88,37.88,0,0,1,5.17,6.37,39.7,39.7,0,0,0-7.2-9.63c-12.85-12.7-31.56-14.65-41.78-4.36s-8.09,28.92,4.77,41.62c8.2,8.1,18.78,11.81,28,10.78C1977.63,1980.7,1969,1977.23,1962.17,1970.48Z"/><path class="cls-17" d="M1996.55,1935.87c-12-11.79-29.32-13.6-38.81-4s-7.51,26.85,4.43,38.65c6.84,6.75,15.46,10.22,23.37,10.17a21.59,21.59,0,0,0,15.44-6.13c7.89-7.94,7.84-21.24.74-32.28A37.88,37.88,0,0,0,1996.55,1935.87Z"/><path class="cls-16" d="M2006.05,1857.36c-11.94-11.78-13.93-29.09-4.43-38.64s26.86-7.75,38.8,4a37.83,37.83,0,0,1,5.11,6.27,39.46,39.46,0,0,0-7.14-9.53c-12.86-12.69-31.57-14.65-41.79-4.36s-8.08,28.92,4.77,41.62c8.21,8.1,18.81,11.82,28.06,10.77C2021.52,1867.59,2012.89,1864.12,2006.05,1857.36Z"/><path class="cls-17" d="M2040.42,1822.76c-11.94-11.79-29.31-13.6-38.8-4s-7.51,26.86,4.43,38.64c6.84,6.76,15.47,10.23,23.38,10.17a21.54,21.54,0,0,0,15.42-6.12c7.92-8,7.85-21.33.68-32.38A37.83,37.83,0,0,0,2040.42,1822.76Z"/><path class="cls-16" d="M1790.91,1852.73c-11.94-11.79-13.92-29.1-4.43-38.65s26.87-7.75,38.81,4a37.27,37.27,0,0,1,5.1,6.27,39.46,39.46,0,0,0-7.14-9.53c-12.85-12.69-31.57-14.65-41.79-4.36s-8.08,28.92,4.78,41.62c8.2,8.1,18.8,11.82,28,10.77C1806.38,1863,1797.75,1859.48,1790.91,1852.73Z"/><path class="cls-17" d="M1825.29,1818.12c-11.94-11.79-29.32-13.6-38.81-4s-7.51,26.86,4.43,38.65c6.84,6.75,15.47,10.22,23.38,10.16a21.54,21.54,0,0,0,15.42-6.12c7.92-8,7.85-21.33.68-32.38A37.27,37.27,0,0,0,1825.29,1818.12Z"/><path class="cls-16" d="M1875.26,1912.53c-11.94-11.79-13.93-29.1-4.43-38.65s26.86-7.74,38.8,4a38,38,0,0,1,5.15,6.33,39.67,39.67,0,0,0-7.18-9.59c-12.85-12.69-31.56-14.65-41.78-4.36s-8.09,28.92,4.77,41.62c8.22,8.12,18.82,11.83,28.08,10.78C1890.75,1922.76,1882.11,1919.29,1875.26,1912.53Z"/><path class="cls-17" d="M1909.63,1877.92c-11.94-11.78-29.31-13.6-38.8-4s-7.51,26.86,4.43,38.65c6.85,6.76,15.49,10.23,23.41,10.17a21.56,21.56,0,0,0,15.39-6.13c7.91-8,7.85-21.28.72-32.32A38,38,0,0,0,1909.63,1877.92Z"/><path class="cls-16" d="M1833.7,1738.85c-11.94-11.8-13.93-29.09-4.43-38.65s26.86-7.75,38.81,4a37.71,37.71,0,0,1,5.15,6.35,39.58,39.58,0,0,0-7.18-9.61c-12.86-12.69-31.56-14.65-41.79-4.36s-8.09,28.92,4.77,41.62c8.21,8.1,18.79,11.82,28,10.78C1849.16,1749.07,1840.54,1745.6,1833.7,1738.85Z"/><path class="cls-17" d="M1829.27,1700.2c-9.5,9.56-7.51,26.85,4.43,38.65,6.84,6.75,15.46,10.22,23.37,10.17a21.59,21.59,0,0,0,15.44-6.13c7.9-8,7.84-21.26.72-32.3a37.71,37.71,0,0,0-5.15-6.35C1856.13,1692.45,1838.76,1690.64,1829.27,1700.2Z"/><path class="cls-16" d="M1924.54,1803.25c-11.94-11.79-13.93-29.09-4.43-38.65s26.86-7.74,38.8,4.05a37.56,37.56,0,0,1,5.16,6.33,39.74,39.74,0,0,0-7.18-9.59c-12.86-12.7-31.57-14.66-41.79-4.36s-8.09,28.91,4.77,41.61c8.21,8.1,18.79,11.82,28,10.78C1940,1813.48,1931.38,1810,1924.54,1803.25Z"/><path class="cls-17" d="M1920.11,1764.6c-9.5,9.56-7.51,26.86,4.43,38.65,6.84,6.76,15.46,10.23,23.37,10.17a21.58,21.58,0,0,0,15.44-6.12c7.9-8,7.84-21.27.72-32.32a37.56,37.56,0,0,0-5.16-6.33C1947,1756.86,1929.6,1755,1920.11,1764.6Z"/><path class="cls-16" d="M1581.4,1937c-4.7-1.67-1.61-11.88,6.89-22.82s19.21-18.44,23.9-16.78a3,3,0,0,1,1.7,1.54,3.43,3.43,0,0,0-2.17-2.64c-5.07-1.79-16.59,6.3-25.74,18.07s-12.49,22.78-7.43,24.58c3.24,1.15,9.14-1.77,15.37-7.11C1588.8,1935.84,1584.1,1937.94,1581.4,1937Z"/><path class="cls-17" d="M1612.19,1897.37c-4.69-1.66-15.39,5.85-23.9,16.78s-11.59,21.15-6.89,22.82c2.7,1,7.4-1.13,12.52-5.16a69.1,69.1,0,0,0,11.38-11.61c7.08-9.11,10.39-17.7,8.59-21.29A3,3,0,0,0,1612.19,1897.37Z"/><path class="cls-16" d="M1636.33,1813.1c-4.7-1.67-1.61-11.89,6.89-22.82s19.21-18.45,23.9-16.78a3,3,0,0,1,1.71,1.55,3.42,3.42,0,0,0-2.18-2.66c-5.07-1.79-16.59,6.3-25.74,18.07s-12.48,22.78-7.43,24.58c3.23,1.14,9.1-1.75,15.31-7.06C1643.69,1812,1639,1814.06,1636.33,1813.1Z"/><path class="cls-17" d="M1667.12,1773.5c-4.69-1.67-15.39,5.84-23.9,16.78s-11.59,21.15-6.89,22.82c2.69,1,7.36-1.12,12.46-5.12a68.61,68.61,0,0,0,11.44-11.66c7.07-9.1,10.38-17.67,8.6-21.27A3,3,0,0,0,1667.12,1773.5Z"/><path class="cls-16" d="M1676.06,1862.68c-4.69-1.67-1.6-11.88,6.9-22.82s19.2-18.45,23.9-16.78a3,3,0,0,1,1.69,1.53,3.39,3.39,0,0,0-2.17-2.63c-5.06-1.79-16.58,6.29-25.74,18.07s-12.48,22.78-7.43,24.58c3.22,1.14,9.07-1.73,15.25-7C1683.39,1861.59,1678.75,1863.64,1676.06,1862.68Z"/><path class="cls-17" d="M1706.86,1823.08c-4.7-1.67-15.39,5.85-23.9,16.78s-11.59,21.15-6.9,22.82c2.69,1,7.33-1.09,12.4-5a68.61,68.61,0,0,0,11.51-11.72c7.09-9.12,10.39-17.72,8.58-21.3A3,3,0,0,0,1706.86,1823.08Z"/><path class="cls-16" d="M1716.13,1736.59c3.24,1.15,9.12-1.76,15.34-7.08-5.11,4-9.79,6.1-12.49,5.14-4.69-1.67-1.61-11.89,6.9-22.83s19.2-18.44,23.9-16.77a3,3,0,0,1,1.69,1.53,3.41,3.41,0,0,0-2.17-2.64c-5.07-1.79-16.59,6.3-25.74,18.07S1711.07,1734.79,1716.13,1736.59Z"/><path class="cls-17" d="M1749.78,1695.05c-4.7-1.67-15.4,5.84-23.9,16.77s-11.59,21.16-6.9,22.83c2.7,1,7.38-1.13,12.49-5.14a68.71,68.71,0,0,0,11.41-11.64c7.08-9.11,10.39-17.7,8.59-21.29A3,3,0,0,0,1749.78,1695.05Z"/><path class="cls-8" d="M2715.72,1029.94l1.71,2.26,3.31,9.71q-4.12-4.65-8.16-9.29c.64,4.08-.49,8-3.43,10.32l-69.45,99.47,90.24-46.21a42.06,42.06,0,0,0,12.13-9.36l74.59-85.37-90,27.52C2723.7,1031.36,2719.58,1031.56,2715.72,1029.94Zm-28.23,78.28c-6,4.33-12.61,6.58-14.77,5a1.68,1.68,0,0,1-.67-1.56c-.36-2,2.41-5.59,7-8.94a33.89,33.89,0,0,1,7.12-4c3.67-1.64,6.85-2.19,8.23-1.2C2696.61,1099.12,2693.49,1103.89,2687.49,1108.22Zm85.28-82.66a33.91,33.91,0,0,1,7.1-4c3.68-1.65,6.86-2.2,8.24-1.21,2.16,1.57-1,6.34-7,10.68s-12.61,6.57-14.78,5a1.73,1.73,0,0,1-.67-1.57C2765.36,1032.54,2768.13,1028.91,2772.77,1025.56Zm-28,46.17c2.16,1.56-1,6.34-7,10.67s-12.61,6.57-14.77,5a1.69,1.69,0,0,1-.67-1.57c-.35-2,2.42-5.59,7.05-8.93a33.74,33.74,0,0,1,7.13-4C2740.18,1071.29,2743.35,1070.74,2744.73,1071.73Zm-12.05-29.18c2.16,1.56-.95,6.34-6.95,10.67s-12.61,6.57-14.77,5a1.68,1.68,0,0,1-.67-1.56c-.37-2,2.4-5.59,7.05-9a33.74,33.74,0,0,1,7.16-4C2728.15,1042.1,2731.31,1041.56,2732.68,1042.55Z"/><path class="cls-7" d="M2622.13,1138.26c4.86,6.14,12.73,8,17.57,4.15l69.45-99.47c2.94-2.33,4.07-6.24,3.43-10.32a1519.48,1519.48,0,0,1-99.16-128.24c-2.79-3.13-5.26-6.28-4.48-8.79l-78.2,109.13c-4.84,3.85-4.82,12,0,18.1ZM2657,1024.41a10.72,10.72,0,0,1,8.23-.75c4.54.8,9.06,4,11.84,9,4.37,7.85,2.8,17-3.5,20.5s-15-.08-19.31-7.92a19.9,19.9,0,0,1-2.07-5.54C2650.33,1033.47,2652.14,1027.1,2657,1024.41Zm-31.88-40.29a10.72,10.72,0,0,1,8.21-.76c4.55.8,9.08,4,11.86,9,4.36,7.85,2.79,17-3.51,20.5s-14.94-.07-19.3-7.92a19.8,19.8,0,0,1-2.08-5.57C2618.46,993.16,2620.27,986.8,2625.14,984.12Zm-4.33,88.56a10.72,10.72,0,0,1,8.23-.75c4.54.81,9.06,4,11.84,9,4.36,7.85,2.79,17-3.51,20.49s-14.94-.07-19.3-7.91A19.8,19.8,0,0,1,2616,1088C2614.13,1081.72,2615.94,1075.37,2620.81,1072.68Zm-29-128.33a10.72,10.72,0,0,1,8.23-.75c4.54.81,9.06,4,11.84,9,4.36,7.85,2.79,17-3.51,20.5s-14.94-.08-19.31-7.92a20,20,0,0,1-2.08-5.6C2585.1,953.38,2586.92,947,2591.78,944.35Zm-5.3,84.94a10.69,10.69,0,0,1,8.22-.74c4.55.8,9.07,4,11.85,9,4.36,7.85,2.79,17-3.51,20.5s-14.95-.08-19.31-7.92a19.86,19.86,0,0,1-2.08-5.58C2579.8,1038.33,2581.61,1032,2586.48,1029.29Zm-31.32-37.18a10.73,10.73,0,0,1,8.22-.75,17.6,17.6,0,0,1,11.85,9c4.36,7.85,2.79,17-3.51,20.5s-14.94-.08-19.3-7.92a19.54,19.54,0,0,1-2.07-5.55C2548.47,1001.18,2550.28,994.8,2555.16,992.11Z"/><path class="cls-7" d="M2613.42,904.38c-2.72-4-4.16-6.12-4.16-6.12,18,15.47,94.09,115.39,106.46,131.68,3.86,1.62,8,1.42,11-1l90-27.52c4.84-3.85,4.82-12,0-18.11l-91.35-115.43c-4.87-6.15-12.73-8-17.57-4.15l-90,27.51c-5.7.85-8.18,2.38-8.77,4.3C2608.16,898.1,2610.63,901.25,2613.42,904.38Zm153.79,54.56a11.52,11.52,0,0,1,7.93-.89,19.39,19.39,0,0,1,12.53,7.25c5.12,6.48,4.63,14.26-1.11,17.39s-14.54.41-19.67-6.06a17.54,17.54,0,0,1-2.64-4.63C2761.73,966.78,2762.78,961.36,2767.21,958.94Zm-60.09-31.65a11.51,11.51,0,0,1,7.93-.89,19.43,19.43,0,0,1,12.52,7.25c5.12,6.48,4.63,14.26-1.11,17.39s-14.54.41-19.66-6.06a17.21,17.21,0,0,1-2.65-4.64C2701.64,935.12,2702.68,929.71,2707.12,927.29Zm-61.17-26a11.58,11.58,0,0,1,7.91-.89,19.41,19.41,0,0,1,12.55,7.25c5.13,6.48,4.63,14.27-1.11,17.39s-14.54.42-19.66-6.06a17.27,17.27,0,0,1-2.65-4.62C2640.47,909.13,2641.52,903.7,2646,901.28Z"/><path class="cls-8" d="M2717.43,1032.2l-1.71-2.26c-12.37-16.29-88.47-116.21-106.46-131.68,0,0,1.44,2.17,4.16,6.12a1519.48,1519.48,0,0,0,99.16,128.24q4,4.64,8.16,9.29Z"/><path class="cls-16" d="M2785.48,964.57c4.76,6,4.3,13.25-1,16.16s-13.5.38-18.26-5.64a16.67,16.67,0,0,1-1.94-3.09,17.54,17.54,0,0,0,2.64,4.63c5.13,6.47,13.94,9.19,19.67,6.06s6.23-10.91,1.11-17.39a19.39,19.39,0,0,0-12.53-7.25A18.25,18.25,0,0,1,2785.48,964.57Z"/><path class="cls-17" d="M2766.19,975.09c4.76,6,12.93,8.54,18.26,5.64s5.79-10.14,1-16.16a18.25,18.25,0,0,0-10.34-6.52,11.52,11.52,0,0,0-7.93.89c-4.43,2.42-5.48,7.84-3,13.06A16.67,16.67,0,0,0,2766.19,975.09Z"/><path class="cls-16" d="M2725.38,932.92c4.77,6,4.3,13.25-1,16.15s-13.51.39-18.27-5.63a17.28,17.28,0,0,1-1.94-3.1,17.21,17.21,0,0,0,2.65,4.64c5.12,6.47,13.93,9.19,19.66,6.06s6.23-10.91,1.11-17.39a19.43,19.43,0,0,0-12.52-7.25A18.34,18.34,0,0,1,2725.38,932.92Z"/><path class="cls-17" d="M2706.09,943.44c4.76,6,12.94,8.54,18.27,5.63s5.79-10.13,1-16.15a18.34,18.34,0,0,0-10.33-6.52,11.51,11.51,0,0,0-7.93.89c-4.44,2.42-5.48,7.83-3,13.05A17.28,17.28,0,0,0,2706.09,943.44Z"/><path class="cls-16" d="M2664.22,906.92c4.76,6,4.3,13.24-1,16.15s-13.5.38-18.26-5.64a17.14,17.14,0,0,1-1.94-3.08,17.27,17.27,0,0,0,2.65,4.62c5.12,6.48,13.93,9.19,19.66,6.06s6.24-10.91,1.11-17.39a19.41,19.41,0,0,0-12.55-7.25A18.27,18.27,0,0,1,2664.22,906.92Z"/><path class="cls-17" d="M2644.93,917.43c4.76,6,12.94,8.54,18.26,5.64s5.79-10.14,1-16.15a18.27,18.27,0,0,0-10.36-6.53,11.58,11.58,0,0,0-7.91.89c-4.43,2.42-5.48,7.85-3,13.07A17.14,17.14,0,0,0,2644.93,917.43Z"/><path class="cls-16" d="M2609.71,951.71c4.05,7.29,2.59,15.81-3.26,19s-13.87-.06-17.93-7.35a19.24,19.24,0,0,1-1.57-3.76,20,20,0,0,0,2.08,5.6c4.37,7.84,13,11.39,19.31,7.92s7.87-12.65,3.51-20.5c-2.78-5-7.3-8.24-11.84-9A16.79,16.79,0,0,1,2609.71,951.71Z"/><path class="cls-17" d="M2588.52,963.39c4.06,7.29,12.08,10.58,17.93,7.35s7.31-11.74,3.26-19a16.79,16.79,0,0,0-9.7-8.11,10.72,10.72,0,0,0-8.23.75c-4.86,2.69-6.68,9-4.83,15.28A19.24,19.24,0,0,0,2588.52,963.39Z"/><path class="cls-16" d="M2573.09,999.47c4,7.28,2.59,15.81-3.26,19s-13.88-.06-17.93-7.35a18.49,18.49,0,0,1-1.55-3.71,19.54,19.54,0,0,0,2.07,5.55c4.36,7.84,13,11.39,19.3,7.92s7.87-12.65,3.51-20.5a17.6,17.6,0,0,0-11.85-9A16.74,16.74,0,0,1,2573.09,999.47Z"/><path class="cls-17" d="M2551.9,1011.15c4,7.29,12.08,10.58,17.93,7.35s7.31-11.75,3.26-19a16.74,16.74,0,0,0-9.71-8.11,10.73,10.73,0,0,0-8.22.75c-4.88,2.69-6.69,9.07-4.81,15.33A18.49,18.49,0,0,0,2551.9,1011.15Z"/><path class="cls-16" d="M2675,1031.76c4.05,7.29,2.59,15.81-3.26,19s-13.87-.07-17.93-7.36a19,19,0,0,1-1.55-3.7,19.9,19.9,0,0,0,2.07,5.54c4.36,7.84,13,11.39,19.31,7.92s7.87-12.65,3.5-20.5c-2.78-5-7.3-8.24-11.84-9A16.73,16.73,0,0,1,2675,1031.76Z"/><path class="cls-17" d="M2653.76,1043.44c4.06,7.29,12.08,10.58,17.93,7.36s7.31-11.75,3.26-19a16.73,16.73,0,0,0-9.7-8.1,10.72,10.72,0,0,0-8.23.75c-4.88,2.69-6.69,9.06-4.81,15.33A19,19,0,0,0,2653.76,1043.44Z"/><path class="cls-16" d="M2643.07,991.47c4,7.29,2.59,15.81-3.26,19s-13.88-.07-17.93-7.36a18.13,18.13,0,0,1-1.56-3.73,19.8,19.8,0,0,0,2.08,5.57c4.36,7.85,13,11.39,19.3,7.92s7.87-12.65,3.51-20.5c-2.78-5-7.31-8.25-11.86-9A16.76,16.76,0,0,1,2643.07,991.47Z"/><path class="cls-17" d="M2621.88,1003.15c4,7.29,12.08,10.58,17.93,7.36s7.31-11.75,3.26-19a16.76,16.76,0,0,0-9.72-8.11,10.72,10.72,0,0,0-8.21.76c-4.87,2.68-6.68,9-4.82,15.3A18.13,18.13,0,0,0,2621.88,1003.15Z"/><path class="cls-16" d="M2638.74,1080c4.05,7.29,2.59,15.81-3.26,19s-13.87-.06-17.92-7.35A18.57,18.57,0,0,1,2616,1088a19.8,19.8,0,0,0,2.08,5.59c4.36,7.84,13,11.39,19.3,7.91s7.87-12.64,3.51-20.49c-2.78-5-7.3-8.24-11.84-9A16.76,16.76,0,0,1,2638.74,1080Z"/><path class="cls-17" d="M2617.56,1091.72c4.05,7.29,12.07,10.58,17.92,7.35s7.31-11.74,3.26-19a16.76,16.76,0,0,0-9.7-8.11,10.72,10.72,0,0,0-8.23.75c-4.87,2.69-6.68,9-4.82,15.29A18.57,18.57,0,0,0,2617.56,1091.72Z"/><path class="cls-16" d="M2604.41,1036.65c4.05,7.29,2.59,15.81-3.26,19s-13.88-.06-17.93-7.35a18.83,18.83,0,0,1-1.57-3.74,19.86,19.86,0,0,0,2.08,5.58c4.36,7.84,13,11.39,19.31,7.92s7.87-12.65,3.51-20.5c-2.78-5-7.3-8.24-11.85-9A16.72,16.72,0,0,1,2604.41,1036.65Z"/><path class="cls-17" d="M2583.22,1048.33c4.05,7.29,12.08,10.58,17.93,7.35s7.31-11.74,3.26-19a16.72,16.72,0,0,0-9.71-8.1,10.69,10.69,0,0,0-8.22.74c-4.87,2.69-6.68,9-4.83,15.3A18.83,18.83,0,0,0,2583.22,1048.33Z"/><path class="cls-16" d="M2786.48,1020.91c2,1.46-.88,5.89-6.45,9.91s-11.71,6.11-13.72,4.66a1.52,1.52,0,0,1-.6-1,1.73,1.73,0,0,0,.67,1.57c2.17,1.56,8.78-.68,14.78-5s9.11-9.11,7-10.68c-1.38-1-4.56-.44-8.24,1.21C2782.84,1020.41,2785.34,1020.08,2786.48,1020.91Z"/><path class="cls-17" d="M2766.31,1035.48c2,1.45,8.14-.64,13.72-4.66s8.46-8.45,6.45-9.91c-1.14-.83-3.64-.5-6.61.68a33.91,33.91,0,0,0-7.1,4c-4.64,3.35-7.41,7-7.06,8.94A1.52,1.52,0,0,0,2766.31,1035.48Z"/><path class="cls-16" d="M2743.1,1072.26c2,1.45-.88,5.89-6.45,9.91s-11.72,6.1-13.72,4.65a1.48,1.48,0,0,1-.6-1,1.69,1.69,0,0,0,.67,1.57c2.16,1.56,8.77-.68,14.77-5s9.12-9.11,7-10.67c-1.38-1-4.55-.44-8.22,1.2C2739.47,1071.75,2742,1071.43,2743.1,1072.26Z"/><path class="cls-17" d="M2722.93,1086.82c2,1.45,8.14-.63,13.72-4.65s8.46-8.46,6.45-9.91c-1.14-.83-3.63-.51-6.59.67a33.74,33.74,0,0,0-7.13,4c-4.63,3.34-7.4,7-7.05,8.93A1.48,1.48,0,0,0,2722.93,1086.82Z"/><path class="cls-16" d="M2731.06,1043.07c2,1.46-.89,5.89-6.46,9.91s-11.71,6.11-13.72,4.66a1.51,1.51,0,0,1-.59-1,1.68,1.68,0,0,0,.67,1.56c2.16,1.56,8.77-.68,14.77-5s9.11-9.11,6.95-10.67c-1.37-1-4.53-.45-8.18,1.18C2727.44,1042.57,2729.92,1042.25,2731.06,1043.07Z"/><path class="cls-17" d="M2710.88,1057.64c2,1.45,8.15-.64,13.72-4.66s8.46-8.45,6.46-9.91c-1.14-.82-3.62-.5-6.56.66a33.74,33.74,0,0,0-7.16,4c-4.65,3.36-7.42,7-7.05,9A1.51,1.51,0,0,0,2710.88,1057.64Z"/><path class="cls-16" d="M2694.45,1097.55c-1.38-1-4.56-.44-8.23,1.2,3-1.17,5.45-1.5,6.6-.67,2,1.45-.89,5.89-6.46,9.91s-11.71,6.1-13.72,4.65a1.46,1.46,0,0,1-.59-1,1.68,1.68,0,0,0,.67,1.56c2.16,1.57,8.77-.68,14.77-5S2696.61,1099.12,2694.45,1097.55Z"/><path class="cls-17" d="M2672.64,1112.64c2,1.45,8.15-.63,13.72-4.65s8.46-8.46,6.46-9.91c-1.15-.83-3.64-.5-6.6.67a33.89,33.89,0,0,0-7.12,4c-4.64,3.35-7.41,7-7,8.94A1.46,1.46,0,0,0,2672.64,1112.64Z"/><path class="cls-18" d="M3674.36,1850.31c-8.65,6.84-13.34,10.52-13.34,10.52l-58.39,20.42q27.38-25.38,54.75-50.22c-24.67,3.91-48.63-3.14-63.45-21.23l-496.68-350.68h0l177.08,479a270.08,270.08,0,0,0,59.48,74.76l97.3,83.65,437.55,376.19-186.19-554.84C3667.45,1899.5,3665.33,1874.12,3674.36,1850.31ZM3413.66,2031c-9,13.32-38.76-5.88-66.36-42.85s-42.63-77.78-33.57-91.11c2.09-3.07,5.29-4.39,9.29-4.19,11.85-2.26,34.59,14.88,55.94,43.52a219.14,219.14,0,0,1,25.7,43.9C3415.43,2002.91,3419.43,2022.51,3413.66,2031Zm175-74.33c-9,13.32-38.76-5.86-66.36-42.85s-42.62-77.78-33.56-91.1c2.1-3.08,5.3-4.4,9.32-4.19,11.85-2.21,34.55,14.92,55.9,43.53a219,219,0,0,1,25.58,43.63C3590.38,1928.44,3594.43,1948.15,3588.64,1956.66Z"/><path class="cls-19" d="M4458.31,1173.79l-2.57-1.82c1.34,1.21,2.66,2.44,4,3.72C4459.27,1175.05,4458.82,1174.41,4458.31,1173.79Z"/><path class="cls-19" d="M3593.93,1809.8c14.82,18.09,38.78,25.14,63.45,21.23,54.45-49.42,108.69-97.11,161.79-142.63l502.13-528.33c21.22-20.14,70.4-26.62,112.28-3.78L4176.8,974.5,3912,787c-24.46-29.83-73.76-29.7-110.12.3l-683,563.46c-36.37,30-46,78.52-21.57,108.35h0Zm83-585.42a137.27,137.27,0,0,1,39.82-15.34c44.84-13.68,91.31-.3,112,35.45,10.59,18.33,12.67,39.57,7.55,60.21-4.63,33.38-27.07,66.62-62.61,87-55.72,32-122.53,20.52-149.23-25.71S3621.2,1256.4,3676.9,1224.38Z"/><path class="cls-19" d="M4459.7,1175.69c-1.3-1.28-2.62-2.51-4-3.72a116.57,116.57,0,0,0-22.16-15.68c-41.88-22.84-91.06-16.36-112.28,3.78L3819.17,1688.4c340.39-291.83,633.89-494.78,633.89-494.78-90.31,110.92-682.07,580.3-778.7,656.69-9,23.81-6.91,49.19,8.11,67.53l186.19,554.84c24.45,29.83,73.76,29.69,110.13-.3l521.2-430v-76.82c-31.44,12.48-63.45,4.51-79.13-22.88-20.21-35.38-5.55-89.67,32.79-121.29a100.46,100.46,0,0,1,27.56-16.36,80.51,80.51,0,0,1,18.78-6.7V1254.09l-2.8-8.34C4489.81,1214.88,4476.26,1192,4459.7,1175.69Zm-548.92,776.68c-38.32,31.61-85.77,28.57-106-6.78s-5.56-89.67,32.78-121.28A100.74,100.74,0,0,1,3865,1808c31.27-15.65,64.54-9.17,80.22,18.23,8,14,10.1,31.2,7.14,48.6C3950.08,1902.7,3935.27,1932.16,3910.78,1952.37Zm135.31,382.47c-38.33,31.61-85.79,28.57-106-6.77s-5.55-89.67,32.79-121.29a100.79,100.79,0,0,1,27.43-16.31c31.27-15.64,64.53-9.16,80.2,18.24,8,14,10.11,31.23,7.14,48.64C4085.37,2285.2,4070.57,2314.65,4046.09,2334.84Zm182-374.86c-38.32,31.61-85.77,28.59-106-6.77s-5.55-89.68,32.78-121.29a100.61,100.61,0,0,1,27.56-16.36c31.24-15.58,64.43-9.08,80.09,18.3,8,14,10.11,31.26,7.12,48.7C4267.39,1910.39,4252.59,1939.8,4228.13,1960Zm163.46-393c-38.32,31.61-85.78,28.59-106-6.77s-5.55-89.67,32.79-121.29a100.55,100.55,0,0,1,27.59-16.37c31.22-15.55,64.4-9,80,18.32,8,14,10.11,31.19,7.14,48.59C4430.89,1517.32,4416.07,1546.78,4391.59,1567Z"/><path class="cls-18" d="M3657.38,1831q-27.36,24.83-54.75,50.22l58.39-20.42s4.69-3.68,13.34-10.52c96.63-76.39,688.39-545.77,778.7-656.69,0,0-293.5,203-633.89,494.78C3766.07,1733.92,3711.83,1781.61,3657.38,1831Z"/><path class="cls-20" d="M3914.75,1938.86c-35.59,29.37-79.67,26.54-98.47-6.3s-5.15-83.26,30.45-112.62A96.71,96.71,0,0,1,3865,1808a100.74,100.74,0,0,0-27.42,16.31c-38.34,31.61-53,85.9-32.78,121.28s67.69,38.39,106,6.78c24.49-20.21,39.3-49.67,41.55-77.54C3948.34,1898.24,3935.17,1922,3914.75,1938.86Z"/><path class="cls-21" d="M3816.28,1932.56c18.8,32.84,62.88,35.67,98.47,6.3,20.42-16.84,33.59-40.62,37.58-64,3-17.4.86-34.6-7.14-48.6-15.68-27.4-49-33.88-80.22-18.23a96.71,96.71,0,0,0-18.24,11.94C3811.13,1849.3,3797.5,1899.73,3816.28,1932.56Z"/><path class="cls-20" d="M4395.55,1553.49c-35.59,29.35-79.67,26.55-98.46-6.29s-5.15-83.28,30.46-112.63a96.78,96.78,0,0,1,18.4-12,100.55,100.55,0,0,0-27.59,16.37c-38.34,31.62-53,85.91-32.79,121.29s67.7,38.38,106,6.77c24.48-20.2,39.3-49.66,41.54-77.52C4429.14,1512.87,4416,1536.65,4395.55,1553.49Z"/><path class="cls-21" d="M4426,1440.87c-15.64-27.37-48.82-33.87-80-18.32a96.78,96.78,0,0,0-18.4,12c-35.61,29.35-49.23,79.78-30.46,112.63s62.87,35.64,98.46,6.29c20.42-16.84,33.59-40.62,37.58-64C4436.1,1472.06,4434,1454.86,4426,1440.87Z"/><path class="cls-20" d="M4050.06,2321.34c-35.6,29.36-79.67,26.54-98.48-6.31s-5.14-83.25,30.46-112.62a96.78,96.78,0,0,1,18.25-11.94,100.79,100.79,0,0,0-27.43,16.31c-38.34,31.62-53,85.91-32.79,121.29s67.69,38.38,106,6.77c24.48-20.19,39.28-49.64,41.54-77.49C4083.63,2280.75,4070.47,2304.5,4050.06,2321.34Z"/><path class="cls-21" d="M4080.49,2208.71c-15.67-27.4-48.93-33.88-80.2-18.24a96.78,96.78,0,0,0-18.25,11.94c-35.6,29.37-49.23,79.79-30.46,112.62s62.88,35.67,98.48,6.31c20.41-16.84,33.57-40.59,37.57-64C4090.6,2239.94,4088.51,2222.72,4080.49,2208.71Z"/><path class="cls-20" d="M4432.39,1929.66c-18.79-32.84-5.15-83.27,30.45-112.62a96.63,96.63,0,0,1,18.37-12,100.46,100.46,0,0,0-27.56,16.36c-38.34,31.62-53,85.91-32.79,121.29,15.68,27.39,47.69,35.36,79.13,22.88V1953C4472.74,1961.43,4446,1953.38,4432.39,1929.66Z"/><path class="cls-21" d="M4462.84,1817c-35.6,29.35-49.24,79.78-30.45,112.62,13.58,23.72,40.35,31.77,67.6,23.34V1798.34a80.51,80.51,0,0,0-18.78,6.7A96.63,96.63,0,0,0,4462.84,1817Z"/><path class="cls-20" d="M4232.12,1946.48c-35.61,29.36-79.68,26.53-98.48-6.3s-5.15-83.27,30.46-112.62a96.57,96.57,0,0,1,18.36-12,100.61,100.61,0,0,0-27.56,16.36c-38.33,31.61-53,85.91-32.78,121.29s67.69,38.38,106,6.77c24.46-20.18,39.26-49.59,41.54-77.42C4265.66,1905.93,4252.5,1929.66,4232.12,1946.48Z"/><path class="cls-21" d="M4262.55,1833.86c-15.66-27.38-48.85-33.88-80.09-18.3a96.57,96.57,0,0,0-18.36,12c-35.61,29.35-49.24,79.78-30.46,112.62s62.87,35.66,98.48,6.3c20.38-16.82,33.54-40.55,37.55-63.92C4272.66,1865.12,4270.57,1847.88,4262.55,1833.86Z"/><path class="cls-20" d="M3773.63,1391.75c35.54-20.43,58-53.67,62.61-87-6.87,27.69-26.69,54.3-56.33,71.34-51.73,29.75-113.77,19-138.57-23.87s-3-101.81,48.76-131.56a128.69,128.69,0,0,1,26.62-11.57,137.27,137.27,0,0,0-39.82,15.34c-55.7,32-79.2,95.44-52.5,141.66S3717.91,1423.77,3773.63,1391.75Z"/><path class="cls-21" d="M3641.34,1352.17c24.8,42.92,86.84,53.62,138.57,23.87,29.64-17,49.46-43.65,56.33-71.34,5.12-20.64,3-41.88-7.55-60.21-20.66-35.75-67.13-49.13-112-35.45a128.69,128.69,0,0,0-26.62,11.57C3638.37,1250.36,3616.54,1309.24,3641.34,1352.17Z"/><path class="cls-20" d="M3410.13,2021c-8.41,12.37-36-5.46-61.62-39.81s-39.58-72.2-31.18-84.59a8.63,8.63,0,0,1,5.69-3.71c-4-.2-7.2,1.12-9.29,4.19-9.06,13.33,6,54.1,33.57,91.11s57.31,56.17,66.36,42.85c5.77-8.48,1.77-28.08-9-50.73C3412.44,1998.52,3414.93,2013.89,3410.13,2021Z"/><path class="cls-21" d="M3317.33,1896.55c-8.4,12.39,5.56,50.25,31.18,84.59s53.21,52.18,61.62,39.81c4.8-7.06,2.31-22.43-5.47-40.69a219.14,219.14,0,0,0-25.7-43.9c-21.35-28.64-44.09-45.78-55.94-43.52A8.63,8.63,0,0,0,3317.33,1896.55Z"/><path class="cls-20" d="M3585.1,1946.64c-8.4,12.37-36-5.45-61.64-39.79s-39.57-72.23-31.16-84.61a8.58,8.58,0,0,1,5.74-3.72c-4-.21-7.22,1.11-9.32,4.19-9.06,13.32,6,54.11,33.56,91.1s57.31,56.17,66.36,42.85c5.79-8.51,1.74-28.22-9.12-51C3587.38,1924.06,3589.92,1939.54,3585.1,1946.64Z"/><path class="cls-21" d="M3492.3,1822.24c-8.41,12.38,5.55,50.25,31.16,84.61s53.24,52.16,61.64,39.79c4.82-7.1,2.28-22.58-5.58-41a219,219,0,0,0-25.58-43.63c-21.35-28.61-44.05-45.74-55.9-43.53A8.58,8.58,0,0,0,3492.3,1822.24Z"/><path class="cls-18" d="M103.59,745.38l93.69-230.83c.24-10.1,6.59-18.88,16.1-24l-7.22-.32-24.48-9.7q15.85-.56,31.57-.93c-9-5.62-14.82-14.57-14.58-24.54l-63-251.58h0L60.07,407.26A115.31,115.31,0,0,0,58.54,448Zm43.16-276.8c1.35-19.62,7.8-37,14.42-38.73a4.21,4.21,0,0,1,4.16,1.24c4.43,2.6,7,14.45,6,29.63a93.61,93.61,0,0,1-3.83,21.2c-2.81,10.37-7,17.85-11.19,19C149.66,502.67,145.39,488.2,146.75,468.58Zm-77-24.83c1.35-19.63,7.8-37,14.42-38.73a4.17,4.17,0,0,1,4.15,1.24c4.45,2.57,7,14.44,6,29.63a93.77,93.77,0,0,1-3.87,21.32c-2.81,10.31-7,17.74-11.16,18.86C72.64,477.85,68.38,463.37,69.73,443.75Z"/><path class="cls-19" d="M653.61,491l-.33-1.3c.1.72.18,1.46.24,2.2C653.55,491.58,653.6,491.29,653.61,491Z"/><path class="cls-19" d="M213.25,479.56c31.24-.75,61.95-1,91.68-.88l308.3-30.33c12.42-.58,30.08,11,37.25,30.09L584.6,213.9C585,197.46,569,183.76,549,183.29l-376.36-8.77c-20-.47-36.59,12.48-37,28.92h0l63,251.58C198.43,465,204.21,473.94,213.25,479.56Zm118.2-159.13c4.19-22.35,29.34-36.25,56.18-31a58.06,58.06,0,0,1,17.06,6.16C423,303.63,434.24,320.91,431,338.2a34.1,34.1,0,0,1-14.28,21.53c-10.75,9.46-27.17,13.92-44.28,10.6C345.6,365.12,327.25,342.78,331.45,320.43Z"/><path class="cls-19" d="M613.23,448.35l-308.3,30.33c190.62.82,341.49,17.23,341.49,17.23-59.86,10.58-380.76-3.08-433-5.4-9.51,5.16-15.86,13.94-16.1,24L103.59,745.38c-.38,16.44,15.55,30.14,35.59,30.61l376.36,8.77c20,.46,36.59-12.48,37-28.92L646.21,525c6.19-12,8.15-23.24,7.31-33.14-.06-.74-.14-1.48-.24-2.2a49.21,49.21,0,0,0-2.8-11.24C643.31,459.4,625.65,447.77,613.23,448.35ZM245,719.33c-1.29,6.75-5.39,12.89-11.17,17.68-8.45,8.35-21.38,13.71-34.87,13.4-21.11-.5-35.58-14.71-32.31-31.75s23.06-30.46,44.18-30a42.77,42.77,0,0,1,13.37,2.38C238.64,694.76,247.57,706.13,245,719.33Zm62.35-161.06c-1.3,6.75-5.39,12.88-11.17,17.66-8.44,8.36-21.38,13.73-34.88,13.42-21.11-.5-35.57-14.71-32.3-31.75s23.05-30.46,44.17-30A42.94,42.94,0,0,1,286.56,530C301,533.7,309.92,545.07,307.38,558.27Zm100.22,91c-1.3,6.76-5.4,12.9-11.2,17.69C388,675.26,375,680.61,361.56,680.3c-21.12-.5-35.58-14.7-32.31-31.75s23.05-30.46,44.18-30A43,43,0,0,1,386.84,621C401.23,624.68,410.14,636,407.6,649.23Zm99.24,79.91c-1.3,6.76-5.4,12.9-11.19,17.69-8.45,8.34-21.37,13.7-34.85,13.38-21.11-.49-35.58-14.7-32.31-31.74s23.06-30.47,44.18-30a42.69,42.69,0,0,1,13.42,2.41C500.48,704.6,509.38,716,506.84,729.14Zm62.35-161.06c-1.3,6.75-5.39,12.88-11.16,17.66-8.45,8.36-21.38,13.73-34.88,13.42-21.11-.5-35.58-14.7-32.31-31.75S513.9,537,535,537.44a42.87,42.87,0,0,1,13.44,2.42C562.83,543.55,571.72,554.9,569.19,568.08Z"/><path class="cls-18" d="M646.42,495.91S495.55,479.5,304.93,478.68c-29.73-.12-60.44.13-91.68.88q-15.7.38-31.57.93l24.48,9.7,7.22.32C265.66,492.83,586.56,506.49,646.42,495.91Z"/><path class="cls-20" d="M266.36,586.1c-19.62-.46-33.05-13.66-30-29.49s21.41-28.28,41-27.82a40.7,40.7,0,0,1,9.19,1.23,42.94,42.94,0,0,0-13.36-2.39c-21.12-.49-40.89,12.93-44.17,30s11.19,31.25,32.3,31.75c13.5.31,26.44-5.06,34.88-13.42A45.78,45.78,0,0,1,266.36,586.1Z"/><path class="cls-21" d="M286.56,530a40.7,40.7,0,0,0-9.19-1.23c-19.61-.46-38,12-41,27.82s10.39,29,30,29.49a45.78,45.78,0,0,0,29.85-10.17c5.78-4.78,9.87-10.91,11.17-17.66C309.92,545.07,301,533.7,286.56,530Z"/><path class="cls-20" d="M528.17,595.91c-19.61-.46-33-13.65-30-29.48s21.42-28.29,41-27.83a41.4,41.4,0,0,1,9.27,1.26A42.87,42.87,0,0,0,535,537.44c-21.12-.49-40.89,12.92-44.18,30s11.2,31.25,32.31,31.75c13.5.31,26.43-5.06,34.88-13.42A45.82,45.82,0,0,1,528.17,595.91Z"/><path class="cls-21" d="M548.46,539.86a41.4,41.4,0,0,0-9.27-1.26c-19.61-.46-38,12-41,27.83s10.4,29,30,29.48A45.82,45.82,0,0,0,558,585.74c5.77-4.78,9.86-10.91,11.16-17.66C571.72,554.9,562.83,543.55,548.46,539.86Z"/><path class="cls-20" d="M204,747.16c-19.61-.46-33-13.66-30-29.49s21.41-28.28,41-27.82a40.87,40.87,0,0,1,9.2,1.23,42.77,42.77,0,0,0-13.37-2.38c-21.12-.5-40.89,12.92-44.18,30s11.2,31.25,32.31,31.75c13.49.31,26.42-5,34.87-13.4A45.82,45.82,0,0,1,204,747.16Z"/><path class="cls-21" d="M224.23,691.08a40.87,40.87,0,0,0-9.2-1.23c-19.61-.46-38,12-41,27.82s10.39,29,30,29.49A45.82,45.82,0,0,0,233.86,737c5.78-4.79,9.88-10.93,11.17-17.68C247.57,706.13,238.64,694.76,224.23,691.08Z"/><path class="cls-20" d="M465.83,757c-19.62-.46-33.05-13.66-30-29.49s21.41-28.29,41-27.82a40.66,40.66,0,0,1,9.25,1.25,42.69,42.69,0,0,0-13.42-2.41c-21.12-.5-40.89,12.92-44.18,30s11.2,31.25,32.31,31.74c13.48.32,26.4-5,34.85-13.38A45.82,45.82,0,0,1,465.83,757Z"/><path class="cls-21" d="M486.09,700.91a40.66,40.66,0,0,0-9.25-1.25c-19.61-.47-38,12-41,27.82s10.39,29,30,29.49a45.82,45.82,0,0,0,29.82-10.14c5.79-4.79,9.89-10.93,11.19-17.69C509.38,716,500.48,704.6,486.09,700.91Z"/><path class="cls-20" d="M366.58,677.06c-19.61-.47-33-13.67-30-29.5s21.41-28.28,41-27.82a41.72,41.72,0,0,1,9.24,1.25,43,43,0,0,0-13.41-2.41c-21.13-.49-40.9,12.93-44.18,30s11.19,31.25,32.31,31.75c13.47.31,26.4-5,34.84-13.38A45.82,45.82,0,0,1,366.58,677.06Z"/><path class="cls-21" d="M386.84,621a41.72,41.72,0,0,0-9.24-1.25c-19.62-.46-38,12-41,27.82s10.4,29,30,29.5a45.82,45.82,0,0,0,29.82-10.14c5.8-4.79,9.9-10.93,11.2-17.69C410.14,636,401.23,624.68,386.84,621Z"/><path class="cls-20" d="M372.44,370.33c17.11,3.32,33.53-1.14,44.28-10.6-9.89,7-23.63,10.06-37.9,7.29-24.93-4.84-42-25.58-38.07-46.34S368,287,392.93,291.85a54.51,54.51,0,0,1,11.76,3.7,58.06,58.06,0,0,0-17.06-6.16c-26.84-5.21-52,8.69-56.18,31S345.6,365.12,372.44,370.33Z"/><path class="cls-21" d="M340.75,320.68c-3.89,20.76,13.14,41.5,38.07,46.34,14.27,2.77,28-.28,37.9-7.29A34.1,34.1,0,0,0,431,338.2c3.24-17.29-8.05-34.57-26.31-42.65a54.51,54.51,0,0,0-11.76-3.7C368,287,344.65,299.92,340.75,320.68Z"/><path class="cls-20" d="M79.25,476.07c4.21-1.12,8.35-8.55,11.16-18.86-2.55,8.06-6,13.71-9.51,14.64-6.14,1.65-10.1-11.8-8.84-30s7.24-34.32,13.38-36a3.62,3.62,0,0,1,2.86.4A4.17,4.17,0,0,0,84.15,405c-6.62,1.77-13.07,19.1-14.42,38.73S72.64,477.85,79.25,476.07Z"/><path class="cls-21" d="M85.44,405.86c-6.14,1.66-12.13,17.75-13.38,36s2.7,31.66,8.84,30c3.5-.93,7-6.58,9.51-14.64a93.77,93.77,0,0,0,3.87-21.32c1-15.19-1.53-27.06-6-29.63A3.62,3.62,0,0,0,85.44,405.86Z"/><path class="cls-20" d="M156.27,500.9c4.23-1.13,8.38-8.61,11.19-19-2.56,8.12-6,13.82-9.55,14.76-6.14,1.65-10.1-11.79-8.85-30s7.25-34.33,13.39-36a3.67,3.67,0,0,1,2.88.4,4.21,4.21,0,0,0-4.16-1.24c-6.62,1.76-13.07,19.11-14.42,38.73S149.66,502.67,156.27,500.9Z"/><path class="cls-21" d="M162.45,430.69c-6.14,1.65-12.13,17.75-13.39,36s2.71,31.66,8.85,30c3.52-.94,7-6.64,9.55-14.76a93.61,93.61,0,0,0,3.83-21.2c1.05-15.18-1.53-27-6-29.63A3.67,3.67,0,0,0,162.45,430.69Z"/><path class="cls-13" d="M2868.9,61l-19.45,31.49L2663,394.39,2950.5,244.75c8.75-9.83,22.45-13.16,36.23-10.21l-6.89-6.45-16.13-30.39q16.22,12.9,32.12,25.85c-4.24-13.24-2.42-27,6.21-36.72L3094.17,0H2943.8l-39.08,21.88A150,150,0,0,0,2868.9,61Zm101.17,108.3a121.38,121.38,0,0,1-21.68,17.79c-11.52,7.91-21.95,11.82-27.09,9.35-8.06-3.84-.1-21.82,17.78-40.15s38.9-30.08,47-26.22a5.5,5.5,0,0,1,3.08,4.77C2991.33,141.14,2983.9,155.09,2970.07,169.27Zm-39.56-129.2a5.53,5.53,0,0,1,3.08,4.76c2.25,6.32-5.19,20.29-19,34.48a120.89,120.89,0,0,1-21.81,17.88c-11.47,7.85-21.84,11.72-27,9.26-8.05-3.84-.09-21.83,17.78-40.16S2922.45,36.22,2930.51,40.07Z"/><path class="cls-12" d="M3423.3,608.37l.77-1.57c-.54.84-1.1,1.67-1.69,2.5C3422.69,609,3423,608.7,3423.3,608.37Z"/><path class="cls-12" d="M2995.83,223.55c31.65,25.76,62.34,51.55,91.74,76.9l331.58,231.36c12.81,10,20.54,36.48,11.62,61.46l157.52-318.44c14.23-16,10-43.12-9.53-60.57L3339.5,0H3094.17L3002,186.83C2993.41,196.53,2991.59,210.31,2995.83,223.55Zm251.42-57.7c23-18.62,59.68-11.08,81.92,16.84a76.55,76.55,0,0,1,11.75,20.59c11.31,23.51,8,50.24-9.84,64.65-9.13,7.39-20.58,10.33-32.31,9.26-18.64.27-38.69-9.23-52.88-27C3223.64,222.22,3224.25,184.48,3247.25,165.85Z"/><path class="cls-12" d="M3419.15,531.81,3087.57,300.45C3276.08,462.93,3412,607.17,3412,607.17c-68.34-40.27-375.34-326-425.28-372.63-13.78-2.95-27.48.38-36.23,10.21L2663,394.39c-14.23,16-10,43.12,9.53,60.58l366.17,327.9c19.49,17.45,46.83,18.65,61.07,2.65l287.51-149.64c16.25-6.68,27.6-16.08,35.12-26.58.59-.83,1.15-1.66,1.69-2.5a65,65,0,0,0,6.7-13.53C3439.69,568.29,3432,541.78,3419.15,531.81ZM2825.32,488.5c-7,5.61-16.21,8.22-26,8.07-15.42,1.13-32.78-4.52-45.91-16.27-20.54-18.4-22.91-44.78-5.31-58.91s48.56-10.69,69.1,7.72a56.33,56.33,0,0,1,11.26,13.71C2839.69,458.69,2839,477.55,2825.32,488.5Zm120.41-174.1c17.62-14.13,48.55-10.68,69.1,7.72a56.05,56.05,0,0,1,11.25,13.71c11.21,15.87,10.5,34.73-3.15,45.68-7,5.6-16.2,8.22-26,8.07-15.43,1.13-32.8-4.51-45.93-16.27C2930.5,354.91,2928.12,328.55,2945.73,314.4Zm22.83,175.28c17.62-14.14,48.55-10.69,69.1,7.72A56,56,0,0,1,3049,511.17c11.17,15.86,10.44,34.68-3.19,45.63-7,5.61-16.24,8.22-26,8.06-15.41,1.11-32.74-4.53-45.86-16.27C2953.33,530.19,2951,503.82,2968.56,489.68Zm108.36,230.61c-7,5.61-16.23,8.23-26,8.06-15.41,1.12-32.75-4.53-45.86-16.27-20.55-18.4-22.93-44.77-5.32-58.91s48.56-10.68,69.1,7.72a56,56,0,0,1,11.29,13.77C3091.29,690.53,3090.56,709.35,3076.92,720.29Zm197.61-107c-7,5.59-16.2,8.21-26,8.06-15.43,1.13-32.79-4.51-45.92-16.27-20.54-18.39-22.93-44.77-5.32-58.91s48.56-10.69,69.1,7.72a56.13,56.13,0,0,1,11.3,13.79C3288.89,583.56,3288.16,602.37,3274.53,613.31Z"/><path class="cls-13" d="M3412,607.17s-135.93-144.24-324.44-306.72c-29.4-25.35-60.09-51.14-91.74-76.9q-15.9-12.93-32.12-25.85l16.13,30.39,6.89,6.45C3036.67,281.17,3343.67,566.9,3412,607.17Z"/><path class="cls-22" d="M2997,389.58a59.75,59.75,0,0,1-38.21-15.23c-19.08-17.09-21.29-41.58-4.93-54.72s45.09-9.92,64.17,7.17a54.13,54.13,0,0,1,8.08,9,56.05,56.05,0,0,0-11.25-13.71c-20.55-18.4-51.48-21.85-69.1-7.72s-15.23,40.51,5.31,58.91C2964.17,385.07,2981.54,390.71,2997,389.58Z"/><path class="cls-15" d="M3018,326.8c-19.08-17.09-47.81-20.3-64.17-7.17s-14.15,37.63,4.93,54.72A59.75,59.75,0,0,0,2997,389.58c9.76.15,19-2.47,26-8.07,13.65-10.95,14.36-29.81,3.15-45.68A54.13,54.13,0,0,0,3018,326.8Z"/><path class="cls-22" d="M3205.42,551.42c16.37-13.12,45.1-9.92,64.17,7.18a53.64,53.64,0,0,1,8.14,9.1,56.13,56.13,0,0,0-11.3-13.79c-20.54-18.41-51.47-21.85-69.1-7.72s-15.22,40.52,5.32,58.91c13.13,11.76,30.49,17.4,45.92,16.27a59.77,59.77,0,0,1-38.21-15.24C3191.28,589.05,3189.07,564.55,3205.42,551.42Z"/><path class="cls-15" d="M3269.59,558.6c-19.07-17.1-47.8-20.3-64.17-7.18s-14.14,37.63,4.94,54.71a59.77,59.77,0,0,0,38.21,15.24c9.76.15,19-2.47,26-8.06,13.63-10.94,14.36-29.75,3.2-45.61A53.64,53.64,0,0,0,3269.59,558.6Z"/><path class="cls-22" d="M2756.23,426.61c16.35-13.12,45.08-9.91,64.16,7.18a53.77,53.77,0,0,1,8.09,9,56.33,56.33,0,0,0-11.26-13.71c-20.54-18.41-51.48-21.85-69.1-7.72s-15.23,40.51,5.31,58.91c13.13,11.75,30.49,17.4,45.91,16.27a59.76,59.76,0,0,1-38.18-15.23C2742.07,464.25,2739.87,439.76,2756.23,426.61Z"/><path class="cls-15" d="M2820.39,433.79c-19.08-17.09-47.81-20.3-64.16-7.18s-14.16,37.64,4.93,54.73a59.76,59.76,0,0,0,38.18,15.23c9.77.15,19-2.46,26-8.07,13.65-10.95,14.37-29.81,3.16-45.68A53.77,53.77,0,0,0,2820.39,433.79Z"/><path class="cls-22" d="M3007.82,658.4c16.36-13.13,45.09-9.92,64.17,7.18a53.82,53.82,0,0,1,8.12,9.08,56,56,0,0,0-11.29-13.77c-20.54-18.4-51.47-21.85-69.1-7.72s-15.23,40.51,5.32,58.91c13.11,11.74,30.45,17.39,45.86,16.27a59.78,59.78,0,0,1-38.15-15.23C2993.68,696,2991.47,671.54,3007.82,658.4Z"/><path class="cls-15" d="M3072,665.58c-19.08-17.1-47.81-20.31-64.17-7.18s-14.14,37.63,4.93,54.72a59.78,59.78,0,0,0,38.15,15.23c9.79.17,19-2.45,26-8.06,13.64-10.94,14.37-29.76,3.19-45.63A53.82,53.82,0,0,0,3072,665.58Z"/><path class="cls-22" d="M3019.73,564.86a59.76,59.76,0,0,1-38.14-15.23c-19.07-17.09-21.28-41.59-4.93-54.72s45.09-9.92,64.17,7.18a54.25,54.25,0,0,1,8.12,9.08,56,56,0,0,0-11.29-13.77c-20.55-18.41-51.48-21.86-69.1-7.72s-15.23,40.51,5.31,58.91C2987,560.33,3004.32,566,3019.73,564.86Z"/><path class="cls-15" d="M3040.83,502.09c-19.08-17.1-47.81-20.31-64.17-7.18s-14.14,37.63,4.93,54.72a59.76,59.76,0,0,0,38.14,15.23c9.79.16,19-2.45,26-8.06,13.63-10.95,14.36-29.77,3.19-45.63A54.25,54.25,0,0,0,3040.83,502.09Z"/><path class="cls-22" d="M3298.77,277.19c-15.72-1.44-31.93-10.07-43.76-24.92-20.66-25.93-20.09-61,1.27-78.27s55.41-10.3,76.08,15.63a72.23,72.23,0,0,1,8.56,13.65,76.55,76.55,0,0,0-11.75-20.59c-22.24-27.92-58.92-35.46-81.92-16.84s-23.61,56.37-1.36,84.3C3260.08,268,3280.13,277.46,3298.77,277.19Z"/><path class="cls-15" d="M3256.28,174c-21.36,17.29-21.93,52.34-1.27,78.27,11.83,14.85,28,23.48,43.76,24.92,11.73,1.07,23.18-1.87,32.31-9.26,17.8-14.41,21.15-41.14,9.84-64.65a72.23,72.23,0,0,0-8.56-13.65C3311.69,163.7,3277.64,156.7,3256.28,174Z"/><path class="cls-22" d="M2883.55,66.29c-17.87,18.33-25.83,36.32-17.78,40.16,5.13,2.46,15.5-1.41,27-9.26-9.32,5.83-17.51,8.51-21.78,6.47-7.48-3.58-.08-20.28,16.52-37.3s36.11-27.92,43.6-24.35a4.81,4.81,0,0,1,2.51,2.82,5.53,5.53,0,0,0-3.08-4.76C2922.45,36.22,2901.44,48,2883.55,66.29Z"/><path class="cls-15" d="M2931.08,42c-7.49-3.57-27,7.33-43.6,24.35s-24,33.72-16.52,37.3c4.27,2,12.46-.64,21.78-6.47a120.89,120.89,0,0,0,21.81-17.88c13.85-14.19,21.29-28.16,19-34.48A4.81,4.81,0,0,0,2931.08,42Z"/><path class="cls-22" d="M2926.47,193.61c-7.48-3.57-.08-20.27,16.51-37.3s36.13-27.91,43.61-24.34a4.77,4.77,0,0,1,2.52,2.84A5.5,5.5,0,0,0,2986,130c-8.05-3.86-29.08,7.89-47,26.22s-25.84,36.31-17.78,40.15c5.14,2.47,15.57-1.44,27.09-9.35C2939,193,2930.76,195.66,2926.47,193.61Z"/><path class="cls-15" d="M2986.59,132c-7.48-3.57-27,7.33-43.61,24.34s-24,33.73-16.51,37.3c4.29,2,12.54-.66,21.92-6.55a121.38,121.38,0,0,0,21.68-17.79c13.83-14.18,21.26-28.13,19-34.46A4.77,4.77,0,0,0,2986.59,132Z"/></svg>